<svg version="1.1" viewBox="450 200 1000 1000" width="45" height="45" xmlns="http://www.w3.org/2000/svg">
<path transform="translate(588,870)" d="m0 0c1.26 0.0671 2.52 0.134 3.81 0.203 10.7 0.541 21.3 0.897 32 1.04 1.19 0.0166 2.37 0.0333 3.59 0.0504 4.88 0.0661 9.76 0.128 14.6 0.18 13.4 0.149 26.6 0.33 39.9 2.52v-2h4v-2c4.54-0.101 7.71 0.57 12 2v2h5v2c3.62 1.49 7.28 2.79 11 4v2c1.75 0.0814 3.5 0.139 5.25 0.188 0.975 0.0348 1.95 0.0696 2.95 0.105 3.23-0.339 4.3-1.33 6.8-3.29 2.74-0.375 5.22-0.139 8 0v2c1.11 0.144 2.23 0.289 3.38 0.438 3.62 0.562 3.62 0.562 5.62 1.56v3c0.928 0.144 1.86 0.289 2.81 0.438 3.19 0.562 3.19 0.562 6.19 1.56 1.47 0.0816 2.95 0.108 4.42 0.0977 0.891-0.0033 1.78-0.00661 2.7-0.01 1.44-0.0124 1.44-0.0124 2.91-0.0251 0.987-0.00379 1.97-0.00757 2.99-0.0115 3.16-0.0122 6.32-0.0309 9.48-0.051 4.16-0.0265 8.31-0.0466 12.5-0.0625 1.44-0.0124 1.44-0.0124 2.91-0.0251 0.891-0.0033 1.78-0.00661 2.7-0.01 0.784-0.00524 1.57-0.0105 2.37-0.0159 2.05 0.114 2.05 0.114 5.05 1.11v2h2v2h2v2l1.75 0.438c1.38 0.346 2.76 0.707 4.13 1.09 2.18 0.482 4.04 0.568 6.27 0.531 10.5-0.138 21 0.0172 31.5 0.436 15.5 0.561 30.9 0.608 46.4 0.546 4.76-0.0188 9.53-0.028 14.3-0.0359 13.5-0.0238 27-0.0604 40.5-0.105 7.53-0.0245 15.1-0.0419 22.6-0.0516 4.73-0.00651 9.46-0.022 14.2-0.0443 2.93-0.0117 5.85-0.0151 8.78-0.0161 2-0.00317 4-0.0163 6-0.0298 1.79 0.00196 1.79 0.00196 3.61 0.00395 1.55-0.00471 1.55-0.00471 3.13-0.00952 2.95 0.256 5.13 1 7.81 2.24v2c1.67 0.333 3.33 0.667 5 1 1.67 0.333 3.33 0.667 5 1v2h3v2h3v2c0.897 0.433 0.897 0.433 1.81 0.875 2.19 1.13 2.19 1.13 5.19 3.12v2h2c0.804 1.42 0.804 1.42 1.62 2.88 1.27 2.24 2.58 4.45 3.94 6.64 0.535 0.861 1.07 1.72 1.62 2.61 0.509 0.807 1.02 1.61 1.54 2.45 3.28 6.27 2.49 13.6 2.52 20.5 0.0309 1.75 0.0309 1.75 0.0625 3.53 0.0483 10.8-2.06 20.3-6.5 30.2-0.53 1.19-1.06 2.38-1.61 3.61-0.597 1.31-0.597 1.31-1.21 2.64h-2c-0.144 0.619-0.289 1.24-0.438 1.88-0.562 2.13-0.562 2.13-1.56 4.12h-2v4h-4v2h-2v2c-2.12 0.837-4.25 1.67-6.38 2.5-1.18 0.464-2.37 0.928-3.59 1.41-3.04 1.09-3.04 1.09-5.04 1.09v2h-2v2c-8.07 1.12-16.1 1.13-24.2 1.1-1.52-0.00192-3.04-0.00338-4.57-0.00443-3.26-0.00315-6.52-0.00939-9.78-0.0181-5.16-0.0136-10.3-0.0194-15.5-0.0241-10.9-0.0111-21.9-0.0306-32.8-0.051-11.8-0.022-23.7-0.0426-35.5-0.0534-5.13-0.00498-10.3-0.0148-15.4-0.0284-3.18-0.00745-6.37-0.0108-9.55-0.013-1.48-0.00187-2.95-0.00548-4.43-0.0109-2.01-0.00721-4.03-0.00767-6.04-0.00778-1.13-0.00222-2.26-0.00444-3.42-0.00673-2.48 0.103-4.53 0.395-6.89 1.12-0.206 6.1-0.206 6.1 1 12 3.42 1.88 3.42 1.88 7 3 0.33 0.33 0.66 0.66 1 1 1.73-0.0589 3.46-0.147 5.19-0.25 3.97-0.0517 6.39 0.0664 9.5 2.62 2.31 2.62 2.31 2.62 2.31 4.62h2v2c13.9 1.27 27.7 1.15 41.6 1.13 2.58 6.75e-4 5.16 0.00165 7.74 0.0029 5.39 0.00147 10.8-5.49e-4 16.2-0.00534 6.18-0.00543 12.4-0.00368 18.5 0.00183 6.01 0.00513 12 0.00453 18 0.00162 2.53-6.61e-4 5.06 1.29e-4 7.58 0.00248 12.5 0.00909 25-0.0566 37.5-0.916 6.81-0.393 13.6-0.289 20.4-0.22 14 1.17 14 1.17 26.2-3.56 0.701-0.804 1.4-1.61 2.12-2.44h2v-2h2c0.227-0.619 0.454-1.24 0.688-1.88 1.69-2.74 3.3-3.18 6.31-4.12v-2c1.98-0.495 1.98-0.495 4-1v-2h4v-2h2v-2h2v-2h2c0.0825-0.763 0.165-1.53 0.25-2.31 1.04-5.1 2.89-9.83 4.75-14.7h2v-2h2c0.66-1.98 1.32-3.96 2-6h2v-2h2c0.66-1.65 1.32-3.3 2-5h2v-2h2v-2h2c0.309-0.619 0.619-1.24 0.938-1.88l2.06-4.12h2v-2h2v-3h2v-2h2c0.33-1.32 0.66-2.64 1-4h2c0.33-1.98 0.66-3.96 1-6h2c0.309-0.784 0.619-1.57 0.938-2.38 1.06-2.62 1.06-2.62 2.06-4.62h2v-4h2v-2h2v-2h2v-2h2v-2c0.784-0.247 1.57-0.495 2.38-0.75 3.05-1.45 3.35-2.25 4.62-5.25 1.44-1.75 1.44-1.75 3-3h3v-2h2v-2h2v-2h2v-2c2.88-0.625 2.88-0.625 6-1 2 2 2 2 3 4 0.558-0.313 1.12-0.626 1.69-0.949 3.93-1.79 8.02-2.13 12.3-2.05 2.75 1.44 2.75 1.44 5 3h3.06c2.94 0 2.94 0 5.31 1.38 0.536 0.536 1.07 1.07 1.62 1.62v2c4.69 2.19 9.81 3.75 15 4 2.55-1.71 2.55-1.71 4-4h2v-2h5v2c0.536 0.268 1.07 0.536 1.62 0.812 2.79 1.4 5.58 2.79 8.38 4.19v3h2v4c1.07 0.413 2.14 0.825 3.25 1.25 3.27 1.4 5.49 2.94 7.75 5.75v2h2c1.25 1.46 1.25 1.46 2.56 3.38 0.434 0.626 0.869 1.25 1.32 1.9 1.12 1.73 1.12 1.73 2.12 3.73h2v4h2c3.45 7.18 3.9 14.1 3 22-1.05 2.54-2.17 3.89-4 6-0.769 2.23-0.769 2.23-1 4h-2v4h-2v4h-2v4h-2c-0.0554 0.691-0.111 1.38-0.168 2.09-1.12 3.92-3.48 6.43-6.14 9.41-0.976 1.11-1.95 2.23-2.93 3.34-0.47 0.53-0.94 1.06-1.42 1.61-1.24 1.44-2.41 2.95-3.57 4.46-0.584 0.691-1.17 1.38-1.77 2.09h-2c-1.21 2.33-2.17 4.5-3 7h-2c-0.33 0.99-0.66 1.98-1 3-1.65 1.69-3.31 3.35-5 5-0.33 0.66-0.66 1.32-1 2h-2v2h-2v3h-2v2h-2v2h-2v2h-2v2c-0.804 0.268-1.61 0.536-2.44 0.812-0.846 0.392-1.69 0.784-2.56 1.19-0.33 0.99-0.66 1.98-1 3-1.61 1.82-2.82 2.91-5 4v2h-2v2h-2c-0.248 0.887-0.495 1.77-0.75 2.69-1.63 4.32-3.97 7.11-7.31 10.2-2.31 2.46-3.55 5.01-4.94 8.06h-2v2c-0.763 0.598-1.53 1.2-2.31 1.81-2.72 2.22-3.94 4.2-5.69 7.19h-2c-0.33 0.66-0.66 1.32-1 2-0.667 1.33-1.33 2.67-2 4h-2v2c-1.88 2.12-1.88 2.12-4 4h-2v3h-2v2h-2v2h-2c-1.08 2.65-2.09 5.28-3 8h-2v2h-2v4h-2v2h-2c-0.66 1.65-1.32 3.3-2 5h-2v2h-2v2h-2c-0.268 0.639-0.536 1.28-0.812 1.94-1.19 2.06-1.19 2.06-4.19 3.06-1.22 2.5-1.22 2.5-2 5h-2v3h-2v2h-3v2h-2v2h-2v2h-2v2h-2v2h-2v3h-2v2h-2v2h-2v2h-2v2h-2v2c-1.65 0.66-3.3 1.32-5 2v2c-2.75 1.37-4.95 1.13-8.03 1.14-1.93 0.0103-1.93 0.0103-3.9 0.0209-1.43 0.00271-2.87 0.00535-4.3 0.00792-1.5 0.0063-3.01 0.0131-4.51 0.0203-3.24 0.0147-6.48 0.0264-9.72 0.0359-5.12 0.0154-10.2 0.0394-15.4 0.0649-14.6 0.0713-29.1 0.131-43.7 0.182-8.04 0.0283-16.1 0.0636-24.1 0.107-5.09 0.0268-10.2 0.0447-15.3 0.056-3.17 0.00911-6.33 0.0265-9.5 0.0462-1.47 0.00749-2.94 0.0116-4.41 0.012-2 0.00108-4.01 0.0155-6.01 0.0306-1.68 0.00635-1.68 0.00635-3.4 0.0128-2.97 0.0595-2.97 0.0595-5.75 2.26-1.19 2.05-1.19 2.05-2 4h-5v3h-5v-2c-19.4-1.25-38.8-1.15-58.2-1.13-4.71 0.00572-9.41 0.00239-14.1-0.00357-3.68-0.00364-7.36-0.00245-11 1.28e-4 -1.73 6.57e-4 -3.47-1.16e-4 -5.2-0.00248-9.67-0.0103-19.2 0.206-28.9 0.91-13.5 0.876-13.5 0.876-18.5-0.774v3c-0.638-0.0722-1.28-0.144-1.93-0.219-0.826-0.0928-1.65-0.186-2.5-0.281-0.824-0.0928-1.65-0.186-2.5-0.281-2.66-0.282-4.46 0.11-7.07 0.781v-2h-2c-0.33-0.99-0.66-1.98-1-3-1.65 0.33-3.3 0.66-5 1-0.309-1.42-0.309-1.42-0.625-2.88-1.09-3.33-1.09-3.33-4.12-4.62-3.8-0.585-5.8-0.149-9.25 1.5-0.66 0.99-1.32 1.98-2 3-0.969-0.186-1.94-0.371-2.94-0.562-1.01-0.144-2.02-0.289-3.06-0.438-0.33 0.33-0.66 0.66-1 1-1.67 0.0406-3.33 0.0427-5 0 0.66-0.66 1.32-1.32 2-2-0.66-0.33-1.32-0.66-2-1-0.33-0.99-0.66-1.98-1-3-1.89-0.681-1.89-0.681-4-1-0.99-0.33-1.98-0.66-3-1v-4h-5v-2h-9v2c-0.578 0.247-1.15 0.495-1.75 0.75-2.38 1.18-2.38 1.18-4.31 3.38-1.94 1.88-1.94 1.88-4.94 1.88v-2h-2v-2h-2c-0.619-0.66-1.24-1.32-1.88-2-2.12-2.46-2.12-2.46-6.12-2v-2c-0.99-0.33-1.98-0.66-3-1-0.33-0.99-0.66-1.98-1-3-7.35-1.88-12.1-2.55-19 1-0.33 0.66-0.66 1.32-1 2h-2v-3c-0.66-0.33-1.32-0.66-2-1-0.66-0.33-1.32-0.66-2-1-4.74 0.357-8.18 1.11-12 4v2c-1.32-0.33-2.64-0.66-4-1-0.33-1.65-0.66-3.3-1-5-2.64-0.66-5.28-1.32-8-2v3c-6.88-3.62-6.88-3.62-8-7-2.92-0.222-5.83-0.428-8.75-0.625-1.24-0.0967-1.24-0.0967-2.5-0.195-0.799-0.0516-1.6-0.103-2.42-0.156l-2.22-0.159c-2.45 0.158-3.99 0.913-6.11 2.14v-2c-3.76-0.08-7.13 0.0196-10.9 0.562-6.11 0.763-12.2 0.126-18.3-0.309-2.59-0.174-5.19-0.254-7.79-0.254v2h-2v2h-2c-0.33 0.66-0.66 1.32-1 2-2.31-0.33-4.62-0.66-7-1-0.33 1.32-0.66 2.64-1 4-1.11-0.0825-2.23-0.165-3.38-0.25-5.3-0.019-9.98 1.77-14.6 4.25-0.33 0.66-0.66 1.32-1 2h-4c-0.433 0.454-0.866 0.908-1.31 1.38-2.48 2.39-5.41 2.69-8.69 3.62-1.77 1.52-1.77 1.52-3 3h-2c-0.33 0.66-0.66 1.32-1 2v-2h-3v3h-5c-0.66 1.32-1.32 2.64-2 4h-7c-0.33 0.99-0.66 1.98-1 3h-4c-0.33 0.66-0.66 1.32-1 2h-4v2c-1.39 1.32-1.39 1.32-3.25 2.69-0.603 0.458-1.21 0.915-1.83 1.39-1.92 0.926-1.92 0.926-4.16 0.57-0.583-0.213-1.17-0.425-1.77-0.645v3c-2.94 1.47-5.87 2.94-8.81 4.4-1.88 0.942-3.76 1.89-5.62 2.85-5.19 2.66-5.19 2.66-7.72 3.23-0.608 0.171-1.22 0.343-1.84 0.52-0.33 0.66-0.66 1.32-1 2-0.66-0.33-1.32-0.66-2-1v2h-4v2c-4.51 3.68-9.34 6.55-15 8v2h-2v2h-2v2c-1.98 0.66-3.96 1.32-6 2v2c-2.31 0.99-4.62 1.98-7 3v2h-2c-0.33 0.66-0.66 1.32-1 2-2.93 1.98-5.51 3.35-9 4v2c-0.578 0.0825-1.15 0.165-1.75 0.25-2.93 0.976-4.09 2.53-6.25 4.75-5.61 4.67-11.5 8.08-18.2 10.9-2.17 1.01-2.17 1.01-2.83 4.08-1.99 1.03-3.99 2.02-6 3-2.88 2.03-5.59 4.28-8.32 6.5-5.11 4.06-5.11 4.06-8.68 4.5v2c-1.13 0.433-2.27 0.866-3.44 1.31-1.76 0.835-1.76 0.835-3.56 1.69-0.33 0.99-0.66 1.98-1 3-2.22 1.59-4.58 2.72-7 4v3c-0.928 0.433-0.928 0.433-1.88 0.875-2.26 1.06-2.26 1.06-4.12 3.12-2.92 1.92-5.5 3.5-9 4-1-1-1-1-1.06-4.56 0.0206-1.13 0.0412-2.27 0.0625-3.44h-2v-286h2v-2h4v-2h3v-2h4v-2c3-2 3-2 6-2v-2c1.64-1.29 1.64-1.29 3.81-2.62 0.708-0.446 1.42-0.892 2.14-1.35 2.04-1.02 2.04-1.02 5.04-1.02v-2h4v-2h2v-2h4v-2c2.65-1.46 3.89-2 7-2v-2c5.75-3 5.75-3 8-3v-2c2.97-0.99 2.97-0.99 6-2v-2h3v-2h4v-2h4v-2h2v-2c1.03-0.413 2.06-0.825 3.12-1.25 3.59-1.52 6.64-3.57 9.88-5.75h2v-2h4v-2h4v-2h3v-2h4v-2h2v-2c1.75-0.985 3.5-1.96 5.25-2.94 0.975-0.545 1.95-1.09 2.95-1.65 2.33-1.18 4.25-1.93 6.8-2.41v-2h4v-2h2v-2h4v-2h4v-2c3.47-0.99 3.47-0.99 7-2v-2c1.32-0.33 2.64-0.66 4-1v-2h3v-2h3v-2h3v-2h4v-2h4v-2c2.55-1.73 2.55-1.73 5.88-3.62 1.09-0.632 2.18-1.26 3.3-1.91 2.82-1.46 2.82-1.46 4.82-1.46v-2h4v-2h2v-2h4v-2h3v-2h2v-2h4v-2c5.75-3 5.75-3 8-3v-2h3v-2h4v-2h4v-2h4v-2c1.6-0.673 3.21-1.34 4.81-2 0.893-0.371 1.79-0.742 2.71-1.12 2.48-0.875 2.48-0.875 5.48-0.875v-2h4v-2c3.86-2.15 6.55-3.39 11-3v-2h4v-2h9v-2zm613 55 1 2zm-527 248c0.66 0.66 1.32 1.32 2 2v-2h-2zm41 10 4 1zm-372 121 1 2z" fill="#0C1010"/>
<path transform="translate(918,218)" d="m0 0v2h3c0.33 0.66 0.66 1.32 1 2 0.99 0.33 1.98 0.66 3 1 2.19 1.94 2.19 1.94 4 4v2h2c0.33 0.99 0.66 1.98 1 3 0.99 0.33 1.98 0.66 3 1v5h2v2c0.99 0.33 1.98 0.66 3 1 4 4.46 4 4.46 4 7h2v4h2v2h2v4h2c4 5.29 4 5.29 4 9h2c0.844 1.41 1.67 2.83 2.5 4.25 0.464 0.789 0.928 1.58 1.41 2.39 1.09 2.36 1.09 2.36 1.09 6.36h2v6h2v4h2c0.339 1.42 0.671 2.83 1 4.25 0.186 0.789 0.371 1.58 0.562 2.39 0.438 2.36 0.438 2.36 0.438 6.36h2c2 6.66 2.35 12.8 2.31 19.8-0.00346 1.07-0.00693 2.13-0.0105 3.23-0.102 7.36-0.744 14.1-3.3 21-0.286 0.82-0.572 1.64-0.867 2.48-0.671 1.85-1.39 3.69-2.13 5.52h-2v4h-2c-1.51 4.2-2.91 8.1-3.38 12.6-0.84 4.62-2.98 7.62-5.62 11.4-1.04 1.56-2.09 3.12-3.12 4.69-0.758 1.12-0.758 1.12-1.53 2.26-1.46 2.17-1.46 2.17-2.97 5.05-1.38 2-1.38 2-3.56 2.81-0.598 0.0619-1.2 0.124-1.81 0.188v2c-0.928 0.124-1.86 0.248-2.81 0.375-3.29 1.28-3.29 1.28-4.29 3.84-1.65 4.75-1.65 4.75-1.43 9.64 0.586 2.36 0.661 4.43 0.669 6.86 0.00547 0.952 0.0109 1.9 0.0166 2.88 0.00147 1.56 0.00147 1.56 0.00296 3.16 0.00494 1.11 0.00988 2.22 0.015 3.36 0.0154 3.73 0.0237 7.47 0.0321 11.2 0.00958 2.67 0.0195 5.34 0.03 8.01 0.0218 5.76 0.0399 11.5 0.0556 17.3 0.0227 8.32 0.0508 16.6 0.0803 25 0.0477 13.5 0.0909 27 0.131 40.5 0.0394 13.1 0.0808 26.2 0.125 39.4 0.00272 0.808 0.00545 1.62 0.00826 2.45 0.0137 4.06 0.0274 8.11 0.0411 12.2 0.114 33.6 0.221 67.3 0.323 101 0.99 0.33 1.98 0.66 3 1v2h6v1c1.65 0.33 3.3 0.66 5 1v2c0.846 0.227 1.69 0.454 2.56 0.688 6.34 2.42 10.1 5.44 13.4 11.3 2.2 2.48 4.46 4.87 7 7h2c2 3 2 3 3 5h2v2h2c-0.0825 0.743-0.165 1.48-0.25 2.25 0.326 3.59 1.68 4.33 4.25 6.75 1.7 3.4 2 5.1 2 9 4.55 0.178 7.88-0.00215 12-2v-2h2v-2h2v-2h3v-2c2.6-0.222 5.21-0.428 7.81-0.625 1.11-0.0967 1.11-0.0967 2.24-0.195 5.61-0.406 5.61-0.406 8.95 1.82 2.07 0.0275 2.07 0.0275 4.19-0.375 1.26-0.206 2.52-0.412 3.81-0.625v-2h5v2c0.837-0.067 1.67-0.134 2.54-0.203 4.15 0.243 7.25 1.63 10.9 3.45 0.63 0.3 1.26 0.601 1.91 0.91 5.78 2.79 11.6 5.62 16.4 9.96 2.05 1.85 3.93 3.33 6.25 4.88v2h2c1.44 1.71 1.44 1.71 3 3.94 2.05 3.05 2.05 3.05 5 5.06v2h2c2 3 2 3 2 6h2c1.26 2.91 2 4.8 2 8 0.619 0.289 1.24 0.578 1.88 0.875 2.12 1.13 2.12 1.13 4.12 3.12v3h3v2c0.949-0.186 1.9-0.371 2.88-0.562 3.12-0.438 3.12-0.438 5.12 0.562v2c0.804-0.124 1.61-0.248 2.44-0.375 5.22 0.55 8.45 3.26 12.6 6.38 0.63 0.476 1.26 0.951 1.91 1.44 1.42 1.12 2.76 2.33 4.09 3.56v2h2v2h2v2h2c1.69 1.98 3.35 3.98 5 6 0.66 0.33 1.32 0.66 2 1v2h2v2h2v2h2v2h2v2h2v2h2v2c0.597 0.245 1.19 0.49 1.81 0.742 6.16 3.53 9.18 11.8 11.2 18.3v3h-2c0.289 0.866 0.577 1.73 0.875 2.62 1.12 3.37 1.12 3.37 1.94 6.62 0.941 2.97 0.941 2.97 3.81 4.12 0.784 0.206 1.57 0.412 2.38 0.625v2c0.866 0.394 0.866 0.394 1.75 0.797 6.17 3.3 10.6 8.32 14.2 14.2 1.62 2.05 3.3 4.02 5 6-8.26 4.41-8.26 4.41-13 5v2h-3c-0.33 0.66-0.66 1.32-1 2-2.65 0.594-5.29 0.742-8 1-0.33 0.99-0.66 1.98-1 3h-4c-0.33 0.66-0.66 1.32-1 2-1.19-0.0522-1.19-0.0522-2.41-0.105-8.27-0.341-8.27-0.341-15.6 3.11-1.01 1.66-2.01 3.33-3 5-1.94 1.85-3.96 3.58-6.01 5.31-5.38 4.58-9.74 9.91-14.2 15.4-1.18 1.45-1.18 1.45-2.39 2.94-1.12 1.38-1.12 1.38-2.25 2.79-1.97 2.33-4 4.46-6.18 6.59-1.05 1.11-1.05 1.11-2.12 2.25-1.88 1.75-1.88 1.75-3.88 1.75-0.33 1.32-0.66 2.64-1 4h-2v2h-2c-0.33 0.66-0.66 1.32-1 2-0.66-0.33-1.32-0.66-2-1v3c-1.39 1.64-1.39 1.64-3.25 3.25-0.603 0.541-1.21 1.08-1.83 1.64-1.92 1.11-1.92 1.11-4.16 0.781-0.583-0.222-1.17-0.443-1.77-0.672v-2h-2v-2c-1.32-0.33-2.64-0.66-4-1v-4h-2v-4h-2c-3.43-8.43-3.43-8.43-3-13h-2v-6h-2v-5h-2c-1.26-2.91-2-4.8-2-8h-2v-4h-2v-2h-2c-3-4.38-3-4.38-3-7h-2v-2h-2v-2h-2v-2h-2v-2h-2v-2h-2v-2c-0.557-0.268-1.11-0.536-1.69-0.812-2.52-1.3-4.95-2.61-7.31-4.19v-2h-4v-2c-0.598-0.144-1.2-0.289-1.81-0.438-1.75-0.45-3.47-0.991-5.19-1.56v-3c-3.64-1.21-6.97-1.15-10.8-1.15-1.2-0.00635-1.2-0.00635-2.42-0.0128-2.68-0.0131-5.37-0.0191-8.05-0.0251-1.92-0.00794-3.84-0.0163-5.76-0.0251-4.14-0.0181-8.28-0.0331-12.4-0.0458-6.55-0.0202-13.1-0.0479-19.6-0.0767-13.9-0.0601-27.8-0.112-41.7-0.163-15-0.0551-30-0.112-45-0.178-6.51-0.0283-13-0.0519-19.5-0.0719-4.05-0.0134-8.1-0.0308-12.2-0.0493-1.88-0.00774-3.75-0.0138-5.63-0.0181-2.57-0.00607-5.13-0.0181-7.7-0.0316-0.74-2.96e-4 -1.48-5.92e-4 -2.24-8.97e-4 -10.9-0.076-10.9-0.076-15-2.15-2.1 0.399-2.1 0.399-4 1v-4h-2c-0.425-0.642-0.851-1.28-1.29-1.95-1.56-2.27-1.56-2.27-4.23-2.73-1.41-0.0967-1.41-0.0967-2.85-0.195-0.936-0.0799-1.87-0.16-2.84-0.242-4.38 0.184-7.18 1.71-10.8 4.12h-4v-4h-20v-2h-3v-2h-4v-2h-4v-2c-0.99-0.33-1.98-0.66-3-1-0.578-0.206-1.15-0.412-1.75-0.625-3.2-0.534-6.07 0.0749-9.25 0.625v4c-2.52-0.312-5.04-0.624-7.56-0.938-0.704-0.087-1.41-0.174-2.13-0.264-4.44-0.553-8.87-1.15-13.3-1.8v-2c-4.45-1.48-4.45-1.48-9-3v-2c-5.28-0.33-10.6-0.66-16-1-0.33 0.66-0.66 1.32-1 2-1.33 0.667-2.67 1.33-4 2-2-1-2-1-3-4-8.47-1.12-16.5-0.805-25 0v2l-8 1c0.66-0.33 1.32-0.66 2-1v-3c-1.88-1.11-1.88-1.11-4-2-0.66 0.33-1.32 0.66-2 1-0.66-0.33-1.32-0.66-2-1v-2h-2v-2h-5v-2c-0.99-0.33-1.98-0.66-3-1-0.33-0.33-0.66-0.66-1-1v4h-2v-2h-7c-0.66 1.32-1.32 2.64-2 4h-3v-2c-3.76-1.25-7.27-1.11-11.2-1.06-1.12 0.00677-1.12 0.00677-2.27 0.0137-1.85 0.0118-3.69 0.0297-5.54 0.0488v1h-7v-2c-1.32-0.33-2.64-0.66-4-1v-2c-0.598 0.227-1.2 0.454-1.81 0.688-2.19 0.312-2.19 0.312-3.94-0.625-2.02-3.33-1.49-6.21-1.25-10.1 0.33-0.66 0.66-1.32 1-2h2c0.33-1.32 0.66-2.64 1-4h2c0.33-1.32 0.66-2.64 1-4h2v-2h2v-2h2v-3h2v-2h2v-2h2v-2h2c0.289-0.784 0.578-1.57 0.875-2.38 1.12-2.62 1.12-2.62 3.12-4.62 0.643-2.07 0.643-2.07 1-4h2v-4h2v-2h2v-4h4v-2h5v-2c3.62-1.32 6.1-2 10-2v-2c1.46-0.838 2.91-1.67 4.38-2.5 0.812-0.464 1.62-0.928 2.46-1.41 2.16-1.09 2.16-1.09 4.16-1.09v-2h2v-2h2v-2h2v-2c1.32-0.33 2.64-0.66 4-1v-3c2.38-2.69 2.38-2.69 5-5h2v-2h2v-2h2v-2h2v-2h2v-2h2v-2c1.46-1.29 1.46-1.29 3.38-2.62 0.626-0.446 1.25-0.892 1.9-1.35 1.73-1.02 1.73-1.02 3.73-1.02v-2h2v-2h4v-2h5v-2c1.39-0.433 1.39-0.433 2.81-0.875 3.29-1.01 3.29-1.01 6.19-3.12h3v-2c4.89-1.63 10-1.69 14.8-0.0273 3.43 1.11 6.46 1.43 10 1.65 1.15 0.0748 2.3 0.15 3.49 0.227 0.869 0.049 1.74 0.098 2.63 0.148v-2h2c0.66-2.31 1.32-4.62 2-7h2v-4h2v-4h2c0.309-0.784 0.619-1.57 0.938-2.38 1.06-2.62 1.06-2.62 2.06-4.62h2c0.66-1.98 1.32-3.96 2-6h2v-2h2v-2h2v-2h2v-2h2v-2h2v-2c1.38-1.62 1.38-1.62 3-3h2v-2h4v-2h2v-2h4v-2c1.13-0.412 2.27-0.825 3.44-1.25 2.28-0.835 4.45-1.69 6.61-2.8 6.71-3.45 13.5-3.99 21-3.95 0.99 0.33 1.98 0.66 3 1 1.84-0.19 3.67-0.425 5.5-0.688 6.7-0.649 11.5 0.984 17.5 3.69 1.66 0.672 3.33 1.34 5 2v2c0.99-0.33 1.98-0.66 3-1 0.33 0.66 0.66 1.32 1 2 0.99 0.33 1.98 0.66 3 1v2c1.98 0.66 3.96 1.32 6 2v2c1.11-0.0309 1.11-0.0309 2.25-0.0625 2.75 0.0625 2.75 0.0625 4.64 0.57 2.33 0.542 4.29 0.52 6.68 0.43 4.82-0.0713 9.2 0.662 13.9 1.72 2.97 0.536 2.97 0.536 7.54-0.66v-83h-2v-2h-2v-2h-2v-2c-0.763-0.289-1.53-0.578-2.31-0.875-2.69-1.12-2.69-1.12-5.69-3.12v-2h-3v-2c-1.98-0.66-3.96-1.32-6-2v-2c-1.32-0.33-2.64-0.66-4-1v-2c-1.65-0.66-3.3-1.32-5-2v-2h-2v-2c-1.98-0.66-3.96-1.32-6-2v-2h-2v-2h-2v-2h-2c-2.62-2.38-2.62-2.38-5-5v-2h-2v-2h-2v-2h-2v-2h-2v-2h-2v-2h-2v-2h-2v-2c-0.99-0.33-1.98-0.66-3-1v-2h-2v-2h-2v-2h-2v-2h-2v-2h-2v-2h-2v-2h-2v-2h-2c-1.62-1.38-1.62-1.38-3-3v-2h-2v-2h-2v-2h-2v-4h-2v-2h-2c-1.69-1.98-3.35-3.98-5-6-0.66-0.33-1.32-0.66-2-1v-2h-2v-3c-1.98 0.33-3.96 0.66-6 1 0.33-0.66 0.66-1.32 1-2h-2-3v-2h-3v-2c-0.578-0.144-1.15-0.289-1.75-0.438-2.08-0.521-4.17-1.04-6.25-1.56v-2c-2.65-1.08-5.28-2.09-8-3v-2h-2v-2h-2v-2h-2v-2h-2v-2h-3v-4h-2v-4h-2v-2h-2v-3h-2v-2h-2c-0.66-1.98-1.32-3.96-2-6h-2c-2.43-3.37-3-4.73-3-9h-2v-4h-2c-2.47-5.74-2.26-11.2-2.2-17.3 0.00283-1.08 0.00566-2.16 0.00858-3.27 0.0112-3.43 0.0363-6.87 0.0617-10.3 0.01-2.33 0.0192-4.67 0.0273-7 0.022-5.71 0.0554-11.4 0.0977-17.1h2v-6h2c-0.0825-0.804-0.165-1.61-0.25-2.44 0.235-3.34 0.631-4.63 2.06-7.5 2.61-5.41 3.52-11 4.57-16.9 0.613-3.16 0.613-3.16 1.61-5.16h9v2c0.845 0.203 0.845 0.203 1.71 0.41 2.35 0.606 4.66 1.29 6.98 2.03 1.18 0.369 1.18 0.369 2.39 0.746 1.93 0.816 1.93 0.816 2.93 2.82h5c0.33 0.99 0.66 1.98 1 3 2.31 0.754 4.65 1.41 7 2 1.68 0.642 3.35 1.3 5 2v2c0.99-0.33 1.98-0.66 3-1 3.19 1.44 3.19 1.44 6 3v2c0.843 0.184 0.843 0.184 1.7 0.371 2.49 0.681 4.7 1.62 7.05 2.69 0.799 0.362 1.6 0.724 2.42 1.1 0.603 0.277 1.21 0.554 1.83 0.84v2c0.908 0.289 1.82 0.578 2.75 0.875 2.57 0.89 4.86 1.84 7.25 3.12v2h2v2c0.99 0.33 1.98 0.66 3 1 0.66 0.33 1.32 0.66 2 1v2h2v2h2c0.0412 0.66 0.0825 1.32 0.125 2 0.86 2.95 1.55 4.01 3.44 6.31 6.73 8.57 11.6 19 13.4 29.7 0.66 0.99 1.32 1.98 2 3h2c0.0376 1.12 0.0376 1.12 0.0759 2.27 0.118 3.47 0.24 6.94 0.362 10.4 0.0393 1.18 0.0786 2.36 0.119 3.57 0.249 7 0.644 14 1.23 20.9 0.704 9.31 0.704 9.31-0.789 13.8v4c-0.312 2.34-0.642 4.67-1 7-0.66-0.66-1.32-1.32-2-2 0.33 0.598 0.66 1.2 1 1.81 1 2.19 1 2.19 1 5.19h2c0.454 0.969 0.908 1.94 1.38 2.94 1.28 3.13 1.28 3.13 3.62 4.06v2h2v2c0.99 0.33 1.98 0.66 3 1 0.33 0.66 0.66 1.32 1 2 0.99 0.66 1.98 1.32 3 2l5 5c1.1 0.905 2.2 1.8 3.31 2.69 0.887 0.763 1.77 1.53 2.69 2.31v2h2v2h2v2h4v2h2v2c0.722 0.268 1.44 0.536 2.19 0.812 2.81 1.19 2.81 1.19 5.31 2.81 2.77 1.52 4.39 1.64 7.5 1.38v-7h-2v-6h2v-116h-2v-2c-1.32-0.33-2.64-0.66-4-1v-2h-2v-2h-2v-2c-0.598-0.268-1.2-0.536-1.81-0.812-2.19-1.19-3.6-2.28-5.19-4.19v-2h-2v-2h-2v-2h-2v-4h-2v-4h-2v-4h-2c-5.96-9.39-5.71-18.9-5.9-29.6-0.128-3.18-0.564-6.23-1.1-9.37h-2v-3h-2v-3h-2v-2h-2v-13h2v-4h2v-2h2v-4h2v-3h2c0.66-3.3 1.32-6.6 2-10h-2c-0.144-1.07-0.289-2.14-0.438-3.25-0.43-3.53-0.43-3.53-1.25-5.94-0.426-2.47 0.416-3.72 1.69-5.81h2c0.0825-0.536 0.165-1.07 0.25-1.62 1.03-3.26 2.7-5.66 4.75-8.38 1.49-0.495 1.49-0.495 3-1 0.33-0.66 0.66-1.32 1-2h2v-2h2v-2h2v-2h2c0.33-1.32 0.66-2.64 1-4h2c0.371-1.27 0.371-1.27 0.75-2.56 1.39-3.82 3.16-6.96 5.25-10.4h2v-4h2v-2h2v-2h2c0.34-0.835 0.34-0.835 0.688-1.69 2.43-4.28 5.75-7.45 10.3-9.31v-2h2v-2c3.66-0.749 6.42-1.24 10 0zm51 81v5h1v-5h-1zm1 5 1 3zm-37 112v11h1v-11h-1zm-1 11v19h1v-19h-1zm-93 11v17h1v-17h-1zm93 9v48h1v-48h-1zm-93 10 1 3zm0 8 1 3zm1 8 1 2zm92 23v56h1v-56h-1zm0 57v33h1v-33h-1zm0 74v6h1v-6h-1zm0 11 1 3zm1 3 1 4zm-1 4v20h1v-20h-1zm0 22v19h1v-19h-1zm-307 167 4 1zm146 24c0.33 0.66 0.66 1.32 1 2 1.32-0.33 2.64-0.66 4-1-1.65-0.33-3.3-0.66-5-1z" fill="#0C1010"/>
<path transform="translate(918,218)" d="m0 0v2h3c0.33 0.66 0.66 1.32 1 2 0.99 0.33 1.98 0.66 3 1 2.19 1.94 2.19 1.94 4 4v2h2c0.33 0.99 0.66 1.98 1 3 0.99 0.33 1.98 0.66 3 1v5h2v2c0.99 0.33 1.98 0.66 3 1 4 4.46 4 4.46 4 7h2v4h2v2h2v4h2c4 5.29 4 5.29 4 9h2c0.844 1.41 1.67 2.83 2.5 4.25 0.464 0.789 0.928 1.58 1.41 2.39 1.09 2.36 1.09 2.36 1.09 6.36h2v6h2v4h2c0.339 1.42 0.671 2.83 1 4.25 0.186 0.789 0.371 1.58 0.562 2.39 0.438 2.36 0.438 2.36 0.438 6.36h2c2 6.66 2.35 12.8 2.31 19.8-0.00346 1.07-0.00693 2.13-0.0105 3.23-0.102 7.36-0.744 14.1-3.3 21-0.286 0.82-0.572 1.64-0.867 2.48-0.671 1.85-1.39 3.69-2.13 5.52h-2v4h-2c-1.51 4.2-2.91 8.1-3.38 12.6-0.84 4.62-2.98 7.62-5.62 11.4-1.04 1.56-2.09 3.12-3.12 4.69-0.758 1.12-0.758 1.12-1.53 2.26-1.46 2.17-1.46 2.17-2.97 5.05-1.38 2-1.38 2-3.56 2.81-0.598 0.0619-1.2 0.124-1.81 0.188v2c-0.928 0.124-1.86 0.248-2.81 0.375-3.58 1.82-3.8 2.19-5 5.81-3.3 14.5-2.31 30-2.26 44.7 0.0129 4.04 0.0195 8.09 0.0241 12.1 0.0119 9.33 0.0338 18.7 0.0562 28 0.0253 10.6 0.0464 21.1 0.0573 31.7 7.71e-4 0.68 0.00154 1.36 0.00234 2.06 0.0203 19.4-0.216 38.7-0.96 58.1-0.244 7.29-0.255 14.6-0.235 21.9 0.00553 2.44-1.11e-4 4.88-0.00635 7.32-0.00234 7.1 0.0977 14.1 0.672 21.2 0.756 10.1 0.321 20.1 0.0273 30.2-0.0534 2-0.106 4.01-0.158 6.01-0.128 4.85-0.263 9.7-0.404 14.6-3-1-3-1-4.56-3.94-0.474-1.01-0.949-2.02-1.44-3.06-0.66-0.66-1.32-1.32-2-2v-4h3v-13c-2.97-0.33-5.94-0.66-9-1 0.33-0.66 0.66-1.32 1-2h4c-3.63-1.32-7.26-2.64-11-4-0.33-2.64-0.66-5.28-1-8-1.65-0.66-3.3-1.32-5-2-2.07 9.29-2.58 18.5-3 28h-1c-0.049-1.21-0.098-2.42-0.148-3.66-0.0752-1.65-0.151-3.31-0.227-4.96-0.0309-0.789-0.0619-1.58-0.0938-2.39-0.229-4.8-0.753-9.43-1.55-14.2-0.954-6.36-1.15-12.6-1.18-19-0.00646-0.993-0.0129-1.99-0.0196-3.01-0.0211-4.13-0.0336-8.26-0.00729-12.4 0.0148-3.05-0.00766-6.11-0.0356-9.16 0.0231-1.39 0.0231-1.39 0.0466-2.81-0.0871-5.81-1.16-8.89-5.25-13.1-2.07-1.85-4.16-3.51-6.47-5.06-0.869-0.584-1.74-1.17-2.63-1.77-2.41-1.53-4.86-2.94-7.37-4.3-3.64-2.19-7.08-4.69-10.5-7.15-2.51-1.77-4.59-3.11-7.53-4.08-1.71-1.62-3.37-3.3-5-5-3.06-3.14-6.22-6.1-9.5-9-10-8.99-19.2-18.4-27.5-29-1.6-1.98-3.2-3.96-4.81-5.94-0.708-0.875-1.42-1.75-2.14-2.65-1.92-2.27-3.83-4.41-6.04-6.41h-2v5h2c1.26 1.54 1.26 1.54 2.69 3.62 2.53 3.51 5.17 6.1 8.52 8.8 2.67 2.34 4.87 5.02 7.12 7.74 1.65 1.92 1.65 1.92 3.88 3.45 0.592 0.458 1.18 0.915 1.79 1.39v2h2v2c0.577 0.268 1.15 0.536 1.75 0.812 2.31 1.22 4.27 2.49 6.25 4.19v2c0.99 0.33 1.98 0.66 3 1 1.02 1.66 2.02 3.32 3 5 0.99 0.66 1.98 1.32 3 2v2c0.639 0.268 1.28 0.536 1.94 0.812 2.06 1.19 2.06 1.19 3.06 4.19 0.99 0.33 1.98 0.66 3 1v2c0.784 0.309 1.57 0.619 2.38 0.938 2.62 1.06 2.62 1.06 4.62 2.06v2c0.99 0.33 1.98 0.66 3 1l3 3c1.4 0.935 2.81 1.87 4.22 2.79 6.04 4.11 11.6 8.88 17.3 13.5 0.529 0.433 1.06 0.865 1.6 1.31 3.78 3.14 3.78 3.14 4.9 5.38 0.0931 2.65 0.126 5.28 0.114 7.94 1.46e-4 0.82 2.92e-4 1.64 4.43e-4 2.48-6.98e-4 2.72-0.00849 5.43-0.0163 8.15-0.00186 1.88-0.00329 3.76-0.00429 5.64-0.00382 4.95-0.0137 9.91-0.0247 14.9-0.0102 5.05-0.0148 10.1-0.0198 15.2-0.0107 9.92-0.0278 19.8-0.0488 29.8h-8c3-2 3-2 5-2v-83h-2v-2h-2v-2h-2v-2c-0.763-0.289-1.53-0.578-2.31-0.875-2.69-1.12-2.69-1.12-5.69-3.12v-2h-3v-2c-1.98-0.66-3.96-1.32-6-2v-2c-1.32-0.33-2.64-0.66-4-1v-2c-1.65-0.66-3.3-1.32-5-2v-2h-2v-2c-1.98-0.66-3.96-1.32-6-2v-2h-2v-2h-2v-2h-2c-2.62-2.38-2.62-2.38-5-5v-2h-2v-2h-2v-2h-2v-2h-2v-2h-2v-2h-2v-2h-2v-2c-0.99-0.33-1.98-0.66-3-1v-2h-2v-2h-2v-2h-2v-2h-2v-2h-2v-2h-2v-2h-2v-2h-2c-1.62-1.38-1.62-1.38-3-3v-2h-2v-2h-2v-2h-2v-4h-2v-2h-2c-1.69-1.98-3.35-3.98-5-6-0.66-0.33-1.32-0.66-2-1v-2h-2v-3c-1.98 0.33-3.96 0.66-6 1 0.33-0.66 0.66-1.32 1-2h-2-3v-2h-3v-2c-0.578-0.144-1.15-0.289-1.75-0.438-2.08-0.521-4.17-1.04-6.25-1.56v-2c-2.65-1.08-5.28-2.09-8-3v-2h-2v-2h-2v-2h-2v-2h-2v-2h-3v-4h-2v-4h-2v-2h-2v-3h-2v-2h-2c-0.66-1.98-1.32-3.96-2-6h-2c-2.43-3.37-3-4.73-3-9h-2v-4h-2c-2.47-5.74-2.26-11.2-2.2-17.3 0.00283-1.08 0.00566-2.16 0.00858-3.27 0.0112-3.43 0.0363-6.87 0.0617-10.3 0.01-2.33 0.0192-4.67 0.0273-7 0.022-5.71 0.0554-11.4 0.0977-17.1h2v-6h2c-0.0825-0.804-0.165-1.61-0.25-2.44 0.235-3.34 0.631-4.63 2.06-7.5 2.61-5.41 3.52-11 4.57-16.9 0.613-3.16 0.613-3.16 1.61-5.16h9v2c0.845 0.203 0.845 0.203 1.71 0.41 2.35 0.606 4.66 1.29 6.98 2.03 0.788 0.246 1.58 0.492 2.39 0.746 1.93 0.816 1.93 0.816 2.93 2.82h5c0.33 0.99 0.66 1.98 1 3 2.31 0.754 4.65 1.41 7 2 1.68 0.642 3.35 1.3 5 2v2c0.99-0.33 1.98-0.66 3-1 3.19 1.44 3.19 1.44 6 3v2c0.843 0.184 0.843 0.184 1.7 0.371 2.49 0.681 4.7 1.62 7.05 2.69 0.799 0.362 1.6 0.724 2.42 1.1 0.603 0.277 1.21 0.554 1.83 0.84v2c0.908 0.289 1.82 0.578 2.75 0.875 2.57 0.89 4.86 1.84 7.25 3.12v2h2v2c0.99 0.33 1.98 0.66 3 1 0.66 0.33 1.32 0.66 2 1v2h2v2h2c0.0412 0.66 0.0825 1.32 0.125 2 0.86 2.95 1.55 4.01 3.44 6.31 6.73 8.57 11.6 19 13.4 29.7 0.66 0.99 1.32 1.98 2 3h2c0.0376 1.12 0.0376 1.12 0.0759 2.27 0.118 3.47 0.24 6.94 0.362 10.4 0.0393 1.18 0.0786 2.36 0.119 3.57 0.249 7 0.644 14 1.23 20.9 0.704 9.31 0.704 9.31-0.789 13.8v4c-0.312 2.34-0.642 4.67-1 7-0.66-0.66-1.32-1.32-2-2 0.33 0.598 0.66 1.2 1 1.81 1 2.19 1 2.19 1 5.19h2c0.681 1.45 0.681 1.45 1.38 2.94 1.28 3.13 1.28 3.13 3.62 4.06v2h2v2c0.99 0.33 1.98 0.66 3 1 0.33 0.66 0.66 1.32 1 2 0.99 0.66 1.98 1.32 3 2 1.67 1.67 3.33 3.33 5 5 1.1 0.905 2.2 1.8 3.31 2.69 0.887 0.763 1.77 1.53 2.69 2.31v2h2v2h2v2h4v2h2v2c0.722 0.268 1.44 0.536 2.19 0.812 2.81 1.19 2.81 1.19 5.31 2.81 2.77 1.52 4.39 1.64 7.5 1.38v-7h-2v-6h2v-116h-2v-2c-1.32-0.33-2.64-0.66-4-1v-2h-2v-2h-2v-2c-0.598-0.268-1.2-0.536-1.81-0.812-2.19-1.19-3.6-2.28-5.19-4.19v-2h-2v-2h-2v-2h-2v-4h-2v-4h-2v-4h-2c-5.96-9.39-5.71-18.9-5.9-29.6-0.128-3.18-0.564-6.23-1.1-9.37h-2v-3h-2v-3h-2v-2h-2v-13h2v-4h2v-2h2v-4h2v-3h2c0.66-3.3 1.32-6.6 2-10h-2c-0.144-1.07-0.289-2.14-0.438-3.25-0.43-3.53-0.43-3.53-1.25-5.94-0.426-2.47 0.416-3.72 1.69-5.81h2c0.0825-0.536 0.165-1.07 0.25-1.62 1.03-3.26 2.7-5.66 4.75-8.38 0.99-0.33 1.98-0.66 3-1 0.33-0.66 0.66-1.32 1-2h2v-2h2v-2h2v-2h2c0.33-1.32 0.66-2.64 1-4h2c0.371-1.27 0.371-1.27 0.75-2.56 1.39-3.82 3.16-6.96 5.25-10.4h2v-4h2v-2h2v-2h2c0.34-0.835 0.34-0.835 0.688-1.69 2.43-4.28 5.75-7.45 10.3-9.31v-2h2v-2c3.66-0.749 6.42-1.24 10 0zm51 81v5h1v-5h-1zm1 5 1 3zm-131 134v17h1v-17h-1zm0 19 1 3zm0 8 1 3zm1 8 1 2z" fill="#0C1010"/>
<path transform="translate(918,218)" d="m0 0v2h3l1 2c0.99 0.33 1.98 0.66 3 1 2.19 1.94 2.19 1.94 4 4v2h2c0.495 1.49 0.495 1.49 1 3 0.99 0.33 1.98 0.66 3 1v5h2v2c1.49 0.495 1.49 0.495 3 1 4 4.46 4 4.46 4 7h2v4h2v2h2v4h2c4 5.29 4 5.29 4 9h2c0.844 1.41 1.67 2.83 2.5 4.25 0.696 1.18 0.696 1.18 1.41 2.39 1.09 2.36 1.09 2.36 1.09 6.36h2v6h2v4h2c0.339 1.42 0.671 2.83 1 4.25 0.186 0.789 0.371 1.58 0.562 2.39 0.438 2.36 0.438 2.36 0.438 6.36h2c2 6.66 2.35 12.8 2.31 19.8-0.0052 1.6-0.0052 1.6-0.0105 3.23-0.102 7.36-0.744 14.1-3.3 21-0.286 0.82-0.572 1.64-0.867 2.48-0.671 1.85-1.39 3.69-2.13 5.52h-2v4h-2c-1.51 4.2-2.91 8.1-3.38 12.6-0.84 4.62-2.98 7.62-5.62 11.4-1.04 1.56-2.09 3.12-3.12 4.69-0.758 1.12-0.758 1.12-1.53 2.26-1.46 2.17-1.46 2.17-2.97 5.05-1.38 2-1.38 2-3.56 2.81-0.598 0.0619-1.2 0.124-1.81 0.188v2c-1.39 0.217-1.39 0.217-2.81 0.438-3.28 1.21-3.28 1.21-4.25 3.7-0.739 2.27-1.39 4.54-1.93 6.86-1.98 0.33-3.96 0.66-6 1-0.0825 0.908-0.165 1.82-0.25 2.75-0.856 3.71-1.99 4.75-4.75 7.25-0.33 0.99-0.66 1.98-1 3-0.928-0.0412-1.86-0.0825-2.81-0.125-3.35-0.146-3.35-0.146-6.19 2.12-0.99-0.66-1.98-1.32-3-2-0.688-3.63-0.688-3.63-1-7-0.99-0.33-1.98-0.66-3-1-1.19-2.06-1.19-2.06-2-4h-2v81h-1c-0.943 10.4-1.08 20.6-0.875 31 0.075 6.6-0.539 12.6-2.12 19-5.07-1.04-7.17-3.76-10-8h5v-7h-2v-6h2v-116h-2v-2c-1.32-0.33-2.64-0.66-4-1v-2h-2v-2h-2v-2c-0.598-0.268-1.2-0.536-1.81-0.812-2.19-1.19-3.6-2.28-5.19-4.19v-2h-2v-2h-2v-2h-2v-4h-2v-4h-2v-4h-2c-5.96-9.39-5.71-18.9-5.9-29.6-0.128-3.18-0.564-6.23-1.1-9.37h-2v-3h-2v-3h-2v-2h-2v-13h2v-4h2v-2h2v-4h2v-3h2c0.66-3.3 1.32-6.6 2-10h-2c-0.217-1.61-0.217-1.61-0.438-3.25-0.43-3.53-0.43-3.53-1.25-5.94-0.426-2.47 0.416-3.72 1.69-5.81h2c0.0825-0.536 0.165-1.07 0.25-1.62 1.03-3.26 2.7-5.66 4.75-8.38 1.49-0.495 1.49-0.495 3-1 0.33-0.66 0.66-1.32 1-2h2v-2h2v-2h2v-2h2c0.33-1.32 0.66-2.64 1-4h2c0.247-0.846 0.495-1.69 0.75-2.56 1.39-3.82 3.16-6.96 5.25-10.4h2v-4h2v-2h2v-2h2c0.227-0.557 0.454-1.11 0.688-1.69 2.43-4.28 5.75-7.45 10.3-9.31v-2h2v-2c3.66-0.749 6.42-1.24 10 0zm51 81v5h1v-5h-1zm1 5 1 3z" fill="#0C1010"/>
<path transform="translate(1057,455)" d="m0 0h9c3.01 6.82 3.24 13.7 3.43 21.1 0.215 4.69 1.32 7.84 3.57 11.9 0.188 2.88 0.188 2.88 0 5h2c1.58 5.45 1.45 11.1 1.69 16.8 0.0599 1.15 0.12 2.31 0.182 3.5 0.265 6.36 0.0831 11.7-1.87 17.8h-2c-0.124 0.619-0.247 1.24-0.375 1.88-0.625 2.12-0.625 2.12-2.62 4.12-0.46 2.2-0.46 2.2-0.625 4.62-0.0748 0.817-0.15 1.63-0.227 2.48-0.0735 0.94-0.0735 0.94-0.148 1.9h2c0.763 8.97-3.2 15.5-8.73 22.3-1.47 1.81-1.47 1.81-2.27 4.73h-2v2h-2v2c-1.32 0.33-2.64 0.66-4 1v2h-2c-0.0954 0.607-0.191 1.21-0.289 1.84-0.872 2.65-1.77 3.24-4.09 4.72-1.96 1.27-3.6 2.41-5.23 4.09-1.4 1.35-1.4 1.35-3.4 1.35v2c-3.46 3-3.46 3-6 3v2h-3v2h-4v2c-8.22 2.85-8.22 2.85-11.9 3.56-2.41 0.358-2.41 0.358-5.12 2.44v2c-1.98 0.33-3.96 0.66-6 1v2c-2.67 0.667-5.33 1.33-8 2v2h-3v2h-4v2c-1.48 0.335-2.96 0.668-4.44 1-0.824 0.186-1.65 0.371-2.5 0.562-2.07 0.438-2.07 0.438-3.07 0.438-0.33 0.66-0.66 1.32-1 2-2.31-0.66-4.62-1.32-7-2v-2h-2v-4h-2v-3h-2v-4h-2v-8h-2c-0.155-1.48-0.155-1.48-0.312-3-0.48-3.37-1.55-6.27-2.78-9.45-4.63-13.1-5.92-22.6-0.57-35.7 1.04-2.92 1.34-5.79 1.66-8.86h2c-0.0412-0.846-0.0825-1.69-0.125-2.56 0.14-3.86 0.953-6.77 2.12-10.4h2v-6h2v-6h2c0.122-0.715 0.245-1.43 0.371-2.17 0.64-2.88 1.56-5.42 2.69-8.14 0.362-0.883 0.724-1.77 1.1-2.68 0.277-0.664 0.554-1.33 0.84-2.01h2c0.247-0.804 0.495-1.61 0.75-2.44 1.25-2.56 1.25-2.56 3.38-3.38 0.619-0.0619 1.24-0.124 1.88-0.188v-2l4-1v-2h2v-2h2v-2h3v-2h2v-2h2v-2h2v-2h2v-2c1.68-1.29 1.68-1.29 3.88-2.62 0.719-0.446 1.44-0.892 2.18-1.35 1.95-1.02 1.95-1.02 3.95-1.02v-2h5v-2h4v-2c0.629-0.182 1.26-0.364 1.91-0.551 4.83-1.42 9.54-2.95 14.2-4.77 2.9-1.07 5.88-1.85 8.86-2.68 3.01-0.974 6.01-1.98 9-3v-2h6v-2zm-56 154 4 1z" fill="#0C1010"/>
<path transform="translate(928,412)" d="m0 0h6c-0.0715 0.76-0.143 1.52-0.217 2.3-0.986 12.2-0.898 24.4-0.859 36.6 0.0129 4.04 0.0195 8.09 0.0241 12.1 0.0119 9.33 0.0338 18.7 0.0562 28 0.0253 10.6 0.0464 21.1 0.0573 31.7 7.71e-4 0.68 0.00154 1.36 0.00234 2.06 0.0203 19.4-0.216 38.7-0.96 58.1-0.244 7.29-0.255 14.6-0.235 21.9 0.00553 2.44-1.11e-4 4.88-0.00635 7.32-0.00234 7.1 0.0977 14.1 0.672 21.2 0.756 10.1 0.321 20.1 0.0273 30.2-0.0534 2-0.106 4.01-0.158 6.01-0.128 4.85-0.263 9.7-0.404 14.6-3-1-3-1-4.56-3.94-0.474-1.01-0.949-2.02-1.44-3.06-0.66-0.66-1.32-1.32-2-2v-4h3v-13c-2.97-0.33-5.94-0.66-9-1 0.33-0.66 0.66-1.32 1-2h4c-3.63-1.32-7.26-2.64-11-4-0.33-2.64-0.66-5.28-1-8-1.65-0.66-3.3-1.32-5-2-2.07 9.29-2.58 18.5-3 28h-1c-0.199-4.31-0.382-8.62-0.562-12.9-0.0561-1.21-0.112-2.42-0.17-3.67-0.0483-1.19-0.0967-2.38-0.146-3.6-0.0471-1.08-0.0943-2.17-0.143-3.28 0.0167-2.7 0.181-5.15 0.508-7.81 0.588-4.86 0.641-9.65 0.611-14.5-0.00141-0.897-0.00283-1.79-0.00429-2.72-0.00554-2.83-0.0181-5.66-0.0309-8.5-0.00502-1.93-0.00958-3.87-0.0137-5.8-0.011-4.71-0.0282-9.42-0.0488-14.1 1.65-0.33 3.3-0.66 5-1v3c2.68-5.36 3.32-9.01 3-15h2c-0.0116-0.638-0.0232-1.28-0.0352-1.93-0.00902-0.826-0.018-1.65-0.0273-2.5-0.0116-0.824-0.0232-1.65-0.0352-2.5 0.0977-2.07 0.0977-2.07 1.1-3.07 0.737-7.74-1.21-12.3-5-19-0.675-1.33-1.34-2.66-2-4-0.99 0.99-0.99 0.99-2 2-0.33-1.32-0.66-2.64-1-4-1.32 0.33-2.64 0.66-4 1-0.025-5.16-0.043-10.3-0.0549-15.5-0.00497-1.75-0.0118-3.49-0.0205-5.24-0.0511-10.5 0.118-20.8 1.08-31.3h1c0.33-26.4 0.66-52.8 1-80 2 0 2 0 3.47 1.36 5.25 6.05 5.25 6.05 5.53 10.6 0.99 0.33 1.98 0.66 3 1 0.66-0.66 1.32-1.32 2-2 3.12 0.375 3.12 0.375 6 1 0.0825-0.784 0.165-1.57 0.25-2.38 0.247-0.866 0.495-1.73 0.75-2.62 0.66-0.309 1.32-0.619 2-0.938 0.66-0.351 1.32-0.701 2-1.06 0.816-3.06 0.816-3.06 1-6z" fill="#000100"/>
<path transform="translate(334,1019)" d="m0 0c0.0229 31.3 0.0405 62.6 0.0511 94 0.00125 3.7 0.00254 7.41 0.00387 11.1 2.62e-4 0.737 5.25e-4 1.47 7.95e-4 2.23 0.00434 11.9 0.0122 23.8 0.0214 35.7 0.00938 12.2 0.0149 24.5 0.0169 36.7 0.00137 7.54 0.00567 15.1 0.0138 22.6 0.00595 5.8 0.00653 11.6 0.00519 17.4 2.73e-4 2.37 0.00224 4.73 0.0061 7.1 0.0176 11.4-0.0393 22.7-0.947 34-0.186 3.33 0.0698 6.36 0.57 9.64 0.61 5.76 0.326 11.6 0.258 17.4 1.65 0.66 3.3 1.32 5 2-1.32 1.65-2.64 3.3-4 5-1.65-0.33-3.3-0.66-5-1v-7h-2v-286c2-1 2-1 6-1z" fill="#4B4C4D"/>
<path transform="translate(827 862)" d="m0 0c1.08 0.0169 2.17 0.0338 3.28 0.0512 1.2 0.0239 2.39 0.0477 3.62 0.0723 1.95 0.0321 3.91 0.0642 5.86 0.0961 2.12 0.0356 4.24 0.0738 6.36 0.113 6.81 0.125 13.6 0.235 20.4 0.346 1.63 0.0264 3.25 0.053 4.88 0.0797 14.1 0.231 28.1 0.396 42.2 0.538 2.01 0.0207 4.01 0.0414 6.02 0.0621 7.92 0.0814 15.8 0.163 23.8 0.234 4.68 0.0421 9.35 0.0886 14 0.138 1.74 0.0176 3.47 0.0333 5.21 0.0473 2.38 0.0192 4.75 0.0444 7.13 0.071 1.05 0.00628 1.05 0.00628 2.13 0.0127 4.78 0.0627 4.78 0.0627 5.89 1.18 2.3 0.147 4.6 0.228 6.89 0.281 0.703 0.0184 1.41 0.0368 2.13 0.0558 2.26 0.0589 4.53 0.111 6.79 0.163 5.07 0.118 10.1 0.249 15.2 0.429 1.88 0.0669 3.76 0.126 5.63 0.184 1.07 0.0554 2.14 0.111 3.24 0.168 0.924 0.0419 1.85 0.0838 2.8 0.127 2.99 0.766 3.6 2.11 5.31 4.59-25.4 0.0234-50.9 0.041-76.3 0.0518-11.8 0.00516-23.6 0.0122-35.4 0.0236-10.3 0.00997-20.6 0.0164-30.9 0.0186-5.45 0.0013-10.9 0.00437-16.4 0.0116-5.13 0.00679-10.3 0.00888-15.4 0.00738-1.88 2.75e-4 -3.76 0.00226-5.65 0.0061-2.57 0.00499-5.14 0.00377-7.72 0.00105-1.11 0.00437-1.11 0.00437-2.25 0.00883-11.6-0.0332-11.6-0.0332-15.5-3-1.56-2.12-1.56-2.12-1.56-5.12 3.06-1.02 5.01-1.1 8.2-1.04z" fill="#4A4B4C"/>
<path transform="translate(908,218)" d="m0 0 4 1c-0.473 0.389-0.946 0.779-1.43 1.18-10.5 8.41-10.5 8.41-16.6 19.8-1.65 1.69-3.31 3.35-5 5-0.495 1.49-0.495 1.49-1 3h-2c-0.116 0.572-0.232 1.14-0.352 1.73-0.705 2.46-1.69 4.33-3.02 6.52-0.42 0.706-0.84 1.41-1.27 2.14-0.446 0.531-0.892 1.06-1.35 1.61h-3c-0.144 0.784-0.289 1.57-0.438 2.38-0.562 2.62-0.562 2.62-1.56 4.62-0.77 0.108-1.54 0.217-2.33 0.328-3.58 0.9-4.36 2.38-6.36 5.42-0.581 0.861-1.16 1.72-1.76 2.61-3.15 5.19-3.15 5.19-2.84 11.1 0.403 1.22 0.807 2.45 1.22 3.71 2.16 6.62 2.16 6.62 1.06 8.81h-2c-0.33 2.31-0.66 4.62-1 7h-2c-0.268 0.557-0.536 1.11-0.812 1.69-1.29 2.51-2.73 4.9-4.19 7.31-1.74 3.48-1.59 7.2-1 11 1.4 2.49 2.92 3.97 5 6 3.96 3.96 5.51 9.52 6 15-0.317 1.34-0.651 2.67-1 4-2.13 12.3 5.38 25.2 12 35v2h2c0.371 1.21 0.371 1.21 0.75 2.44 0.413 0.846 0.825 1.69 1.25 2.56 0.598 0.144 1.2 0.289 1.81 0.438 3.01 0.775 4.05 2.69 5.89 5.08 1.78 2.04 3.99 3.11 6.3 4.48 1.31 2.19 1.31 2.19 2 4h2c-0.107 15.2-0.22 30.4-0.339 45.6-0.0553 7.06-0.109 14.1-0.158 21.2-0.0474 6.81-0.1 13.6-0.156 20.4-0.0204 2.6-0.0391 5.2-0.0561 7.8-0.024 3.63-0.0541 7.27-0.0856 10.9-0.00576 1.08-0.0115 2.17-0.0174 3.28-0.0147 1.48-0.0147 1.48-0.0297 3-0.00645 0.86-0.0129 1.72-0.0196 2.61-0.139 2.2-0.139 2.2-1.14 5.2 0.0941 2.29 0.0941 2.29 0.438 4.69 0.153 1.21 0.153 1.21 0.309 2.45 0.0838 0.615 0.168 1.23 0.254 1.86-1.32 0.33-2.64 0.66-4 1 0.33-2.64 0.66-5.28 1-8h-2v-6h2v-116h-2v-2c-1.32-0.33-2.64-0.66-4-1v-2h-2v-2h-2v-2c-0.598-0.268-1.2-0.536-1.81-0.812-2.19-1.19-3.6-2.28-5.19-4.19v-2h-2v-2h-2v-2h-2v-4h-2v-4h-2v-4h-2c-5.96-9.39-5.71-18.9-5.9-29.6-0.128-3.18-0.564-6.23-1.1-9.37h-2v-3h-2v-3h-2v-2h-2v-13h2v-4h2v-2h2v-4h2v-3h2c0.66-3.3 1.32-6.6 2-10h-2c-0.217-1.61-0.217-1.61-0.438-3.25-0.43-3.53-0.43-3.53-1.25-5.94-0.426-2.47 0.416-3.72 1.69-5.81h2c0.0825-0.536 0.165-1.07 0.25-1.62 1.03-3.26 2.7-5.66 4.75-8.38 1.49-0.495 1.49-0.495 3-1 0.33-0.66 0.66-1.32 1-2h2v-2h2v-2h2v-2h2c0.33-1.32 0.66-2.64 1-4h2c0.247-0.846 0.495-1.69 0.75-2.56 1.39-3.82 3.16-6.96 5.25-10.4h2v-4h2v-2h2v-2h2c0.227-0.557 0.454-1.11 0.688-1.69 2.43-4.28 5.75-7.45 10.3-9.31v-2h2v-2z" fill="#000102"/>
<path transform="translate(1026,870)" d="m0 0c12.2 1.12 22.6 8.03 31.2 16.3 1.87 1.85 1.87 1.85 4.77 3.66v2h2c5.76 5.31 10.2 12.2 14 19v2h2c5.3 10.1 9.76 19.5 11 31h2v3c2.97 0.66 5.94 1.32 9 2 0 3 0 3-1.39 4.64-0.614 0.531-1.23 1.06-1.86 1.61-0.603 0.541-1.21 1.08-1.83 1.64-1.92 1.11-1.92 1.11-4.16 0.781-0.583-0.222-1.17-0.443-1.77-0.672v-2h-2v-2c-1.32-0.33-2.64-0.66-4-1v-4h-2v-4h-2c-3.43-8.43-3.43-8.43-3-13h-2v-6h-2v-5h-2c-1.26-2.91-2-4.8-2-8h-2v-4h-2v-2h-2c-3-4.38-3-4.38-3-7h-2v-2h-2v-2h-2v-2h-2v-2h-2v-2h-2v-2c-0.557-0.268-1.11-0.536-1.69-0.812-2.52-1.3-4.95-2.61-7.31-4.19v-2h-4v-2c-0.598-0.144-1.2-0.289-1.81-0.438-1.75-0.45-3.47-0.991-5.19-1.56v-3c-0.99-0.33-1.98-0.66-3-1v-2z" fill="#4B4C4D"/>
<path transform="translate(802,503)" d="m0 0c3.88 1.28 5.77 2.49 8.12 5.81 13.3 18 29.1 35.8 46.9 49.5 0.99 0.835 0.99 0.835 2 1.69v2c0.673 0.0554 1.35 0.111 2.04 0.168 4.15 1.17 6.96 3.53 10.3 6.14 3.67 2.82 7.27 5.57 11.3 7.83 2.87 1.61 5.41 3.28 8 5.3 0.726 0.556 1.45 1.11 2.2 1.68 4.04 3.59 6.32 6.05 6.64 11.6 0.0344 1.88 0.0479 3.76 0.0442 5.64 0.0142 1 0.0283 2 0.0429 3.03 0.0419 3.19 0.0571 6.38 0.0704 9.57 0.0291 3.19 0.0638 6.37 0.102 9.56 0.0223 1.98 0.0383 3.96 0.0468 5.94 0.0362 4.66 0.371 8.97 1.16 13.6 0.0806 2.83 0.117 5.63 0.0977 8.46-0.00141 0.791-0.00283 1.58-0.00429 2.4-0.00556 2.51-0.0181 5.01-0.0309 7.52-0.00502 1.71-0.00958 3.41-0.0137 5.12-0.011 4.17-0.0282 8.34-0.0488 12.5-1.32 0.33-2.64 0.66-4 1-1.54-3.07-1.14-6.3-1.13-9.68-0.00187-0.792-0.00374-1.58-0.00566-2.4-0.00401-1.72-0.00608-3.45-0.00646-5.17-0.00341-3.66-0.0248-7.32-0.0452-11-0.0381-6.82-0.0693-13.6-0.0672-20.5 7.87e-4 -4.74-0.0226-9.48-0.0619-14.2-0.0105-1.81-0.012-3.61-0.00435-5.42 0.00962-2.53-0.0115-5.06-0.0397-7.59 0.0102-0.746 0.0204-1.49 0.0309-2.26-0.0784-3.93-0.511-5.61-3.07-8.67-0.86-0.706-1.72-1.41-2.61-2.14-0.779-0.753-1.56-1.51-2.36-2.28-4.64-4.3-9.03-7.86-14.7-10.6-2.03-1.14-3.32-2.39-4.91-4.07-1.05-0.864-2.12-1.72-3.19-2.56-0.928-0.804-1.86-1.61-2.81-2.44v-2c-0.722-0.247-1.44-0.495-2.19-0.75-5.32-2.37-8.68-6.13-12.3-10.5-1.29-1.52-2.69-2.95-4.1-4.36-2.38-2.38-2.38-2.38-4.25-4.88-1.9-2.24-3.48-3.55-5.88-5.19-1.07-0.763-2.14-1.53-3.25-2.31v-2h-2c-1.71-1.62-3.37-3.3-5-5-1.1-1.06-2.21-2.13-3.31-3.19-2.69-2.81-2.69-2.81-2.69-4.81-0.557-0.227-1.11-0.454-1.69-0.688-4.69-2.66-8.16-6.99-11.3-11.3v-2h-2c-0.382-1.66-0.714-3.32-1-5 0.33-0.33 0.66-0.66 1-1z" fill="#4B4C4D"/>
<path transform="translate(1026,469)" d="m0 0c-0.598 0.268-1.2 0.536-1.81 0.812-2.2 1.05-2.2 1.05-3.62 2.69-1.56 1.5-1.56 1.5-3.87 2.4-3.58 1.47-6.47 3.62-9.61 5.86-2.09 1.24-2.09 1.24-5.09 1.24v2c-3.39 3.68-7.06 6.93-11 10h-2v2c-4.38 3-4.38 3-7 3v2c-0.742 0.701-1.49 1.4-2.25 2.12-4.29 4.49-6.48 9.29-7.88 15.3-0.433 1.76-0.433 1.76-0.875 3.56l-2 1c-0.468 2.36-0.468 2.36-0.625 5.06-0.0748 0.919-0.15 1.84-0.227 2.79-0.049 0.71-0.098 1.42-0.148 2.15h-3c0.0954 0.641 0.191 1.28 0.289 1.94 0.725 5.66 0.691 9.7-1.29 15.1-0.66-0.33-1.32-0.66-2-1-0.103 0.763-0.206 1.53-0.312 2.31-0.688 2.69-0.688 2.69-2.12 3.99-3.54 3.82-3.97 9.7-4.57 14.7 0.298 7.36 1.46 13.5 5 20h1v5c1.32 0.33 2.64 0.66 4 1 0.0606 0.626 0.121 1.25 0.184 1.9 0.0838 0.817 0.168 1.63 0.254 2.48 0.122 1.22 0.122 1.22 0.246 2.46 0.207 2.21 0.207 2.21 1.32 4.16-0.0374 0.749-0.0748 1.5-0.113 2.27 0.143 3.44 1.25 5.43 2.93 8.42 0.522 0.953 1.04 1.91 1.58 2.89 1.53 2.66 1.53 2.66 4.61 4.43-3.11 0-5.11-0.174-8-1v-2h-2v-4h-2v-3h-2v-4h-2v-8h-2c-0.155-1.48-0.155-1.48-0.312-3-0.48-3.37-1.55-6.27-2.78-9.45-4.63-13.1-5.92-22.6-0.57-35.7 1.04-2.92 1.34-5.79 1.66-8.86h2c-0.0412-0.846-0.0825-1.69-0.125-2.56 0.14-3.86 0.953-6.77 2.12-10.4h2v-6h2v-6h2c0.122-0.715 0.245-1.43 0.371-2.17 0.64-2.88 1.56-5.42 2.69-8.14 0.362-0.883 0.724-1.77 1.1-2.68 0.277-0.664 0.554-1.33 0.84-2.01h2c0.247-0.804 0.495-1.61 0.75-2.44 1.25-2.56 1.25-2.56 3.38-3.38 0.619-0.0619 1.24-0.124 1.88-0.188v-2c1.32-0.33 2.64-0.66 4-1v-2h2v-2h2v-2h3v-2h2v-2h2v-2h2v-2h2v-2c1.68-1.29 1.68-1.29 3.88-2.62 0.719-0.446 1.44-0.892 2.18-1.35 1.95-1.02 1.95-1.02 3.95-1.02v-2h5v-2h4v-2c3.43-1.62 5.38-2.34 9-1z" fill="#000102"/>
<path transform="translate(873,1006)" d="m0 0c0.773 0.217 0.773 0.217 1.56 0.438 5.91 1.36 11.2 1.59 17.2 1.06 6.98-0.606 6.98-0.606 9.19 0.5 1.45 0.0796 2.9 0.0969 4.35 0.0818 0.903-0.00653 1.81-0.0131 2.74-0.0198 0.983-0.0114 1.97-0.0229 2.98-0.0347 2.1-0.0127 4.2-0.025 6.3-0.0371 3.29-0.0245 6.59-0.0522 9.88-0.0862 10.7-0.103 21.3-0.197 31.9 0.967 1.06 0.116 1.06 0.116 2.14 0.234 5.91 0.744 11.3 2.44 16.7 4.9v1c-13.2 0.0233-26.4 0.041-39.6 0.0518-6.13 0.00518-12.3 0.0122-18.4 0.0236-5.93 0.011-11.9 0.0169-17.8 0.0194-2.25 0.00183-4.49 0.00539-6.74 0.0109-14.2 0.0331-28.3-0.286-42.5-1.11v-1c2.64-0.33 5.28-0.66 8-1v-3c3.16-1.87 5.36-2.19 9-2h3v-1z" fill="#000101"/>
<path transform="translate(787,494)" d="m0 0c2.48 0.99 2.48 0.99 5 2v2c0.598 0.289 1.2 0.577 1.81 0.875 2.19 1.12 2.19 1.12 5.19 3.12v2h2c0.33 1.65 0.66 3.3 1 5h2c1.26 1.54 1.26 1.54 2.69 3.62 2.53 3.51 5.17 6.1 8.52 8.8 2.67 2.34 4.87 5.02 7.12 7.74 1.65 1.92 1.65 1.92 3.88 3.45 0.592 0.458 1.18 0.915 1.79 1.39v2h2v2c0.577 0.268 1.15 0.536 1.75 0.812 2.31 1.22 4.27 2.49 6.25 4.19v2c0.99 0.33 1.98 0.66 3 1 1.02 1.66 2.02 3.32 3 5 0.99 0.66 1.98 1.32 3 2v2c0.639 0.268 1.28 0.536 1.94 0.812 2.06 1.19 2.06 1.19 3.06 4.19 1.49 0.495 1.49 0.495 3 1v2c1.18 0.464 1.18 0.464 2.38 0.938 2.62 1.06 2.62 1.06 4.62 2.06v2c1.49 0.495 1.49 0.495 3 1l3 3c1.4 0.935 2.81 1.87 4.22 2.79 6.04 4.11 11.6 8.88 17.3 13.5 0.529 0.433 1.06 0.865 1.6 1.31 3.78 3.14 3.78 3.14 4.9 5.38 0.0931 2.65 0.126 5.28 0.114 7.94 1.46e-4 0.82 2.92e-4 1.64 4.43e-4 2.48-6.98e-4 2.72-0.00849 5.43-0.0163 8.15-0.00186 1.88-0.00329 3.76-0.00429 5.64-0.00382 4.95-0.0137 9.91-0.0247 14.9-0.0102 5.05-0.0148 10.1-0.0198 15.2-0.0107 9.92-0.0278 19.8-0.0488 29.8h-8c3-2 3-2 5-2v-83h-2v-2h-2v-2h-2v-2c-0.763-0.289-1.53-0.577-2.31-0.875-2.69-1.12-2.69-1.12-5.69-3.12v-2h-3v-2c-1.98-0.66-3.96-1.32-6-2v-2c-1.98-0.495-1.98-0.495-4-1v-2c-1.65-0.66-3.3-1.32-5-2v-2h-2v-2c-1.98-0.66-3.96-1.32-6-2v-2h-2v-2h-2v-2h-2c-2.62-2.38-2.62-2.38-5-5v-2h-2v-2h-2v-2h-2v-2h-2v-2h-2v-2h-2v-2h-2v-2c-0.99-0.33-1.98-0.66-3-1v-2h-2v-2h-2v-2h-2v-2h-2v-2h-2v-2h-2v-2h-2v-2h-2c-1.62-1.38-1.62-1.38-3-3v-2h-2v-2h-2v-2h-2v-4h-2v-2h-2c-1.69-1.98-3.35-3.98-5-6l-2-1v-2h-2v-3z" fill="#000101"/>
<path transform="translate(934,416)" d="m0 0h1v271c-0.66-0.33-1.32-0.66-2-1-0.836-12.3-1.06-24.5-0.319-36.8 0.314-5.58 0.154-10.6-0.681-16.2v-6c-0.33-0.33-0.66-0.66-1-1-0.0887-2.96-0.115-5.89-0.0977-8.85 0.00141-0.886 0.00283-1.77 0.00429-2.69 0.00562-2.84 0.0182-5.69 0.0309-8.53 0.00501-1.92 0.00958-3.85 0.0137-5.77 0.0111-4.72 0.0283-9.45 0.0488-14.2h2c0.138-19.3-0.0515-38.6-0.429-57.9-1.55-80-1.55-80 1.43-112z" fill="#4B4C4D"/>
<path transform="translate(723 718)" d="m0 0c4.63 1.36 8.97 1.21 13.8 1.12 0.927-0.00902 1.85-0.018 2.81-0.0273 2.27-0.0234 4.54-0.0562 6.82-0.0977-1.17 2.48-1.17 2.48-3 5-2.41 0.488-2.41 0.488-5.28 0.312-1.06-0.0427-2.12-0.0854-3.22-0.129-1.14-0.0604-2.27-0.121-3.44-0.183-17.1-0.414-31.7 1.28-44.7 13-2.34 2.01-2.34 2.01-4.34 2.01-0.33 0.99-0.66 1.98-1 3-1.66 1.34-3.33 2.68-5 4-1.46 1.69-2.88 3.42-4.25 5.19-3.05 3.79-6.15 7.47-9.5 11-0.696 0.736-1.39 1.47-2.11 2.23-2.58 1.91-4 1.92-7.14 1.58 0.551-3.86 2.31-5.31 5-8 0.144-0.639 0.289-1.28 0.438-1.94 0.887-3.25 3.09-4.89 5.56-7.06h2v-2h2v-2h2v-2h2v-2h2v-2h2v-2c1.46-1.29 1.46-1.29 3.38-2.62 0.626-0.446 1.25-0.892 1.9-1.35 1.73-1.02 1.73-1.02 3.73-1.02v-2h2v-2h4v-2h5v-2c1.39-0.433 1.39-0.433 2.81-0.875 3.29-1.01 3.29-1.01 6.19-3.12h3v-2c4.77-1.59 9.93-1.8 14.6 0.00391z" fill="#3F4041"/>
<path transform="translate(736,345)" d="m0 0c1.32 0.33 2.64 0.66 4 1-0.33 0.825-0.66 1.65-1 2.5-0.843 2.95-1.09 4.61-1 7.56 0 3.67-0.384 5.71-2 8.94h-2c-0.247 1.26-0.495 2.52-0.75 3.81-0.786 3.62-1.89 6.89-3.29 10.3-2.11 5.73-2.56 10.8-2.52 16.9-0.0062 1-0.0124 2.01-0.0188 3.04-0.00705 2.1-0.00401 4.21 0.00877 6.31 0.0139 3.2-0.0203 6.39-0.0583 9.59-9.51e-4 2.06 9.07e-4 4.12 0.00586 6.18-0.0199 1.41-0.0199 1.41-0.0402 2.85 0.0859 6.2 1.46 10.5 4.5 15.9 1.17 2.1 1.17 2.1 2.17 5.1 0.66 0.33 1.32 0.66 2 1 4 5.41 4 5.41 4 9h2c3 4.38 3 4.38 3 7 1.49 0.495 1.49 0.495 3 1 0.33 1.65 0.66 3.3 1 5h2v3h2v2c0.804 0.268 1.61 0.536 2.44 0.812 0.846 0.392 1.69 0.784 2.56 1.19 0.33 0.99 0.66 1.98 1 3 1.65 0.702 3.32 1.37 5 2 0.33 0.66 0.66 1.32 1 2 0.99 0.33 1.98 0.66 3 1 0.413 0.454 0.825 0.908 1.25 1.38 1.85 1.91 1.85 1.91 5.31 3.06 3.44 1.56 3.44 1.56 4.88 3.75 0.186 0.598 0.371 1.2 0.562 1.81h-3v-2h-3v-2c-0.577-0.144-1.15-0.289-1.75-0.438-2.08-0.521-4.17-1.04-6.25-1.56v-2c-2.65-1.08-5.28-2.09-8-3v-2h-2v-2h-2v-2h-2v-2h-2v-2h-3v-4h-2v-4h-2v-2h-2v-3h-2v-2h-2c-0.99-2.97-0.99-2.97-2-6h-2c-2.43-3.37-3-4.73-3-9h-2v-4h-2c-2.47-5.74-2.26-11.2-2.2-17.3 0.00283-1.08 0.00566-2.16 0.00858-3.27 0.0112-3.43 0.0363-6.87 0.0617-10.3 0.01-2.33 0.0192-4.67 0.0273-7 0.022-5.71 0.0554-11.4 0.0977-17.1h2v-6h2c-0.0825-0.804-0.165-1.61-0.25-2.44 0.235-3.34 0.631-4.63 2.06-7.5 2.61-5.41 3.52-11 4.57-16.9 0.613-3.16 0.613-3.16 1.61-5.16z" fill="#000102"/>
<path transform="translate(897,408)" d="m0 0h2c0.132 12.7 0.262 25.5 0.391 38.2 0.0599 5.92 0.12 11.8 0.182 17.8 0.0595 5.73 0.118 11.5 0.175 17.2 0.0219 2.16 0.0442 4.33 0.067 6.49 0.0639 6.08 0.117 12.2 0.159 18.2 0.0272 3.28 0.0686 6.56 0.109 9.84 0.0189 2.22 0.0372 4.45 0.0549 6.67 0.0159 1.01 0.0319 2.03 0.0483 3.07 0.035 6.41-0.673 12.3-2.19 18.5-5.07-1.04-7.17-3.76-10-8h7c-0.0838-0.782-0.168-1.56-0.254-2.37-0.153-1.52-0.153-1.52-0.309-3.07-0.104-1.01-0.209-2.02-0.316-3.06-0.04-0.826-0.0799-1.65-0.121-2.5 0.495-0.495 0.495-0.495 1-1 0.106-1.49 0.142-2.99 0.151-4.48 0.00834-0.968 0.0167-1.94 0.0253-2.93 0.00418-1.07 0.00837-2.14 0.0127-3.24 0.00829-1.12 0.0166-2.24 0.0251-3.39 0.0174-2.44 0.0326-4.88 0.0458-7.32 0.0209-3.86 0.048-7.71 0.0767-11.6 0.0598-8.19 0.112-16.4 0.163-24.6 0.0591-9.48 0.121-19 0.192-28.4 0.0267-3.81 0.0474-7.62 0.068-11.4 0.0166-2.32 0.0335-4.64 0.0507-6.97 0.00418-1.07 0.00837-2.14 0.0127-3.24 0.00834-0.968 0.0167-1.94 0.0253-2.93 0.00515-0.846 0.0103-1.69 0.0156-2.56 0.136-1.92 0.136-1.92 1.14-2.92z" fill="#4A4B4C"/>
<path transform="translate(1033 874)" d="m0 0c5.55 2.6 11.2 5.39 15.9 9.38v2c1.1 0.371 1.1 0.371 2.23 0.75 3.03 1.37 4.77 2.88 7.08 5.25 0.697 0.701 1.39 1.4 2.11 2.12 1.57 1.88 1.57 1.88 1.57 3.88h2c1.17 1.43 1.17 1.43 2.46 3.44 0.472 0.731 0.944 1.46 1.43 2.21 0.735 1.16 0.735 1.16 1.48 2.35 0.482 0.744 0.964 1.49 1.46 2.25 5.61 8.76 9.25 17.4 12.4 27.3 1.91 5.7 4.31 10.5 7.73 15.4 0.783 1.14 0.783 1.14 1.58 2.31 0.406 0.557 0.812 1.11 1.23 1.69 0.722 0.99 1.44 1.98 2.19 3-1.48 0.495-1.48 0.495-3 1-0.99-0.495-0.99-0.495-2-1v-2h-2v-2c-1.32-0.33-2.64-0.66-4-1v-4h-2v-4h-2c-3.43-8.43-3.43-8.43-3-13h-2v-6h-2v-5h-2c-1.26-2.91-2-4.8-2-8h-2v-4h-2v-2h-2c-3-4.38-3-4.38-3-7h-2v-2h-2v-2h-2v-2h-2v-2h-2v-2h-2v-2c-0.557-0.268-1.11-0.536-1.69-0.812-2.52-1.3-4.95-2.61-7.31-4.19v-2h-4v-2c-0.598-0.144-1.2-0.289-1.81-0.438-1.75-0.45-3.47-0.991-5.19-1.56v-2c2-1 2-1 4.06-0.375z" fill="#000101"/>
<path transform="translate(737,360)" d="m0 0c1.13 3.39 0.851 5.66 0.0391 9.11-0.336 1.48-0.336 1.48-0.68 2.98-0.242 1.02-0.485 2.05-0.734 3.1-4.6 19.7-9.5 50.4 1.55 68.6 0.603 1.07 1.21 2.13 1.83 3.23-0.33 0.99-0.66 1.98-1 3-5.48-6.32-11.1-13.9-11.2-22.5-0.0128-0.905-0.0257-1.81-0.0389-2.74-0.00739-0.978-0.0148-1.96-0.0224-2.96-0.00807-1.01-0.0161-2.03-0.0245-3.07-0.0138-2.15-0.0246-4.3-0.0324-6.45-0.0171-3.26-0.061-6.51-0.105-9.77-0.0101-2.09-0.0186-4.18-0.0254-6.28-0.0175-0.962-0.035-1.92-0.0531-2.91 0.0225-7.16 1.78-12.8 4.48-19.3 0.596-1.72 1.18-3.45 1.75-5.19 0.364-1.1 0.364-1.1 0.734-2.23 0.17-0.522 0.34-1.04 0.516-1.58h2c0.33-1.65 0.66-3.3 1-5z" fill="#4B4C4D"/>
<path transform="translate(579,875)" d="m0 0 2 1c-1.89 0.961-3.79 1.92-5.69 2.88-0.618 0.312-1.24 0.623-1.87 0.945-3.75 1.88-7.53 3.7-11.3 5.45-15.6 7.19-30 15.8-44.4 25-7.2 4.56-14.6 8.88-21.9 13.2-8.05 4.7-16 9.51-23.8 14.6-0.975 0.63-1.95 1.26-2.95 1.91-1.34 0.899-1.34 0.899-2.7 1.82-0.758 0.391-1.52 0.781-2.3 1.18-0.99-0.33-1.98-0.66-3-1 1.34-0.744 1.34-0.744 2.71-1.5 11.1-6.07 11.1-6.07 21.3-13.5v-2h2v-2h4v-2c2.55-1.73 2.55-1.73 5.88-3.62 1.09-0.632 2.18-1.26 3.3-1.91 2.82-1.46 2.82-1.46 4.82-1.46v-2h4v-2h2v-2h4v-2h3v-2h2v-2h4v-2c5.75-3 5.75-3 8-3v-2h3v-2h4v-2c1.3-0.165 2.6-0.33 3.94-0.5 8.24-1.63 15.6-5.77 23.1-9.5 1.06-0.529 2.12-1.06 3.21-1.6 1.64-0.822 3.28-1.65 4.91-2.49 1.88-0.91 1.88-0.91 4.88-1.91z" fill="#2A2C2C"/>
<path transform="translate(449,946)" d="m0 0h5c-1.45 3.67-3.13 5.01-6.52 6.95-0.915 0.533-1.83 1.07-2.77 1.61-0.977 0.555-1.95 1.11-2.96 1.68-0.995 0.576-1.99 1.15-3.01 1.75-2.91 1.68-5.82 3.34-8.74 5-0.747 0.425-1.49 0.849-2.26 1.29-2.95 1.67-5.89 3.35-8.84 5.02-3.32 1.94-6.49 4.05-9.66 6.22-3.44 2.27-7.01 4.29-10.6 6.35-4.66 2.7-9.28 5.48-13.9 8.25-0.84 0.503-1.68 1.01-2.54 1.52-0.816 0.49-1.63 0.979-2.47 1.48-0.793 0.475-1.59 0.949-2.4 1.44-1.56 0.953-3.09 1.93-4.61 2.94-1.06 0.7-1.06 0.7-2.14 1.42-0.93 0.634-0.93 0.634-1.88 1.28-1.7 0.79-1.7 0.79-4.7-0.21 0.99-0.66 1.98-1.32 3-2 0.33-0.99 0.66-1.98 1-3 2.6-1.65 3.86-2 7-2v-2c5.75-3 5.75-3 8-3v-2c1.98-0.66 3.96-1.32 6-2v-2h3v-2h4v-2h4v-2h2v-2c1.03-0.413 2.06-0.825 3.12-1.25 3.59-1.52 6.64-3.57 9.88-5.75h2v-2h4v-2h4v-2h3v-2h4v-2h2v-2c1.75-0.985 3.5-1.96 5.25-2.94 1.46-0.818 1.46-0.818 2.95-1.65 2.33-1.18 4.25-1.93 6.8-2.41v-2z" fill="#424445"/>
<path transform="translate(1130,970)" d="m0 0c0.495 1.49 0.495 1.49 1 3-0.681 0.495-1.36 0.99-2.06 1.5-3.77 3.2-6.82 6.67-9.94 10.5-0.47 0.574-0.939 1.15-1.42 1.74-6.09 7.52-11 14-13.5 23.4-2.16 5.89-6.63 11.8-12 15-1.64 0.659-3.32 1.23-5 1.79-1.37 1.3-2.72 2.62-4 4h-2c-0.247 0.578-0.495 1.15-0.75 1.75-1.48 2.67-2.87 4.33-5.25 6.25-3.25 0.75-3.25 0.75-6 1v2h-2c1.12-3.36 2.37-4.69 5-7h2v-2h2c0.227-0.619 0.454-1.24 0.688-1.88 1.69-2.74 3.3-3.18 6.31-4.12v-2c1.98-0.495 1.98-0.495 4-1v-2h4v-2h2v-2h2v-2h2c0.0825-0.763 0.165-1.53 0.25-2.31 1.04-5.1 2.89-9.83 4.75-14.7h2v-2h2c0.66-1.98 1.32-3.96 2-6h2v-2h2c0.66-1.65 1.32-3.3 2-5h2v-2h2v-2h2c0.309-0.619 0.619-1.24 0.938-1.88l2.06-4.12h2v-2c1.65-0.66 3.3-1.32 5-2z" fill="#020304"/>
<path transform="translate(328,1020)" d="m0 0 2 1v283c0.66 0.33 1.32 0.66 2 1 0.339 2.33 0.672 4.67 1 7 0.66 0.66 1.32 1.32 2 2-1.65-0.33-3.3-0.66-5-1v-7h-2v-286z" fill="#000102"/>
<path transform="translate(838,440)" d="m0 0h1c0.0198 0.933 0.0396 1.87 0.0601 2.83 0.0785 3.49 0.165 6.97 0.257 10.5 0.0381 1.5 0.073 3.01 0.104 4.51 0.0461 2.17 0.104 4.34 0.164 6.52 0.0314 1.3 0.0628 2.61 0.0952 3.95 0.325 3.81 1.23 7.08 2.32 10.7 0 3.79-0.425 7.27-1 11-0.66-0.66-1.32-1.32-2-2 0.33 0.598 0.66 1.2 1 1.81 1 2.19 1 2.19 1 5.19h2c0.66 1.98 1.32 3.96 2 6-2.38 0.625-2.38 0.625-5 1-0.66-0.66-1.32-1.32-2-2 0.375-3.12 0.375-3.12 1-6-0.598-0.0825-1.2-0.165-1.81-0.25-2.92-1-3.63-2.09-5.19-4.75-0.328-3.06-0.328-3.06-0.25-6.44 0.0155-1.11 0.0309-2.22 0.0469-3.37 0.18-2.83 0.625-5.42 1.2-8.19-0.0412-1.03-0.0825-2.06-0.125-3.12 0.138-4.27 1.13-7.73 2.32-11.8 1.38-5.28 2.07-10.7 2.8-16.1z" fill="#050605"/>
<path transform="translate(649,836)" d="m0 0c7.46-0.213 14.6 0.419 22 1.44 1.55 0.202 1.55 0.202 3.14 0.408 7.59 1.02 7.59 1.02 9.86 2.15 1.48 0.126 2.96 0.227 4.44 0.312 4.29 0.414 4.29 0.414 6.62 2.75 0.309 0.639 0.619 1.28 0.938 1.94-1.26 2.53-2.53 2.76-5 4-2-1-2-1-3-4-8.47-1.12-16.5-0.805-25 0v2c-2.64 0.33-5.28 0.66-8 1 0.66-0.33 1.32-0.66 2-1v-3c-1.99-1.34-3.99-2.68-6-4-1.2-2.13-1.2-2.13-2-4z" fill="#454647"/>
<path transform="translate(976 898)" d="m0 0c3.89 1.04e-4 7.77-0.0139 11.7-0.0308 3.04-0.0111 6.08-0.0131 9.13-0.0126 1.44-0.00117 2.87-0.00555 4.31-0.0133 1.98-0.0098 3.97-0.00566 5.95-8.95e-4 1.12-0.00143 2.24-0.00285 3.4-0.00432 3.05 0.251 5.25 0.953 8.01 2.25v2c-1.34-0.0449-1.34-0.0449-2.7-0.0908-25.1-0.82-50.2-1.04-75.3-0.978-4.76 0.0105-9.52 0.0149-14.3 0.0198-9.23 0.0105-18.5 0.0274-27.7 0.0488v-1c25.8-1.85 51.7-2.19 77.5-2.19z" fill="#454647"/>
<path transform="translate(881,1042)" d="m0 0h101v1h-37c-0.33 0.99-0.66 1.98-1 3-5.18 1.05-10.2 1.19-15.4 1.19-0.929-8.06e-4 -1.86-0.00161-2.82-0.00244-8.81-0.0727-17.6-0.525-26.4-1.06-0.686-0.0392-1.37-0.0784-2.08-0.119-1.97-0.115-3.93-0.244-5.9-0.373-1.14-0.0733-2.28-0.147-3.45-0.222-2.78-0.387-4.57-0.979-6.95-2.41v-1z" fill="#000001"/>
<path transform="translate(914,902)" d="m0 0c2.94 0.0869 5.87 0.194 8.81 0.312 0.833 0.0226 1.67 0.0451 2.53 0.0684 1.2 0.0532 1.2 0.0532 2.43 0.107 1.11 0.0393 1.11 0.0393 2.24 0.0793 2.46 0.535 3.39 1.53 4.99 3.43-0.66 1.98-1.32 3.96-2 6-3.35 0.754-6.43 1.12-9.86 1.1-1.33-0.00483-1.33-0.00483-2.69-0.00977-0.912-0.00838-1.82-0.0168-2.76-0.0254-0.931-0.00451-1.86-0.00902-2.82-0.0137-2.29-0.0117-4.58-0.0282-6.87-0.0488-1.46-2.65-2-3.89-2-7 2.64-0.66 5.28-1.32 8-2v-2z" fill="#000100"/>
<path transform="translate(803,661)" d="m0 0c-1.98 0.66-3.96 1.32-6 2v2c-2.79 1.34-5.58 2.67-8.38 4-0.794 0.382-1.59 0.763-2.41 1.16-0.761 0.361-1.52 0.722-2.3 1.09-0.702 0.335-1.4 0.67-2.13 1.02-1.79 0.734-1.79 0.734-3.79 0.734-0.33 0.99-0.66 1.98-1 3-0.763 0.289-1.53 0.577-2.31 0.875-3.36 1.41-4.56 3.22-6.69 6.12-1.62 1.81-1.62 1.81-3 3h-2c-0.227 0.887-0.454 1.77-0.688 2.69-1.51 3.81-3.37 5.51-6.31 8.31-2.88 3.87-4.67 7.36-6 12h-2c-0.147 0.626-0.294 1.25-0.445 1.9-0.689 2.51-1.39 4.77-2.55 7.1-3.19 1.56-3.19 1.56-6 2v-2h2c0.66-2.31 1.32-4.62 2-7h2v-4h2v-4h2c0.464-1.18 0.464-1.18 0.938-2.38 1.06-2.62 1.06-2.62 2.06-4.62h2c0.66-1.98 1.32-3.96 2-6h2v-2h2v-2h2v-2h2v-2h2v-2h2v-2c1.38-1.62 1.38-1.62 3-3h2v-2h4v-2h2v-2h4v-2c1.13-0.413 2.27-0.825 3.44-1.25 3.98-1.47 7.77-3.22 11.6-5.08 1.98-0.672 1.98-0.672 4.98 0.328z" fill="#000102"/>
<path transform="translate(863,349)" d="m0 0c1.96 3.57 3.14 7.33 4.38 11.2 3.94 12 8.94 23.4 17.6 32.8 0.66 0.33 1.32 0.66 2 1v2c1.49 0.495 1.49 0.495 3 1 1.39 1.62 2.73 3.29 4 5-0.33 0.66-0.66 1.32-1 2-1.28-0.909-2.55-1.83-3.81-2.75-1.06-0.766-1.06-0.766-2.14-1.55-2.04-1.7-2.04-1.7-3.62-3.84-1.38-2.15-1.38-2.15-4.43-2.86-1.19-2.56-1.19-2.56-2-5h-2c-7.13-8.98-14.1-23.6-13.3-35.2 0.344-1.79 0.344-1.79 1.34-3.79z" fill="#4B4C4D"/>
<path transform="translate(1093,934)" d="m0 0c0.392 0.804 0.784 1.61 1.19 2.44 1.65 2.9 1.65 2.9 5.25 3.56 3.5 0.281 3.5 0.281 6-1.31 1.79-1.55 1.79-1.55 1.56-3.69 3.46-0.495 3.46-0.495 7-1v2c0.66 0.66 1.32 1.32 2 2-1.29 1.38-2.63 2.71-4 4h-2c-0.33 1.32-0.66 2.64-1 4h-2v2h-2c-0.33 0.66-0.66 1.32-1 2-1.46-0.309-2.92-0.622-4.38-0.938-0.812-0.174-1.62-0.348-2.46-0.527-2.16-0.535-2.16-0.535-4.16-1.54v-3h-2c-0.66-2.97-1.32-5.94-2-9 2-1 2-1 4-1z" fill="#010201"/>
<path transform="translate(1174,920)" d="m0 0c0.495 0.99 0.495 0.99 1 2-0.908 0.742-1.82 1.49-2.75 2.25-1.96 1.62-3.72 3.23-5.5 5.06-1.75 1.69-1.75 1.69-3.75 1.69-0.309 0.619-0.619 1.24-0.938 1.88l-2.06 4.12h-2c-0.247 0.577-0.495 1.15-0.75 1.75-1.86 3.34-3.81 5.77-7.5 7-0.866 0.124-0.866 0.124-1.75 0.25-0.268 1.11-0.536 2.23-0.812 3.38-1.19 3.62-1.19 3.62-4.19 5.62-0.33 0.99-0.66 1.98-1 3h-2c-0.33 0.99-0.66 1.98-1 3-1.42-4.25-0.193-6.72 1-11h2v-4h2v-2h2v-2h2v-2h2v-2c0.784-0.247 1.57-0.495 2.38-0.75 3.05-1.45 3.35-2.25 4.62-5.25 1.44-1.75 1.44-1.75 3-3h3v-2h2v-2h2v-2h2v-2c1.65-0.33 3.3-0.66 5-1z" fill="#010303"/>
<path transform="translate(961,551)" d="m0 0h2c-0.0722 1.08-0.144 2.16-0.219 3.27-0.527 8.33-0.887 16.6-0.906 25-0.00451 0.785-0.00902 1.57-0.0137 2.38 0.011 4.23 0.302 8.2 1.14 12.4-5.89-3.74-7.07-9.99-8.58-16.5-1.22-8.08 0.248-17.3 4.64-24.3 0.639-0.722 1.28-1.44 1.94-2.19z" fill="#4B4C4D"/>
<path transform="translate(334,1289)" d="m0 0c0.536 0.784 1.07 1.57 1.62 2.38 4.83 5.33 11.6 5.12 18.4 5.62-2.49 2.67-4.63 4.56-8 6v3c-0.619 0.289-1.24 0.578-1.88 0.875-2.26 1.06-2.26 1.06-4.12 3.12-2.31-0.99-4.62-1.98-7-3-0.027-2.44-0.0468-4.87-0.0625-7.31-0.00838-0.69-0.0168-1.38-0.0254-2.09-0.0152-3.14 0.086-5.59 1.09-8.6zm9 15 1 2z" fill="#010302"/>
<path transform="translate(817,660)" d="m0 0c1.84-0.19 3.67-0.425 5.5-0.688 6.7-0.649 11.5 0.984 17.5 3.69 1.66 0.672 3.33 1.34 5 2v2c-1.5-0.215-1.5-0.215-3.02-0.434-0.642-0.0914-1.28-0.183-1.94-0.277-1.92-0.274-3.84-0.549-5.76-0.825-13.9-2.62-13.9-2.62-27.3-0.465-1.41 0.203-2.83 0.365-4.25 0.5-3.61 0.368-7.17 0.858-10.8 1.5 3-2 3-2 5-2v-2c6.84-3.08 12.5-5.49 20-3z" fill="#4B4C4D"/>
<path transform="translate(861,304)" d="m0 0c1.28 3.85 0.572 7.01 0 10.9-0.963 7.19-1.03 13.9 0 21.1-1.69-1.64-3.35-3.31-5-5-0.763-0.743-1.53-1.49-2.31-2.25-2.41-3.93-2.35-7.25-1.69-11.8 1.64-4.25 3.93-7.63 7-11h2v-2z" fill="#4B4C4D"/>
<path transform="translate(1034,726)" d="m0 0h5v2c1.21-0.124 1.21-0.124 2.44-0.25 4.74 0.333 8.35 2.15 12.6 4.25v1c-1.26 0.0206-2.52 0.0412-3.81 0.0625-0.708 0.0116-1.42 0.0232-2.14 0.0352-2.04-0.0977-2.04-0.0977-5.04-1.1-4.2-0.262-8.41-0.232-12.6-0.25-1.15-0.0206-2.3-0.0412-3.49-0.0625-6.98-0.0318-12.4 0.688-18.9 3.31 0.75-4.75 0.75-4.75 3-7 3.86-1.49 7.93-1.19 12-1 0.99 0.66 1.98 1.32 3 2 2.07 0.0275 2.07 0.0275 4.19-0.375 1.26-0.206 2.52-0.413 3.81-0.625v-2z" fill="#4B4C4D"/>
<path transform="translate(970,299)" d="m0 0c0.33 1.32 0.66 2.64 1 4h2c2.08 6.81 2.27 13.1 2.19 20.2-6.45e-4 1.07-0.00129 2.13-0.00195 3.23-0.0263 4.68-0.147 9-1.19 13.6-3.47-6.19-4.26-12.4-4.75-19.4-0.196-2.66-0.196-2.66-0.801-5.28-0.562-2.99-0.0643-5.41 0.555-8.37h2c-0.33-2.64-0.66-5.28-1-8z" fill="#000100"/>
<path transform="translate(877,262)" d="m0 0c0.33 0.66 0.66 1.32 1 2-0.938 2.12-0.938 2.12-2 4h-2c-0.227 1.11-0.454 2.23-0.688 3.38-0.858 3.52-2.17 6.44-3.88 9.62-2.35 4.46-3.16 7.99-3.44 13-3.24-2.59-5.3-5.4-6.21-9.51 0.478-5.75 4.68-11.1 8.21-15.5 2.65-1.95 2.65-1.95 5-3l2 1c0.66-1.65 1.32-3.3 2-5z" fill="#4B4C4D"/>
<path transform="translate(1264,959)" d="m0 0h2v4h2c3.45 7.18 3.9 14.1 3 22-1.04 2.69-1.97 3.9-4 6h-1c-0.33-1.65-0.66-3.3-1-5h-1v-11c0.66 0.66 1.32 1.32 2 2 0.33-1.65 0.66-3.3 1-5h-2v-2h-2c-1.03-4.41-1.04-6.93 1-11z" fill="#000100"/>
<path transform="translate(1101,1007)" d="m0 0h3c-1.22 7.03-5 12-10 17-2.31 1.39-4.42 2.11-7 3-1.37 1.3-2.72 2.62-4 4h-2c-0.247 0.578-0.495 1.15-0.75 1.75-1.48 2.67-2.87 4.33-5.25 6.25-3.25 0.75-3.25 0.75-6 1v2h-2c1.12-3.36 2.37-4.69 5-7h2v-2h2c0.34-0.928 0.34-0.928 0.688-1.88 1.69-2.74 3.3-3.18 6.31-4.12v-2c1.32-0.33 2.64-0.66 4-1v-2h4v-2h2v-2h2v-2h2v-2c1.32-0.33 2.64-0.66 4-1v-6z" fill="#000102"/>
<path transform="translate(918,218)" d="m0 0v2c0.99 0.33 1.98 0.66 3 1-0.99 0.186-1.98 0.371-3 0.562-9.44 2.78-16.9 13.2-23.6 20-1.46 1.48-2.93 2.95-4.41 4.42 1.12-2.97 2.22-5.33 4-8 0.306-0.643 0.611-1.29 0.926-1.95 3.6-6.88 14.4-21.1 23.1-18.1z" fill="#4B4C4D"/>
<path transform="translate(1069,1040)" d="m0 0c2.47 0.495 2.47 0.495 5 1-4.86 4.86-14 4.14-20.5 4.19-6.28-0.0543-12.5-0.321-18.8-0.625-1.23-0.0586-1.23-0.0586-2.48-0.118-3.27-0.18-6.09-0.405-9.21-1.44v-2c6.23-0.0253 12.5-0.0428 18.7-0.0549 2.12-0.00504 4.24-0.0119 6.36-0.0205 3.04-0.0121 6.09-0.0178 9.13-0.0222 0.952-0.00516 1.9-0.0103 2.89-0.0156 0.881-7.55e-5 1.76-1.51e-4 2.67-2.29e-4 1.17-0.00333 1.17-0.00333 2.36-0.00673 1.91 0.12 1.91 0.12 3.91 1.12v-2z" fill="#3D3F40"/>
<path transform="translate(995 898)" d="m0 0c1.53-0.00682 3.06-0.0171 4.6-0.0308 2.18-0.018 4.36-0.0222 6.55-0.0225 1.27-0.00411 2.54-0.00822 3.85-0.0125 3.24 0.234 5.46 0.844 8.37 2.24v2c-19.5-0.66-38.9-1.32-59-2v-1c11.9-0.817 23.7-1.13 35.6-1.18z" fill="#4B4C4D"/>
<path transform="translate(969,615)" d="m0 0c1.84 0.108 1.84 0.108 3.73 0.219 1.63 0.0938 3.27 0.188 4.9 0.281 1.21 0.0715 1.21 0.0715 2.45 0.145 4.32 0.246 8.6 0.411 12.9 0.355v2h-3v2h-4v2c-7.81 2.41-7.81 2.41-12.4 0.812-2.56-1.81-2.56-1.81-4.56-4.81v-3z" fill="#4B4C4D"/>
<path transform="translate(720,847)" d="m0 0c7.53 0.442 14.7 1.14 22 3v2h2v4c-17.3-1.41-17.3-1.41-24-7v-2z" fill="#494A4B"/>
<path transform="translate(1085 1189)" d="m0 0c1.2-0.0142 2.41-0.0284 3.64-0.043 3.85 0.25 6.89 1.05 10.5 2.23v1h-68v-1c0.967-0.0251 1.93-0.0501 2.93-0.0759 3.65-0.0954 7.29-0.195 10.9-0.296 1.57-0.0429 3.13-0.0846 4.7-0.125 8.33-0.216 16.6-0.526 24.9-1.29 3.46-0.295 6.88-0.385 10.4-0.404z"/>
<path transform="translate(415,968)" d="m0 0c-1.36 3.26-2.57 4.67-5.65 6.38-0.749 0.422-1.5 0.844-2.27 1.28-0.811 0.444-1.62 0.888-2.46 1.35-1.72 0.966-3.43 1.93-5.15 2.9-0.894 0.503-1.79 1.01-2.71 1.52-4.63 2.64-9.2 5.39-13.8 8.14-0.854 0.512-1.71 1.02-2.59 1.55-3.18 1.91-6.33 3.83-9.41 5.88h-3v-2c2.65-1.46 3.89-2 7-2v-2c5.75-3 5.75-3 8-3v-2c1.98-0.66 3.96-1.32 6-2v-2h3v-2h4v-2h4v-2h2v-2c1.07-0.433 2.14-0.866 3.25-1.31 3.28-1.39 6.3-4.69 9.75-4.69z" fill="#060809"/>
<path transform="translate(839,428)" d="m0 0h2c0.0251 0.75 0.0501 1.5 0.0759 2.27 0.118 3.47 0.24 6.94 0.362 10.4 0.0393 1.18 0.0786 2.36 0.119 3.57 0.249 7 0.644 14 1.24 20.9 0.264 3.62 0.276 7.18 0.205 10.8-1.98-1.52-1.98-1.52-4-4-0.329-2.72-0.425-4.99-0.312-7.69 0.0155-0.737 0.0309-1.47 0.0469-2.23 0.204-8.04 0.704-16.1 1.27-24.1h-2c-0.125-7.75-0.125-7.75 1-10z" fill="#4B4C4D"/>
<path transform="translate(520,906)" d="m0 0c0.66 0.33 1.32 0.66 2 1-1.14 0.904-2.29 1.8-3.44 2.69-0.957 0.748-0.957 0.748-1.93 1.51-2.94 2.02-5.99 3.7-9.12 5.42-4.45 2.46-8.82 5.05-13.2 7.64-0.96 0.567-1.92 1.13-2.91 1.72-6.64 3.94-13.2 8-19.6 12.2-0.917 0.596-1.83 1.19-2.78 1.8-0.886 0.596-1.77 1.19-2.68 1.8-0.764 0.394-1.53 0.789-2.32 1.2-0.99-0.33-1.98-0.66-3-1 0.895-0.496 1.79-0.993 2.71-1.5 11.1-6.07 11.1-6.07 21.3-13.5v-2c0.965-0.294 0.965-0.294 1.95-0.594 9.34-3.09 17.1-8.13 25.2-13.5 0.986-0.645 1.97-1.29 2.99-1.95 0.88-0.589 1.76-1.18 2.67-1.79 0.708-0.38 1.42-0.761 2.14-1.15z" fill="#4A4B4C"/>
<path transform="translate(1042,465)" d="m0 0c-3.65 4.77-8.49 5.64-14 7.25-8.8 2.72-15.7 5.96-23 11.8-0.66-0.33-1.32-0.66-2-1 0.699-0.482 1.4-0.964 2.12-1.46 0.91-0.632 1.82-1.26 2.76-1.91 0.905-0.626 1.81-1.25 2.74-1.9 2.42-1.66 2.42-1.66 4.38-3.73 1.99-0.398 3.99-0.738 6-1 0.33-0.99 0.66-1.98 1-3 6.21-5.15 12.2-5.19 20-5z" fill="#454647"/>
<path transform="translate(520,902)" d="m0 0c0.99 0.33 1.98 0.66 3 1h-2c0.495 1.49 0.495 1.49 1 3-5.05 3.48-10.1 6.72-15.5 9.64-3.96 2.19-7.81 4.56-11.7 6.91-2.67 1.39-4.83 2.04-7.8 2.45v-2h4v-2c2.55-1.73 2.55-1.73 5.88-3.62 1.09-0.632 2.18-1.26 3.3-1.91 2.82-1.46 2.82-1.46 4.82-1.46v-2h4v-2h2v-2h4v-2h3v-2h2v-2z" fill="#050708"/>
<path transform="translate(790 888)" d="m0 0c0.936 6.45e-4 1.87 0.00129 2.84 0.00195 6.87 0.0444 6.87 0.0444 10.3 1.19v2h2v2c-4.52-0.14-9.04-0.288-13.6-0.438-1.28-0.0393-2.55-0.0786-3.87-0.119-1.24-0.0419-2.48-0.0838-3.76-0.127-1.14-0.0367-2.27-0.0733-3.44-0.111-3.5-0.213-6.9-0.665-10.4-1.21v-1c6.76-1.75 12.9-2.28 19.9-2.19z" fill="#4A4B4C"/>
<path transform="translate(604,802)" d="m0 0h2v3l-2 1c-0.371 0.866-0.742 1.73-1.12 2.62-2.16 3.88-4.64 5.91-8 8.71-3.77 3.34-5.17 6.75-5.87 11.7 0.99 0.33 1.98 0.66 3 1 0.33 0.99 0.66 1.98 1 3h-4c-2-2-2-2-2.23-3.88 0.0142-0.701 0.0284-1.4 0.043-2.12 0.00645-0.701 0.0129-1.4 0.0195-2.12 0.168-1.88 0.168-1.88 1.17-3.88h2c0.33-1.32 0.66-2.64 1-4h2c0.33-1.32 0.66-2.64 1-4h2v-2h2v-2h2v-3h2v-2h2v-2z" fill="#000102"/>
<path transform="translate(870,528)" d="m0 0c2.48 0.99 2.48 0.99 5 2v2h3c0.66 1.98 1.32 3.96 2 6h2v6c-2.25 0.375-2.25 0.375-5 0-2.19-2.81-2.19-2.81-4-6-0.66-0.99-1.32-1.98-2-3-0.394-2.32-0.735-4.66-1-7z" fill="#000100"/>
<path transform="translate(743 345)" d="m0 0c0.784 0.0412 1.57 0.0825 2.38 0.125v2c0.516 0.103 1.03 0.206 1.56 0.312 3.3 0.93 6.3 2.3 9.44 3.69-1.94 0.562-1.94 0.562-4 1-0.33-0.33-0.66-0.66-1-1-2.33-0.0409-4.67-0.0424-7 0-1.65 2.97-3.3 5.94-5 9-2.26-3.4-2.19-4.17-1.75-8.06 0.0877-0.878 0.175-1.76 0.266-2.66 0.72-3.39 1.65-4.24 5.11-4.4z" fill="#4B4C4D"/>
<path transform="translate(908,218)" d="m0 0 4 1c-0.473 0.389-0.946 0.779-1.43 1.18-10.5 8.41-10.5 8.41-16.6 19.8-2.56 2.75-2.56 2.75-5 5-0.981-3.05-0.981-4.95 0-8h2v-2h2v-2h2c0.227-0.557 0.454-1.11 0.688-1.69 2.43-4.28 5.75-7.45 10.3-9.31v-2h2v-2z" fill="#000203"/>
<path transform="translate(628,775)" d="m0 0h9c-0.816 0.597-0.816 0.597-1.65 1.21-3.74 2.85-7.3 5.91-10.9 8.93-2.46 1.86-2.46 1.86-4.46 1.86v2h-2c-0.33-0.99-0.66-1.98-1-3 1.27-1.71 2.61-3.38 4-5 0.709-1.31 1.39-2.64 2-4h5v-2z" fill="#434545"/>
<path transform="translate(1057,455)" d="m0 0h9c2.12 4.62 2.12 4.62 1 8-0.33-0.33-0.66-0.66-1-1-5.99-0.321-11.2 0.498-17 2 1.68-3.81 3.38-4.96 7-7 0.33-0.66 0.66-1.32 1-2z" fill="#454647"/>
<path transform="translate(962,537)" d="m0 0 2 2c0.66-0.66 1.32-1.32 2-2-0.114 1.6-0.242 3.21-0.375 4.81-0.0696 0.893-0.139 1.79-0.211 2.71-0.414 2.48-0.414 2.48-2.41 5.48-0.33-0.33-0.66-0.66-1-1-0.33 0.66-0.66 1.32-1 2h-2v-2h-3v-3h2c-0.0825-0.928-0.165-1.86-0.25-2.81 0.25-3.19 0.25-3.19 2.25-5.06 0.66-0.371 1.32-0.742 2-1.12z" fill="#010302"/>
<path transform="translate(604,807)" d="m0 0c0 3.49-0.471 3.87-2.62 6.44-3.99 5.08-6.64 10.7-9.38 16.6-0.99-0.33-1.98-0.66-3-1 0.376-6.14 2.04-9.27 6-14h2c0.66-0.99 1.32-1.98 2-3 1.65-1.69 3.31-3.36 5-5z" fill="#4B4C4D"/>
<path transform="translate(575,874)" d="m0 0h4v2c-0.681 0.268-1.36 0.536-2.06 0.812-9.64 3.9-19.1 8.36-28.2 13.4-1.78 0.762-1.78 0.762-5.78 0.762v-2h4v-2c1.6-0.673 3.21-1.34 4.81-2 0.893-0.371 1.79-0.742 2.71-1.12 2.48-0.875 2.48-0.875 5.48-0.875v-2h4v-2c3.86-2.15 6.55-3.39 11-3v-2z" fill="#050708"/>
<path transform="translate(686,870)" d="m0 0c4.54-0.101 7.71 0.57 12 2v2h5v2c0.99 0.33 1.98 0.66 3 1-2.6 1.3-3.93 0.872-6.79 0.441-0.941-0.139-1.88-0.277-2.85-0.42-1.48-0.227-1.48-0.227-2.98-0.459-0.993-0.148-1.99-0.295-3.01-0.447-2.46-0.366-4.91-0.738-7.37-1.12 0.66-0.33 1.32-0.66 2-1 0.652-2.02 0.652-2.02 1-4z" fill="#464748"/>
<path transform="translate(848,505)" d="m0 0c4.88 1.75 4.88 1.75 6 4 0.99 0.66 1.98 1.32 3 2 0.688 3.62 0.688 3.62 1 7h-2v-2c-1.42 0.0619-1.42 0.0619-2.88 0.125-3.12-0.125-3.12-0.125-5.12-2.12 0.99-0.33 1.98-0.66 3-1-0.639-0.247-1.28-0.495-1.94-0.75-2.06-1.25-2.06-1.25-2.94-3.25-0.0412-0.66-0.0825-1.32-0.125-2 0.66-0.66 1.32-1.32 2-2z" fill="#000100"/>
<path transform="translate(914,226)" d="m0 0h10c0.66 1.65 1.32 3.3 2 5-1 1-1 1-3.56 1.06-1.21-0.0309-1.21-0.0309-2.44-0.0625 0.33 0.99 0.66 1.98 1 3-0.99-0.33-1.98-0.66-3-1-1.33-0.342-2.66-0.678-4-1v-7z" fill="#000100"/>
<path transform="translate(1034,726)" d="m0 0h5v2c1.21-0.124 1.21-0.124 2.44-0.25 4.74 0.333 8.35 2.15 12.6 4.25v1c-1.26 0.0206-2.52 0.0412-3.81 0.0625-0.708 0.0116-1.42 0.0232-2.14 0.0352-2.04-0.0977-2.04-0.0977-5.04-1.1-1.89-0.222-3.79-0.406-5.69-0.562-0.994-0.0838-1.99-0.168-3.01-0.254-1.14-0.0909-1.14-0.0909-2.3-0.184v-2c-0.66-0.33-1.32-0.66-2-1h4v-2z" fill="#3B3C3D"/>
<path transform="translate(581,876)" d="m0 0c-9.14 4.64-18.3 9.1-27.6 13.4-3.89 1.84-7.69 3.69-11.4 5.92-0.989 0.54-1.98 1.08-3 1.64-0.66-0.33-1.32-0.66-2-1 2.72-3.24 4.72-5.12 8.81-6.31 4.63-1.35 8.73-3.37 13-5.56 19-9.71 19-9.71 22.2-8.12z" fill="#4B4C4D"/>
<path transform="translate(771,856)" d="m0 0c1.42 0.115 2.83 0.243 4.25 0.375 0.789 0.0696 1.58 0.139 2.39 0.211 2.36 0.414 2.36 0.414 4.41 1.45 2.66 1.31 5.07 0.985 7.98 0.898 2.62 0.083 4.65 0.9 6.97 2.06-1.75 2-1.75 2-4 4h-4v-4c-0.88-0.049-1.76-0.098-2.67-0.148-1.16-0.0748-2.32-0.15-3.52-0.227-1.15-0.0696-2.3-0.139-3.48-0.211-3.13-0.389-5.48-1.1-8.33-2.41v-2z" fill="#4B4C4D"/>
<path transform="translate(837,1018)" d="m0 0c3.67-0.342 5.58-0.242 8.81 1.62 2.59 2.82 2.93 4.61 3.19 8.38-1.32-0.33-2.64-0.66-4-1v-2c-0.742-0.103-1.49-0.206-2.25-0.312-2.92-0.73-4.48-1.76-6.75-3.69 0.33-0.99 0.66-1.98 1-3z" fill="#4B4C4D"/>
<path transform="translate(449,946)" d="m0 0c1.32 0.33 2.64 0.66 4 1-5.92 4.43-12.1 8.31-18.5 11.9-0.706 0.401-1.41 0.803-2.14 1.22-5.11 2.85-5.11 2.85-7.36 2.85v-2h3v-2h4v-2h2v-2c1.75-0.985 3.5-1.96 5.25-2.94 0.975-0.545 1.95-1.09 2.95-1.65 2.33-1.18 4.25-1.93 6.8-2.41v-2z" fill="#050808"/>
<path transform="translate(483,925)" d="m0 0c0.99 0.33 1.98 0.66 3 1-3.54 3.79-7.01 6.45-11.5 9.12-1.66 0.994-1.66 0.994-3.34 2.01-1.04 0.616-2.08 1.23-3.16 1.87-1.37 0.872-1.37 0.872-2.76 1.76-2.24 1.24-2.24 1.24-4.55 0.926-0.557-0.227-1.11-0.454-1.69-0.688 1.32-0.33 2.64-0.66 4-1v-2c2.31-0.66 4.62-1.32 7-2v-2c1.32-0.33 2.64-0.66 4-1v-2h3v-2h3v-2h3v-2z" fill="#060809"/>
<path transform="translate(944,898)" d="m0 0c2.7-0.267 5.16-0.348 7.85-0.293 0.774 0.00424 1.55 0.00849 2.35 0.0129 2.48 0.0168 4.95 0.0545 7.43 0.0926 1.68 0.015 3.35 0.0287 5.03 0.041 4.11 0.0331 8.23 0.0849 12.3 0.146v1h-20v2h-17c0.66-0.99 1.32-1.98 2-3z" fill="#323535"/>
<path transform="translate(1163,932)" d="m0 0c0.99 0.33 1.98 0.66 3 1-1.62 1.71-3.29 3.37-5 5h-2c-0.264 0.596-0.529 1.19-0.801 1.8-1.24 2.28-2.48 3.58-4.39 5.32-4.3 4.15-7.53 8.91-10.8 13.9-0.66-0.33-1.32-0.66-2-1 0.33-1.32 0.66-2.64 1-4 1.32-0.33 2.64-0.66 4-1 0.155-1.67 0.155-1.67 0.312-3.38 0.227-1.2 0.454-2.39 0.688-3.62 3-2 3-2 4.94-2.81 2.71-1.56 4.14-3.75 6.06-6.19h2c0.309-0.639 0.619-1.28 0.938-1.94 1.06-2.06 1.06-2.06 2.06-3.06z" fill="#4B4C4D"/>
<path transform="translate(1130,970)" d="m0 0c0.33 0.99 0.66 1.98 1 3-0.681 0.495-1.36 0.99-2.06 1.5-3.14 2.67-5.55 5.56-8.09 8.79-2.23 2.07-3.86 2.36-6.84 2.71v-2h2v-2h2v-2h2c0.309-0.619 0.619-1.24 0.938-1.88l2.06-4.12h2v-2c1.65-0.66 3.3-1.32 5-2z" fill="#010201"/>
<path transform="translate(736,345)" d="m0 0c1.32 0.33 2.64 0.66 4 1-0.33 0.825-0.66 1.65-1 2.5-0.843 2.95-1.09 4.61-1 7.56 0 3.67-0.384 5.71-2 8.94-0.33-0.99-0.66-1.98-1-3h-2c0.779-11.5 0.779-11.5 3-17z" fill="#040606"/>
<path transform="translate(1007,728)" d="m0 0c1.32 0.33 2.64 0.66 4 1-0.639 0.763-1.28 1.53-1.94 2.31-2.2 2.57-2.2 2.57-3.06 5.69-2.83 2.2-4.19 3.09-7.81 2.69-0.722-0.227-1.44-0.454-2.19-0.688v-2c1.32-0.33 2.64-0.66 4-1v-2h2v-2h2v-2h3v-2z" fill="#000101"/>
<path transform="translate(732,1181)" d="m0 0c3.69 0.503 6.82 0.998 10 3l1 2c0.99 0.412 1.98 0.825 3 1.25 3 1.75 3 1.75 3.88 4.94 0.0412 0.928 0.0825 1.86 0.125 2.81h-5c0.66-0.66 1.32-1.32 2-2-0.66-0.33-1.32-0.66-2-1-0.33-0.99-0.66-1.98-1-3-1.89-0.681-1.89-0.681-4-1-0.99-0.33-1.98-0.66-3-1v-4h-5v-2z" fill="#000001"/>
<path transform="translate(756,850)" d="m0 0c5.86 1.51 10 3.36 14.4 7.6 1.75 1.53 3.49 2.44 5.61 3.4h-7v-2h-3v-2h-4v-2h-4v-2c-0.99-0.33-1.98-0.66-3-1 0.33-0.66 0.66-1.32 1-2z" fill="#000101"/>
<path transform="translate(619,779)" d="m0 0h3c-1.12 2.97-2.22 5.33-4 8-0.126 0.615-0.253 1.23-0.383 1.86-0.866 3-2.54 4.91-4.49 7.32-0.699 0.88-1.4 1.76-2.12 2.67-2.01 2.14-2.01 2.14-5.01 3.14v-2h2c0.289-0.784 0.577-1.57 0.875-2.38 1.12-2.62 1.12-2.62 3.12-4.62 0.643-2.07 0.643-2.07 1-4h2v-4h2v-2h2v-4z" fill="#000101"/>
<path transform="translate(1102,781)" d="m0 0h2v2c0.949-0.186 1.9-0.371 2.88-0.562 3.12-0.438 3.12-0.438 5.12 0.562v2c0.928-0.0619 1.86-0.124 2.81-0.188 3.19 0.188 3.19 0.188 4.89 1.7 0.429 0.491 0.859 0.982 1.3 1.49-12 0.577-12 0.577-17-3-1.38-2.19-1.38-2.19-2-4z" fill="#4B4C4D"/>
<path transform="translate(1144,946)" d="m0 0h2c0.75 2.25 0.75 2.25 1 5-1.88 2.12-1.88 2.12-4 4-0.33 0.99-0.66 1.98-1 3h-2c-0.33 0.99-0.66 1.98-1 3-1.42-4.25-0.193-6.72 1-11h2c0.66-1.32 1.32-2.64 2-4z" fill="#030404"/>
<path transform="translate(782,1196)" d="m0 0c1.79-0.0809 3.58-0.139 5.38-0.188 1.5-0.0522 1.5-0.0522 3.02-0.105 0.859 0.0967 1.72 0.193 2.6 0.293 2 3 2 3 2 6-9.88-0.612-9.88-0.612-13-4v-2z" fill="#4B4C4D"/>
<path transform="translate(1259 1e3)" d="m0 0c0.33 1.32 0.66 2.64 1 4h-2c-0.0503 0.684-0.101 1.37-0.152 2.07-1.19 4.1-3.6 6.59-6.41 9.74-0.52 0.597-1.04 1.19-1.58 1.81-1.28 1.47-2.57 2.92-3.86 4.38 0-3.36 0.605-4.35 2.38-7.12 0.441-0.704 0.882-1.41 1.34-2.13 1.29-1.74 1.29-1.74 3.29-2.74 0.433-1.11 0.433-1.11 0.875-2.25 1.26-3.09 2.96-5.23 5.12-7.75z" fill="#000100"/>
<path transform="translate(1023,1041)" d="m0 0c2.52-0.0272 5.04-0.047 7.56-0.0625 1.06-0.0126 1.06-0.0126 2.13-0.0254 4.54-0.0209 8.82 0.34 13.3 1.09v2c-3.27 0.029-6.54 0.0468-9.81 0.0625-0.929 0.00838-1.86 0.0168-2.81 0.0254-0.893 0.00322-1.79 0.00645-2.71 0.00977-1.23 0.00786-1.23 0.00786-2.49 0.0159-2.18-0.114-2.18-0.114-5.18-1.11v-2z" fill="#353738"/>
<path transform="translate(872 676)" d="m0 0c5.05 0.0364 9.64 0.874 14.5 2.19v1c-3.56 0.801-6.92 1.19-10.6 1.25-0.929 0.0258-1.86 0.0516-2.82 0.0781-3.03-0.38-4.37-1.32-6.62-3.33 1.6-1.6 3.29-1.17 5.5-1.19z" fill="#4B4C4D"/>
<path transform="translate(729,879)" d="m0 0h8v2c1.11 0.144 2.23 0.289 3.38 0.438 3.62 0.562 3.62 0.562 5.62 1.56v2c-2.27-0.282-4.54-0.576-6.81-0.875-1.9-0.244-1.9-0.244-3.83-0.492-3.36-0.633-3.36-0.633-6.36-2.63v-2z" fill="#474849"/>
<path transform="translate(1228,927)" d="m0 0h5v2l4 2c-2 1-2 1-4.5 0.938-2.68-0.22-2.68-0.22-4.5 2.06-2.62-0.375-2.62-0.375-5-1 1.38-2 1.38-2 3-4h2v-2z" fill="#000101"/>
<path transform="translate(601,833)" d="m0 0c6.73-0.223 12.5 0.0498 19 2v1h-20c0.33-0.99 0.66-1.98 1-3z" fill="#4B4C4D"/>
<path transform="translate(963,280)" d="m0 0h2v6h2v4h2c-0.33 1.65-0.66 3.3-1 5-1.34-1.66-2.67-3.33-4-5-0.619-0.639-1.24-1.28-1.88-1.94-1.12-2.06-1.12-2.06-0.312-5.31 0.392-0.908 0.784-1.81 1.19-2.75z" fill="#000100"/>
<path transform="translate(604,802)" d="m0 0h2v3l-2 1c-0.65 1.39-0.65 1.39-1.31 2.81-1.81 3.41-3.56 4.99-6.69 7.19-0.66-0.33-1.32-0.66-2-1v-2h2v-2h2v-2h2v-3h2v-2h2v-2z" fill="#040506"/>
<path transform="translate(1189,878)" d="m0 0c4.83 0.358 6.48 0.483 10 4l-8 4c-0.66-1.32-1.32-2.64-2-4 0.33-0.33 0.66-0.66 1-1-0.66-0.66-1.32-1.32-2-2 0.33-0.33 0.66-0.66 1-1z" fill="#000100"/>
<path transform="translate(1127,922)" d="m0 0c0.66 0.33 1.32 0.66 2 1-2.64 3.3-5.28 6.6-8 10-3-3-3-3-4-5 2.22-2.56 3.73-3.29 7-4 0.99-0.66 1.98-1.32 3-2z" fill="#010201"/>
<path transform="translate(1168 892)" d="m0 0c0.91 0.102 1.82 0.204 2.76 0.309 0.699 0.0838 1.4 0.168 2.12 0.254v2h-4c-0.33 0.66-0.66 1.32-1 2h-11c3.96-4.1 5.43-5.22 11.1-4.56z" fill="#4B4C4D"/>
<path transform="translate(803,661)" d="m0 0c-1.98 0.66-3.96 1.32-6 2v2c-1.79 0.864-3.58 1.72-5.38 2.56-0.998 0.476-2 0.951-3.02 1.44-0.859 0.329-1.72 0.657-2.6 0.996-0.66-0.33-1.32-0.66-2-1 3.03-3.41 5.86-5.09 10.1-6.81 1.04-0.44 2.09-0.879 3.16-1.33 2.78-0.855 2.78-0.855 5.78 0.145z" fill="#040606"/>
<path transform="translate(520,902)" d="m0 0c0.99 0.33 1.98 0.66 3 1h-2c0.33 0.99 0.66 1.98 1 3-1.41 0.986-2.83 1.96-4.25 2.94-1.18 0.818-1.18 0.818-2.39 1.65-2.19 1.31-3.87 1.96-6.36 2.41v-3h2v-2h4v-2h3v-2h2v-2z" fill="#040606"/>
<path transform="translate(896,667)" d="m0 0v12h-8c3-2 3-2 5-2v-9c2-1 2-1 3-1z" fill="#000203"/>
<path transform="translate(859,1199)" d="m0 0h37v1h-37v-1z" fill="#000101"/>
<path transform="translate(1026,469)" d="m0 0c-0.598 0.268-1.2 0.536-1.81 0.812-2.2 1.05-2.2 1.05-3.62 2.69-2.82 2.71-5.72 3.5-9.56 3.5 0.66-1.32 1.32-2.64 2-4h4v-2c3.43-1.62 5.38-2.34 9-1z" fill="#030505"/>
<path transform="translate(759,476)" d="m0 0c3.99 1.83 7.58 4.24 11.2 6.62 0.65 0.42 1.3 0.84 1.97 1.27 1.59 1.03 3.19 2.07 4.78 3.1l-2 1c-2.6-1.21-2.6-1.21-5.62-2.94-1-0.566-2.01-1.13-3.04-1.71-0.771-0.445-1.54-0.889-2.34-1.35v-2c-2.48-0.99-2.48-0.99-5-2v-2z" fill="#4B4C4D"/>
<path transform="translate(812,861)" d="m0 0h5v2h2c0.66 2.31 1.32 4.62 2 7h-4v-4h-2c-1.62-2.5-1.62-2.5-3-5z" fill="#000101"/>
<path transform="translate(788,859)" d="m0 0c3.77 0.41 5.8 0.867 9 3-3.06 2.62-3.73 3-8 3v-4c-0.66-0.33-1.32-0.66-2-1l1-1z" fill="#343536"/>
<path transform="translate(1069,1040)" d="m0 0c1.65 0.33 3.3 0.66 5 1-3.04 3.04-5.37 2.96-9.62 3.25-1.11-0.0825-2.23-0.165-3.38-0.25-0.66-0.99-1.32-1.98-2-3 7.75-0.125 7.75-0.125 10 1v-2z" fill="#404142"/>
<path transform="translate(840,495)" d="m0 0h3c0.66 1.98 1.32 3.96 2 6-2.38 0.625-2.38 0.625-5 1-0.66-0.66-1.32-1.32-2-2 0.536-3.54 0.536-3.54 2-5z" fill="#000100"/>
<path transform="translate(358 1e3)" d="m0 0c1.32 0.33 2.64 0.66 4 1-2.12 1.34-4.25 2.67-6.38 4-0.603 0.382-1.21 0.763-1.83 1.16-4.57 2.84-4.57 2.84-6.8 2.84v-2c1.64-1.29 1.64-1.29 3.81-2.62 0.708-0.446 1.42-0.892 2.14-1.35 2.04-1.02 2.04-1.02 5.04-1.02v-2z" fill="#060809"/>
<path transform="translate(657,757)" d="m0 0c0.66 0.33 1.32 0.66 2 1-1.42 1.36-1.42 1.36-2.88 2.75-2.27 2.26-3.96 4.22-5.12 7.25h-5c0.33-0.66 0.66-1.32 1-2h2v-2h2v-2h2v-2h2v-2c0.66-0.33 1.32-0.66 2-1z" fill="#000101"/>
<path transform="translate(1051,457)" d="m0 0h5c-3.32 3.91-7.81 6.81-12.9 7.25-0.681-0.0825-1.36-0.165-2.06-0.25 1-2 1-2 3.07-2.85 1.24-0.383 1.24-0.383 2.5-0.773 0.826-0.26 1.65-0.521 2.5-0.789 0.638-0.193 1.28-0.387 1.93-0.586v-2z" fill="#000101"/>
<path transform="translate(768,1190)" d="m0 0c5.75 0.875 5.75 0.875 8 2 0.625 3.06 0.625 3.06 1 6-1.65-0.33-3.3-0.66-5-1-0.103-0.784-0.206-1.57-0.312-2.38-0.463-2.96-0.463-2.96-3.69-4.62z" fill="#000102"/>
<path transform="translate(461,942)" d="m0 0c-1 3-1 3-4 5-2.19-0.375-2.19-0.375-4-1v-2h2v-2c3.75-1.12 3.75-1.12 6 0z" fill="#2B2C2D"/>
<path transform="translate(415,968)" d="m0 0c-1.03 2.83-1.68 3.83-4.38 5.27-0.905 0.325-1.81 0.65-2.74 0.984-0.91 0.335-1.82 0.67-2.76 1.02-0.699 0.242-1.4 0.485-2.12 0.734l-1-2c1.07-0.433 2.14-0.866 3.25-1.31 3.28-1.39 6.3-4.69 9.75-4.69z" fill="#040707"/>
<path transform="translate(862,522)" d="m0 0c3 0 3 0 4.56 1.38 0.474 0.536 0.949 1.07 1.44 1.62l2 2c-3.05 0.981-4.95 0.981-8 0v-5z" fill="#000100"/>
<path transform="translate(1237,932)" d="m0 0c1.98 0.66 3.96 1.32 6 2v3h2v3c-3.79-1.49-5.65-3.72-8-7v-1z" fill="#000001"/>
<path transform="translate(970,340)" d="m0 0h3c-0.468 4.06-0.88 7.47-3 11-0.66-0.33-1.32-0.66-2-1 0.66-3.3 1.32-6.6 2-10z" fill="#000100"/>
<path transform="translate(1077,504)" d="m0 0h2v16h-1c-0.917-5.38-1.11-10.5-1-16z" fill="#4B4C4D"/>
<path transform="translate(976,317)" d="m0 0h1c0.196 2.06 0.382 4.12 0.562 6.19 0.104 1.15 0.209 2.3 0.316 3.48 0.11 3.02-0.139 5.42-0.879 8.33h-1v-18z" fill="#4B4C4D"/>
<path transform="translate(607,837)" d="m0 0h13v1h-13v-1z" fill="#000102"/>
<path transform="translate(611,1166)" d="m0 0c1.65 1.32 3.3 2.64 5 4h-5v-4z" fill="#000101"/>
<path transform="translate(958,379)" d="m0 0c1.12 3.75 1.12 3.75 0 6h-2c0.66-1.98 1.32-3.96 2-6z" fill="#4B4C4D"/>
<path transform="translate(1272,973)" d="m0 0h1v9h-1v-9z" fill="#4B4C4D"/>
<path transform="translate(1023,872)" d="m0 0c2.97 0.495 2.97 0.495 6 1v1h-6v-2z" fill="#000102"/>
<path transform="translate(1142,910)" d="m0 0c0.33 0.66 0.66 1.32 1 2h-2v2h-2c0.33-0.99 0.66-1.98 1-3 0.66-0.33 1.32-0.66 2-1z" fill="#4B4C4D"/>
<path transform="translate(1147,905)" d="m0 0c0.33 0.99 0.66 1.98 1 3-1.32-0.33-2.64-0.66-4-1 0.99-0.66 1.98-1.32 3-2z" fill="#4B4C4D"/>
<path transform="translate(807,1200)" d="m0 0c1.32 0.33 2.64 0.66 4 1-1.32 0.33-2.64 0.66-4 1v-2z" fill="#000102"/>
<path transform="translate(630,1167)" d="m0 0h7v1h-7v-1z" fill="#000102"/>
<path transform="translate(788,1202)" d="m0 0c1.32 0.33 2.64 0.66 4 1-0.99 0.33-1.98 0.66-3 1-0.33-0.66-0.66-1.32-1-2z" fill="#000102"/>
<path transform="translate(936,1199)" d="m0 0c1.32 0.33 2.64 0.66 4 1h-4v-1z" fill="#4B4C4D"/>
<path transform="translate(1134,917)" d="m0 0c0.66 0.33 1.32 0.66 2 1-0.33 0.66-0.66 1.32-1 2h-2c0.33-0.99 0.66-1.98 1-3z" fill="#4B4C4D"/>
<path transform="translate(737,855)" d="m0 0c2.48 0.495 2.48 0.495 5 1v1h-5v-2z" fill="#000102"/>
<path transform="translate(1070,554)" d="m0 0c0.33 0.99 0.66 1.98 1 3-0.66 0.66-1.32 1.32-2 2 0.33-1.65 0.66-3.3 1-5z" fill="#4B4C4D"/>
<path transform="translate(953,388)" d="m0 0v3c-0.99 0.495-0.99 0.495-2 1 0.66-1.32 1.32-2.64 2-4z" fill="#4B4C4D"/>
<path transform="translate(560,1175)" d="m0 0c0.99 0.33 1.98 0.66 3 1-0.99 0.33-1.98 0.66-3 1v-2z" fill="#000102"/>
<path transform="translate(1130,922)" d="m0 0c0.33 0.99 0.66 1.98 1 3h-2c0.33-0.99 0.66-1.98 1-3z" fill="#4B4C4D"/>
<path transform="translate(1177,891)" d="m0 0c0.33 0.66 0.66 1.32 1 2-1.32-0.33-2.64-0.66-4-1 0.99-0.33 1.98-0.66 3-1z" fill="#4B4C4D"/>
<path transform="translate(825,871)" d="m0 0h5v1h-5v-1z" fill="#000102"/>
<path transform="translate(1169,836)" d="m0 0h2c-0.33 1.32-0.66 2.64-1 4-0.33-1.32-0.66-2.64-1-4z" fill="#4B4C4D"/>
<path transform="translate(842,479)" d="m0 0 1 4z" fill="#4B4C4D"/>
<path transform="translate(909,1199)" d="m0 0c3 1 3 1 3 1z" fill="#000100"/>
<path transform="translate(685,1173)" d="m0 0c3 1 3 1 3 1z" fill="#000101"/>
<path transform="translate(1132,920)" d="m0 0c0.33 0.66 0.66 1.32 1 2-0.66-0.33-1.32-0.66-2-1 0.33-0.33 0.66-0.66 1-1z" fill="#4B4C4D"/>
<path transform="translate(1138,914)" d="m0 0c0.33 0.66 0.66 1.32 1 2-0.66-0.33-1.32-0.66-2-1 0.33-0.33 0.66-0.66 1-1z" fill="#4B4C4D"/>
<path transform="translate(1151,900)" d="m0 0c0.33 0.66 0.66 1.32 1 2-0.66-0.33-1.32-0.66-2-1 0.33-0.33 0.66-0.66 1-1z" fill="#4B4C4D"/>
<path transform="translate(725,853)" d="m0 0 2 2h-2v-2z" fill="#000102"/>
<path transform="translate(680,844)" d="m0 0c3 1 3 1 3 1z" fill="#000102"/>
<path transform="translate(1171,840)" d="m0 0c0.66 0.66 1.32 1.32 2 2h-2v-2z" fill="#4B4C4D"/>
<path transform="translate(1012,606)" d="m0 0c3 1 3 1 3 1z" fill="#000100"/>
<path transform="translate(354,1296)" d="m0 0 2 1z" fill="#000100"/>
<path transform="translate(501,1201)" d="m0 0 2 1z" fill="#2B2E2E"/>
<path transform="translate(826,1199)" d="m0 0 2 1z" fill="#000100"/>
<path transform="translate(691,1175)" d="m0 0 2 1z" fill="#000102"/>
<path transform="translate(570,1172)" d="m0 0 2 1z" fill="#4B4C4D"/>
<path transform="translate(567,1172)" d="m0 0 2 1z" fill="#2B2E2E"/>
<path transform="translate(596,1167)" d="m0 0 2 1z" fill="#000102"/>
<path transform="translate(590,1167)" d="m0 0 2 1z" fill="#000102"/>
<path transform="translate(1163,897)" d="m0 0 2 1z" fill="#000101"/>
<path transform="translate(746,885)" d="m0 0 2 1z" fill="#0C1010"/>
<path transform="translate(849,871)" d="m0 0 2 1z" fill="#0C1010"/>
<path transform="translate(784,862)" d="m0 0 2 1z" fill="#000102"/>
<path transform="translate(781,861)" d="m0 0 2 1z" fill="#000102"/>
<path transform="translate(1027,728)" d="m0 0 2 1z" fill="#4B4C4D"/>
</svg>
