<svg version="1.1" viewBox="0 0 1600 1296" width="80" height="80" xmlns="http://www.w3.org/2000/svg">
<path transform="translate(0)" d="m0 0h1600v1296h-1600v-1296z" fill="#FCFDFD"/>
<path transform="translate(1182,316)" d="m0 0c0.528 0.422 1.06 0.843 1.6 1.28 15.9 12.8 31.2 27.5 43.2 44.1 1.27 1.74 2.57 3.44 3.89 5.14 7.63 9.99 14.1 20.6 20.3 31.5 0.582 1.01 0.582 1.01 1.18 2.05 17.8 31.2 27.1 66.4 30.8 102 0.197 1.7 0.197 1.7 0.398 3.44 6.86 69.6-16.3 140-59.9 193-11.5 13.9-24.1 27.1-38.5 38.1-1.24 0.99-2.48 1.98-3.71 2.97-14.9 11.8-31 22.1-48.3 30.1-1.33 0.617-2.65 1.24-3.96 1.88-27.6 13.3-56.8 20.4-87.1 23.7-1.87 0.126-1.87 0.126-2.86 1.31 1.42 0.65 1.42 0.65 2.88 1.31 3.12 1.69 3.12 1.69 5.12 4.69 0.375 3.5 0.375 3.5 0 7-4.78 4.81-11.7 3.83-18 4-0.858 0.0272-1.72 0.0545-2.6 0.0825-25.9 0.72-51.3-2.14-76.6-7.5-4.6-0.946-9.22-1.77-13.8-2.59-0.346 1.52-0.346 1.52-0.699 3.08-6.09 26-19.8 45.7-42.3 60.2-27.5 16.9-58.9 20.6-90.1 13.2-26.9-7.09-51.7-26.1-65.9-49.9-1.18-2.07-2.34-4.15-3.48-6.24-1.43-2.65-1.43-2.65-4.51-4.4-2.91-0.192-5.72-0.265-8.63-0.247-1.34-0.00362-1.34-0.00362-2.7-0.00732-3-0.00565-6 0.00304-9 0.0116-2.15-0.00107-4.29-0.00301-6.44-0.00575-5.84-0.00486-11.7 0.00282-17.5 0.013-6.1 0.00876-12.2 0.00702-18.3 0.00664-10.2 9.37e-4 -20.5 0.00963-30.7 0.0233-11.9 0.0157-23.7 0.021-35.6 0.0203-11.4-6.09e-4 -22.8 0.00449-34.2 0.0128-4.86 0.00354-9.71 0.00536-14.6 0.00589-5.71 1e-3 -11.4 0.00708-17.1 0.0172-2.1 0.00293-4.2 0.00415-6.31 0.00357-2.86-4.87e-4 -5.71 0.00513-8.57 0.0124-0.843-0.00155-1.69-0.0031-2.56-0.00469-3.71-0.34-3.71-0.34-6.82 1.14-0.0958 1.87-0.185 3.75-0.239 5.62-0.715 23-7.73 41.8-24.5 58-17.9 15.8-37.9 19.8-61.3 18.3-16.9-1.99-31.6-10.7-44-22v-2h-2c-13.9-15.9-19.2-35.2-19.1-55.9 0.00451-1.07 0.00902-2.13 0.0137-3.23 0.0117-2.61 0.0281-5.22 0.0488-7.83-0.817-0.24-1.63-0.48-2.48-0.727-10.9-3.94-21-10.6-30.3-17.5-0.642-0.474-1.28-0.948-1.95-1.44-6.03-4.62-11.6-10.1-14.3-17.4 0.125-2.75 0.125-2.75 1-5 3.75-2.5 5.67-2.23 10.2-2.19 0.726 0.0028 1.45 0.00561 2.2 0.0085 1.58 0.0065 3.16 0.0171 4.73 0.0313 2.51 0.0195 5.02 0.0217 7.54 0.0181 7.15-0.00967 14.3-0.0107 21.4 0.0549 4.37 0.0389 8.75 0.0379 13.1 0.0124 1.65-0.00239 3.31 0.00935 4.96 0.0366 11.8 0.186 19.9-2.07 30.1-7.99 4.26-2.37 7.8-3.98 12.8-3.98-0.324-0.485-0.649-0.97-0.983-1.47-1.46-3.63-1.3-7.17-1.29-11-0.00511-0.854-0.0102-1.71-0.0155-2.59-0.0139-2.82-0.0129-5.64-0.0106-8.46-0.00389-1.96-0.00822-3.92-0.013-5.88-0.00746-4.11-0.00717-8.21-0.00191-12.3 0.0058-5.27-0.0112-10.5-0.0343-15.8-0.0147-4.05-0.0156-8.09-0.0125-12.1-5.14e-4 -1.94-0.00577-3.89-0.0158-5.83-0.0123-2.71-0.00561-5.42 0.00601-8.14-0.00764-0.806-0.0153-1.61-0.0232-2.44 0.0516-5.43 0.0516-5.43 1.8-7.88 7.24-4.67 17.7-5.35 26-6.91 1.36-0.26 2.72-0.52 4.09-0.781 10.3-1.96 20.7-3.83 31-5.61 5.05-0.88 10.1-1.83 15-3.03 9.82-2.29 19.7-4.2 29.6-6.16 2.15-0.43 4.31-0.859 6.46-1.29 5.66-1.13 11.3-2.26 17-3.38 8.98-1.79 18-3.58 26.9-5.37 2.17-0.433 4.34-0.866 6.51-1.3 10.2-2.03 20.4-4.06 30.5-6.18 1.05-0.219 1.05-0.219 2.13-0.443 3.12-0.651 6.23-1.31 9.35-1.97 1.55-0.327 1.55-0.327 3.13-0.66 0.875-0.187 1.75-0.373 2.65-0.565 2.19-0.389 2.19-0.389 5.19-0.389 2.24 3.36 2.25 4.44 2.25 8.37 0.00419 1.11 0.00839 2.23 0.0127 3.37-0.00562 1.22-0.0112 2.44-0.017 3.7 0.0019 1.29 0.0038 2.57 0.00575 3.9 0.00485 3.53-0.00281 7.06-0.013 10.6-0.00878 3.69-0.00702 7.38-0.00664 11.1-9.37e-4 6.19-0.00962 12.4-0.0233 18.6-0.0157 7.17-0.021 14.3-0.0203 21.5 6.09e-4 6.89-0.00449 13.8-0.0128 20.7-0.00354 2.94-0.00536 5.87-0.00589 8.81-0.00119 4.09-0.0109 8.18-0.0216 12.3 6.8e-4 1.84 6.8e-4 1.84 0.00137 3.72-0.00426 1.11-0.00853 2.22-0.0129 3.36-0.00168 0.969-0.00335 1.94-0.00508 2.94-0.129 2.18-0.129 2.18-1.13 3.18-2.33 0.0976-4.63 0.13-6.95 0.12-0.736 8.54e-4 -1.47 0.00171-2.23 0.00259-2.48 0.00166-4.97-0.00387-7.45-0.00932-1.77-2.82e-4 -3.55-1.24e-4 -5.32 4.43e-4 -4.83 2.88e-4 -9.66-0.00561-14.5-0.0126-5.04-0.00623-10.1-0.00684-15.1-0.00803-9.56-0.00311-19.1-0.0113-28.7-0.0213-10.9-0.0112-21.8-0.0167-32.6-0.0217-22.4-0.0105-44.8-0.0281-67.1-0.0503v2c1.2 0.351 2.39 0.701 3.62 1.06 6.22 2.06 15.7 5.24 20.4 9.94 3.13 0.111 6.25 0.155 9.38 0.158 0.997 0.00494 1.99 0.00988 3.02 0.015 3.37 0.0155 6.74 0.0238 10.1 0.0321 2.4 0.00957 4.81 0.0196 7.21 0.03 5.19 0.0215 10.4 0.0399 15.6 0.0556 7.5 0.0227 15 0.0508 22.5 0.0803 12.2 0.0477 24.3 0.091 36.5 0.131 11.8 0.0393 23.7 0.0808 35.5 0.125 1.09 0.00409 1.09 0.00409 2.21 0.00826 3.65 0.0137 7.31 0.0274 11 0.0411 30.3 0.114 60.7 0.221 91 0.323-0.00605-0.929-0.00605-0.929-0.0122-1.88-0.00314-0.812-0.00628-1.62-0.00951-2.46-0.00404-0.805-0.00807-1.61-0.0122-2.44 0.0367-2.4 0.322-4.58 0.882-6.91 0.189-0.791 0.378-1.58 0.573-2.4 0.212-0.816 0.423-1.63 0.642-2.47 0.223-0.868 0.447-1.74 0.677-2.63 6.18-22.9 20-48.6 41-61.2 3.25-1.62 3.25-1.62 6.25-1.62l-3-6c-21.6 10.9-37.3 25.4-45.3 48.6-2.95 8.97-4.31 18.1-5.39 27.5-0.417 2.68-0.978 4.54-2.79 6.58-3.85 2.02-7.25 2.02-11.5 1.31-3.22-1.01-5.11-2.17-7-5-4.48-18.2 6.82-43.5 15.7-58.9 3.94-6.46 8.96-11.8 14.3-17.1 0.695-0.717 1.39-1.43 2.11-2.17 7.84-7.58 18.6-14.1 28.9-17.8v-5c-2.71-1.07-3.84-1.06-6.63-0.0664-20.3 10.4-35.8 25-45.7 45.6-0.405 0.841-0.81 1.68-1.23 2.55-5.44 11.8-8.15 23.9-10.1 36.7-0.415 2.68-0.838 5.37-1.26 8.05-0.179 1.17-0.358 2.34-0.542 3.54-0.509 2.66-0.509 2.66-1.51 3.66-1.52 0.109-3.04 0.149-4.56 0.161-0.971 0.00961-1.94 0.0192-2.94 0.0291-1.06 0.00425-2.11 0.0085-3.2 0.0129-1.08 0.0057-2.16 0.0114-3.27 0.0173-2.29 0.00947-4.58 0.016-6.86 0.0198-3.51 0.00971-7.01 0.0407-10.5 0.0723-2.22 0.00653-4.44 0.0118-6.66 0.0156-1.05 0.0123-2.11 0.0247-3.19 0.0374-0.978-3e-3 -1.96-6e-3 -2.96-0.00909-0.861 0.00365-1.72 0.00729-2.61 0.011-2.76-0.458-3.48-1.2-5.21-3.37-0.399-1.9-0.399-1.9-0.433-4.11-0.02-0.855-0.04-1.71-0.0606-2.59-0.0066-0.956-0.0132-1.91-0.02-2.9-0.0182-1.04-0.0364-2.08-0.0552-3.15-0.0573-3.62-0.0904-7.25-0.122-10.9-0.0245-2-0.049-4-0.0741-5.99-0.527-43.1-0.366-86.1-0.236-129 0.00803-2.69 0.016-5.38 0.0239-8.07 0.00297-1 0.00297-1 0.00599-2.02 0.0319-11 0.0388-21.9 0.0365-32.9-0.00196-11.4 0.0191-22.8 0.061-34.2 0.0227-6.34 0.0358-12.7 0.0241-19-0.0104-5.92 0.00741-11.8 0.0468-17.7 0.00953-2.16 0.00896-4.32-0.00273-6.48-0.108-22.1-0.108-22.1 6.81-30.9 6.97-6.19 13.9-8.61 23.1-8.5 0.865-0.0054 1.73-0.0108 2.62-0.0164 2.83-0.0124 5.65 0.00393 8.48 0.022 1.98-1.55e-4 3.95-0.00165 5.93-0.00441 4.12-0.00138 8.25 0.0111 12.4 0.034 5.29 0.0285 10.6 0.0256 15.9 0.0129 4.07-0.00694 8.14 8.16e-4 12.2 0.0133 1.95 0.00452 3.9 0.00485 5.85 9.35e-4 2.72-0.0029 5.44 0.0135 8.16 0.0354 1.21-0.00675 1.21-0.00675 2.45-0.0136 5.4 0.0723 5.4 0.0723 7.95 1.77 0.967 1.65 0.967 1.65 0.807 4.44-0.867 3.31-1.98 6.36-3.28 9.52-2.07 5.22-3.46 10.2-4.56 15.7-1.76 1.76-4.25 1.15-6.63 1.17-1.81 0.0202-1.81 0.0202-3.65 0.0409-1.31 0.0104-2.63 0.0209-3.98 0.0316-1.35 0.0155-2.71 0.0317-4.06 0.0486-5.76 0.0708-11.5 0.131-17.3 0.182-3.52 0.0319-7.04 0.0732-10.6 0.12-1.99 0.0237-3.98 0.0367-5.98 0.0496-1.22 0.0166-2.44 0.0333-3.69 0.0504-1.07 0.0103-2.14 0.0206-3.24 0.0312-3.19 0.298-5.17 0.586-7.91 2.27-2.88 5.4-3.43 9.73-3.36 15.8-0.00256 0.859-0.00513 1.72-0.00777 2.6-0.00492 2.87 0.0115 5.73 0.028 8.6 8.47e-4 2.06 3.71e-4 4.12-0.00133 6.18-8.6e-4 5.58 0.0168 11.2 0.0377 16.8 0.0188 5.84 0.0205 11.7 0.0241 17.5 0.00932 11.1 0.0339 22.1 0.064 33.2 0.0335 12.6 0.05 25.2 0.0651 37.8 0.0314 25.9 0.0841 51.8 0.151 77.7h2c1.18-1.63 1.18-1.63 2.29-3.77 0.444-0.801 0.887-1.6 1.34-2.43 0.473-0.863 0.946-1.73 1.43-2.61 4.38-7.76 8.86-14.6 14.9-21.2 0.694-0.762 1.39-1.52 2.1-2.31 12.7-13.4 27.9-21.5 44.4-29.3 2.68-1.23 2.68-1.23 4.5-3.91 2.54-3.09 4.04-3.89 8-4.44 1.84 0.832 1.84 0.832 3.7 1.97 1.09 0.669 2.18 1.34 3.3 2.03-0.191-0.638-0.382-1.28-0.579-1.93-7.93-26.6-7.93-26.6-10.4-39.1-0.182-0.855-0.364-1.71-0.551-2.59-6.47-31.4-6.38-67.1 0.551-98.4 0.252-1.15 0.504-2.31 0.764-3.5 10.3-46.1 30.7-89.9 62.8-125 1.31-1.44 2.6-2.89 3.89-4.35 8.18-9.26 16.8-17.6 26.5-25.2 0.651-0.511 1.3-1.02 1.97-1.55 8.42-6.6 16.9-12.9 26-18.5 1-0.632 2-1.26 3.03-1.91 30.6-19.3 64.4-31.1 100-37.1 0.959-0.165 1.92-0.33 2.91-0.5 71.2-11.8 148 10.6 204 55.5z" fill="#3B5D35"/>
<path transform="translate(948,282)" d="m0 0c1.49 2.98 1.12 5.67 1.12 8.99 5.55e-4 0.732 0.00111 1.46 0.00168 2.22 6.47e-4 2.48-0.0059 4.96-0.0123 7.43-9.95e-4 1.78-0.00155 3.57-0.00169 5.35-0.00165 4.92-0.00954 9.85-0.0184 14.8-0.0084 5.3-0.011 10.6-0.0143 15.9-0.00631 9.19-0.0161 18.4-0.0279 27.6-0.0169 13.3-0.0265 26.6-0.0339 39.9-0.012 21.6-0.0269 43.2-0.0451 64.7-0.00109 1.29-0.00218 2.58-0.0033 3.92-0.0156 18.3-0.0342 36.7-0.054 55-0.00139 1.29-0.00279 2.58-0.00422 3.91-0.00139 1.29-0.00279 2.58-0.00422 3.91-0.023 21.5-0.0383 43-0.0473 64.5-0.00586 13.3-0.0183 26.5-0.039 39.8-0.0137 9.09-0.0202 18.2-0.021 27.3-7.06e-4 5.25-0.00474 10.5-0.0175 15.7-0.0116 4.8-0.014 9.6-0.00906 14.4 1.52e-4 1.74-0.00312 3.48-0.0101 5.22-0.00895 2.36-0.00565 4.72 7.85e-4 7.08-0.0013 1.31-0.0026 2.62-0.00394 3.98 0.241 3.3 0.676 5.49 2.25 8.4 3.22 2.15 4.27 2.38 8 2 2.56-2.56 2.24-4.25 2.27-7.74-0.00398-0.809-0.00796-1.62-0.0121-2.45 0.00368-0.857 0.00735-1.71 0.0111-2.6 0.01-2.89 0.00582-5.78 0.00182-8.67 0.00438-2.06 0.00969-4.13 0.0158-6.19 0.0115-4.45 0.017-8.91 0.0179-13.4 0.00194-7.04 0.02-14.1 0.0408-21.1 0.0493-17.5 0.0801-35 0.101-52.4 0.0165-13.6 0.0393-27.2 0.083-40.7 0.0218-7 0.0298-14 0.0276-21 0.00166-4.35 0.0157-8.7 0.0332-13 0.00562-2.02 0.00607-4.05 0.00106-6.07-0.0061-2.75 0.00602-5.51 0.0228-8.26-0.00621-0.807-0.0124-1.61-0.0188-2.45 0.0593-5.31 0.0593-5.31 1.63-7.87 2.3-1.3 3.85-1.37 6.5-1.36 1.46-0.00619 1.46-0.00619 2.94-0.0125 1.06 0.0108 2.13 0.0216 3.23 0.0327 1.12-4.38e-4 2.24-8.76e-4 3.4-0.00133 3.72 0.00209 7.43 0.0255 11.2 0.0489 2.57 0.00559 5.15 0.00986 7.72 0.0129 6.09 0.0103 12.2 0.0339 18.3 0.064 6.93 0.0335 13.9 0.05 20.8 0.0651 14.3 0.0314 28.5 0.0841 42.8 0.151 2.57 4.44 4.81 8.68 6.66 13.5 0.35 0.902 0.35 0.902 0.707 1.82 0.758 1.96 1.51 3.92 2.25 5.89 0.262 0.684 0.524 1.37 0.794 2.07 1.88 4.91 3.73 9.82 5.58 14.7 0.442 1.17 0.884 2.35 1.34 3.56 18.4 49.2 32 101 42.4 152 0.135 0.663 0.271 1.33 0.411 2.01 0.626 3.06 1.24 6.13 1.81 9.2 0.317 1.58 0.317 1.58 0.639 3.19 0.173 0.909 0.346 1.82 0.525 2.75 1.08 2.86 2.21 3.82 4.86 5.29 3.84-0.135 3.84-0.135 7-2 0.103-2.15 0.134-4.3 0.139-6.45 0.00426-1.03 0.00426-1.03 0.00861-2.08 0.0084-2.32 0.00962-4.65 0.0109-6.97 0.00456-1.67 0.00956-3.34 0.015-5.01 0.0136-4.62 0.021-9.23 0.0274-13.8 0.00798-4.97 0.0217-9.94 0.0347-14.9 0.0218-8.62 0.0399-17.2 0.0556-25.8 0.0227-12.5 0.0508-24.9 0.0803-37.4 0.0477-20.2 0.091-40.4 0.131-60.6 0.0393-19.6 0.0808-39.3 0.125-58.9 0.00409-1.81 0.00409-1.81 0.00826-3.67 0.0137-6.07 0.0274-12.1 0.0411-18.2 0.114-50.4 0.221-101 0.323-151 1.81-0.604 1.81-0.604 4-1 2.31 1.3 4.27 2.6 6.38 4.19 0.924 0.683 0.924 0.683 1.87 1.38 17 12.7 32.9 27.5 45.8 44.4 1.03 1.3 1.03 1.3 2.08 2.63 7.26 9.37 13.6 19.3 19.9 29.4 0.396 0.626 0.792 1.25 1.2 1.9 11.5 18.5 18.8 39.3 24.8 60.1 0.219 0.754 0.438 1.51 0.663 2.28 1.37 4.86 2.42 9.75 3.34 14.7 0.271 1.43 0.271 1.43 0.547 2.88 5.4 29.6 6 61.5 0.453 91.1-0.177 0.954-0.354 1.91-0.536 2.89-7.27 38.1-21.8 74.2-45.5 105-0.408 0.538-0.817 1.08-1.24 1.63-6.49 8.54-13.3 16.6-20.8 24.4-0.519 0.54-1.04 1.08-1.57 1.64-14.4 14.9-30.7 27.5-48.4 38.4-1.09 0.696-2.18 1.39-3.31 2.11-54.8 34.5-125 42.5-187 28.9-2.77-0.634-5.54-1.29-8.3-1.97-1.13-0.274-1.13-0.274-2.28-0.553-41.1-10.3-79.4-33.2-110-62.4-0.655-0.633-1.31-1.27-1.98-1.92-8.19-7.96-16.1-16-23-25.1-0.431-0.565-0.862-1.13-1.31-1.71-6.44-8.47-12.3-17.1-17.7-26.3-0.548-0.857-1.1-1.71-1.66-2.6-32.7-52.5-41-122-27.3-181 13.1-53.6 40.9-105 84-140 0.98-0.807 1.96-1.61 2.97-2.45 23.4-19 50.4-34.5 78.8-44.6 0.806-0.287 1.61-0.574 2.44-0.87 4.93-1.67 9.56-2.59 14.7-3.07z" fill="#FCFDFD"/>
<path transform="translate(1182,316)" d="m0 0c0.528 0.422 1.06 0.843 1.6 1.28 15.9 12.8 31.2 27.5 43.2 44.1 1.27 1.74 2.57 3.44 3.89 5.14 7.63 9.99 14.1 20.6 20.3 31.5 0.582 1.01 0.582 1.01 1.18 2.05 17.8 31.2 27.1 66.4 30.8 102 0.197 1.7 0.197 1.7 0.398 3.44 6.86 69.6-16.3 140-59.9 193-11.5 13.9-24.1 27.1-38.5 38.1-1.24 0.99-2.48 1.98-3.71 2.97-14.9 11.8-31 22.1-48.3 30.1-1.33 0.617-2.65 1.24-3.96 1.88-28.2 13.6-58 20.6-89 24-0.33 0.99-0.66 1.98-1 3-6.1 0.0501-12.2 0.0861-18.3 0.11-2.07 0.00994-4.13 0.0235-6.2 0.041-12.7 0.105-25-0.294-37.5-2.15-0.867-0.115-1.73-0.23-2.63-0.349-51.8-6.99-103-31.7-141-67.7-1.37-1.19-2.74-2.38-4.12-3.56-7.19-6.26-13.8-13.1-19.9-20.4-0.416-0.497-0.832-0.994-1.26-1.51-8.63-10.4-16.3-21.3-23.7-32.5-0.822-1.22-0.822-1.22-1.66-2.47-0.536-0.798-1.07-1.6-1.62-2.42-0.483-0.719-0.967-1.44-1.47-2.18-1.65-2.55-2.96-5.19-4.25-7.93-0.806-1.67-1.62-3.34-2.44-5-0.391-0.804-0.781-1.61-1.18-2.44-1.37-2.67-1.37-2.67-3.34-5.35-2.39-3.76-3.84-7.46-5.29-11.7-0.268-0.725-0.536-1.45-0.812-2.2-1.65-4.68-1.94-8.38-1.94-13.4-0.724-3.19-1.74-6.27-2.75-9.38-2.84-9.15-5.36-18.2-7.25-27.6-0.183-0.861-0.367-1.72-0.556-2.61-6.47-31.4-6.37-67.1 0.556-98.4 0.252-1.15 0.504-2.31 0.764-3.5 10.3-46.1 30.7-89.9 62.8-125 1.31-1.44 2.6-2.89 3.89-4.35 8.18-9.26 16.8-17.6 26.5-25.2 0.651-0.511 1.3-1.02 1.97-1.55 8.42-6.6 16.9-12.9 26-18.5 1.5-0.947 1.5-0.947 3.03-1.91 30.6-19.3 64.4-31.1 100-37.1 0.959-0.165 1.92-0.33 2.91-0.5 71.2-11.8 148 10.6 204 55.5zm-324 10c-0.94 0.726-1.88 1.45-2.85 2.2-14.4 11.5-27.7 24.4-39.2 38.8-0.784 0.967-1.57 1.93-2.38 2.93-33 41.5-52.8 95.1-54.6 148-0.0287 0.788-0.0574 1.58-0.0869 2.39-2.01 65.2 21.6 131 66.3 179 1.6 1.69 3.21 3.36 4.83 5.04 0.615 0.643 1.23 1.29 1.86 1.95 8.83 9.18 17.9 17.5 28.1 25.1 1.09 0.824 2.19 1.65 3.28 2.47 53.6 39.8 122 56.7 188 47.6 19.9-3.04 38.8-7.82 57.5-15 0.763-0.285 1.53-0.569 2.31-0.862 20.5-7.64 39.3-19.1 56.7-32.1 0.737-0.553 1.47-1.11 2.23-1.68 2.28-1.74 4.53-3.52 6.77-5.32 0.941-0.754 1.88-1.51 2.85-2.29 13.8-11.2 26.4-23.8 37-38.1 1.15-1.54 2.32-3.06 3.5-4.57 14.2-18.3 26-39.2 33.7-61l0.842-2.34c6.81-19.1 11.7-38.5 14.2-58.7 0.095-0.765 0.19-1.53 0.288-2.32 7.22-67.3-12-136-54.4-189-2.56-3.09-5.22-6.08-7.91-9.06-0.732-0.84-1.46-1.68-2.22-2.55-9.41-10.7-19.4-20.8-30.8-29.5-0.585-0.451-1.17-0.902-1.77-1.37-1.88-1.44-3.77-2.85-5.66-4.26-0.887-0.676-0.887-0.676-1.79-1.37-1.88-1.41-1.88-1.41-4.77-3.01-2.15 0.326-2.15 0.326-4 1-0.00147 1.28-0.00147 1.28-0.00296 2.59-0.0582 50.7-0.132 101-0.226 152-0.0113 6.08-0.0224 12.2-0.0335 18.2-0.0022 1.21-0.00441 2.42-0.00668 3.67-0.0354 19.6-0.0603 39.3-0.0812 58.9-0.0217 20.1-0.0548 40.3-0.0984 60.4-0.0266 12.4-0.0442 24.9-0.0506 37.3-0.00524 8.51-0.0214 17-0.0463 25.5-0.0141 4.92-0.0232 9.84-0.0193 14.8 0.00339 4.5-0.00683 8.99-0.0282 13.5-0.0053 1.63-0.00546 3.27-1.6e-4 4.9 0.00644 2.21-0.00528 4.41-0.0218 6.62-0.0019 1.23-0.0038 2.46-0.00575 3.73-0.125 0.939-0.25 1.88-0.379 2.85-3 2-3 2-6 1.94-3-0.938-3-0.938-4.57-2.99-1.73-3.58-2.5-7.13-3.23-11-0.332-1.67-0.664-3.35-0.997-5.02-0.174-0.889-0.347-1.78-0.526-2.69-7.71-39.2-17.6-78-30-116-0.691-2.13-1.37-4.27-2.05-6.4-5.38-16.9-11.3-33.5-17.7-50.1-0.328-0.861-0.655-1.72-0.993-2.61-0.932-2.44-1.87-4.88-2.82-7.32-0.278-0.728-0.555-1.46-0.841-2.2-1.41-3.58-2.7-6.73-5.35-9.56-2.2-0.597-2.2-0.597-4.71-0.501-1.45-0.0148-1.45-0.0148-2.93-0.0298-1.59 0.0145-1.59 0.0145-3.21 0.0293-1.12-0.0054-2.23-0.0108-3.39-0.0164-3.7-0.0125-7.41 0.00404-11.1 0.022-2.57-1.55e-4 -5.13-0.00164-7.7-0.00441-5.38-0.00139-10.8 0.0108-16.2 0.034-6.23 0.0266-12.5 0.0284-18.7 0.0166-5.99-0.0108-12-0.00449-18 0.00956-2.55 0.00453-5.1 0.00484-7.65 9.35e-4 -3.56-0.0029-7.12 0.0135-10.7 0.0354-1.06-0.0045-2.12-9e-3 -3.21-0.0136-0.967 0.0099-1.93 0.0198-2.93 0.03-1.26 0.00364-1.26 0.00364-2.55 0.00736-2.17 0.259-2.17 0.259-3.93 1.38-1.98 3.22-1.64 6.64-1.62 10.3-0.00524 0.859-0.0105 1.72-0.0159 2.6-0.014 2.89-0.00665 5.78 5e-4 8.66-0.00574 2.07-0.0128 4.13-0.0211 6.2-0.0151 4.45-0.0209 8.91-0.0195 13.4 0.00203 7.04-0.0175 14.1-0.0402 21.1-0.041 13.7-0.0596 27.3-0.0762 41-0.0223 17.4-0.0558 34.8-0.107 52.2-0.02 7-0.0295 14-0.031 21-0.00274 4.35-0.0136 8.69-0.0265 13-0.0043 2.02-0.00513 4.05-0.00233 6.07 0.00338 2.75-0.00533 5.5-0.0171 8.25 0.00398 0.809 0.00796 1.62 0.0121 2.45-0.0422 5.51-0.0422 5.51-2.27 7.74-6.46-0.462-6.46-0.462-9-3-1.36-3.67-1.12-7.42-1.12-11.3-0.00115-0.739-0.00231-1.48-0.0035-2.24-0.00266-2.49 0.00185-4.98 0.00629-7.47-4.36e-4 -1.8-0.00131-3.6-0.00259-5.39-0.00224-4.95 0.00177-9.9 0.00678-14.9 0.00431-5.33 0.00286-10.7 0.0021-16-5.25e-4 -9.25 0.00262-18.5 0.00824-27.7 0.00812-13.4 0.0107-26.7 0.012-40.1 0.00219-21.7 0.00885-43.4 0.0183-65.1 0.00918-21.1 0.0163-42.1 0.0205-63.2 2.63e-4 -1.3 5.25e-4 -2.6 7.96e-4 -3.93 0.00131-6.51 0.00257-13 0.00381-19.5 0.0104-54.1 0.028-108 0.0503-162-31.2 0-67.3 25.6-91 44z" fill="#3B5D35"/>
<path transform="translate(1051,274)" d="m0 0c1.42 0.25 1.42 0.25 2.87 0.505 69.1 12.5 69.1 12.5 88.1 31.5 0.256 2.33 0.256 2.33 0.265 5.33 0.00808 1.14 0.0162 2.28 0.0245 3.45-0.00125 1.26-0.00251 2.52-0.0038 3.82 0.00571 1.34 0.0123 2.69 0.0197 4.03 0.0178 3.71 0.0231 7.41 0.0264 11.1 0.00573 3.99 0.0229 7.99 0.0387 12 0.0291 7.83 0.0475 15.7 0.0623 23.5 0.0177 9.12 0.0457 18.2 0.0741 27.3 0.0504 16.3 0.0911 32.5 0.127 48.8 0.0344 15.8 0.0758 31.6 0.125 47.4 0.00303 0.971 0.00605 1.94 0.00917 2.94 0.00302 0.969 0.00604 1.94 0.00916 2.94 0.0559 18 0.105 35.9 0.151 53.9 0.0165 6.35 0.0349 12.7 0.0541 19.1 0.0232 7.75 0.0425 15.5 0.057 23.2 0.00747 3.95 0.0165 7.9 0.03 11.9 0.0123 3.62 0.0199 7.24 0.0237 10.9 0.00322 1.92 0.0114 3.85 0.0198 5.77 0.00142 6.33-0.265 12.4-1.11 18.7-0.99-0.33-1.98-0.66-3-1-0.824-1.79-0.824-1.79-1.47-4.19-0.254-0.909-0.509-1.82-0.771-2.75-0.27-1.01-0.541-2.02-0.819-3.06-0.619-2.21-1.24-4.42-1.86-6.63-0.333-1.19-0.667-2.39-1.01-3.61-18.5-65.4-43.3-128-73.1-189-0.837-1.71-1.67-3.42-2.5-5.14-6.44-13.2-13.4-26.1-20.7-38.8-1.69-2.96-3.37-5.94-5.03-8.92-5.84-10.4-11.8-20.8-18.3-30.9-1.55-2.42-3.08-4.85-4.61-7.28-11-17.4-22.3-34.6-34.2-51.3-0.426-0.603-0.851-1.21-1.29-1.83-0.818-1.15-1.65-2.3-2.49-3.43-1.14-1.59-1.14-1.59-2.74-4.3 0.33-0.99 0.66-1.98 1-3 21.5-10.3 59.1-7.06 82-3z" fill="#FCFDFD"/>
<path transform="translate(626,628)" d="m0 0c1 1 1 1 1.12 2.97-9.22e-4 0.869-0.00184 1.74-0.00279 2.63 0.00206 1.49 0.00206 1.49 0.00417 3.01-0.0036 1.1-0.00719 2.2-0.0109 3.33 1.46e-4 1.15 2.92e-4 2.3 4.43e-4 3.49-7e-4 3.83-0.00849 7.65-0.0163 11.5-0.00186 2.64-0.00329 5.29-0.00429 7.93-0.00311 6.26-0.0113 12.5-0.0213 18.8-0.0112 7.13-0.0167 14.3-0.0217 21.4-0.0105 14.7-0.0281 29.3-0.0503 44-26.3 0.0233-52.6 0.041-79 0.0518-12.2 0.00516-24.4 0.0122-36.7 0.0236-10.6 0.00994-21.3 0.0164-31.9 0.0186-5.64 0.00131-11.3 0.0044-16.9 0.0116-5.3 0.00676-10.6 0.00889-15.9 0.00738-1.95 2.76e-4 -3.9 0.00228-5.86 0.0061-2.65 0.00493-5.31 0.00379-7.96 0.00105-0.783 0.00291-1.57 0.00583-2.37 0.00883-5.3-0.015-5.3-0.015-6.42-1.13-0.116-2.39-0.168-4.75-0.177-7.13-0.00657-0.746-0.0131-1.49-0.0199-2.26-0.0198-2.48-0.0314-4.96-0.0414-7.44-0.00408-0.845-0.00815-1.69-0.0124-2.56-0.0209-4.47-0.0352-8.94-0.0445-13.4-0.0111-4.63-0.0455-9.25-0.0852-13.9-0.0261-3.55-0.0345-7.1-0.0381-10.6-0.00488-1.71-0.0165-3.41-0.035-5.12-0.0243-2.38-0.0235-4.77-0.0165-7.15-0.0128-0.708-0.0256-1.42-0.0388-2.14 0.0317-2.97 0.121-4.79 2.07-7.1 3.22-1.51 6.45-2.23 9.91-2.88 0.749-0.148 1.5-0.297 2.27-0.45 2.48-0.489 4.96-0.963 7.45-1.44 1.75-0.342 3.5-0.684 5.24-1.03 4.62-0.905 9.24-1.8 13.9-2.69 4.6-0.888 9.21-1.79 13.8-2.69 12.9-2.52 25.8-5.02 38.8-7.49 11-2.11 22.1-4.28 33-6.68 13.9-2.99 27.8-5.8 41.7-8.56 2.3-0.457 4.61-0.916 6.91-1.38 3.25-0.651 6.51-1.29 9.76-1.93 0.975-0.197 1.95-0.393 2.95-0.596 5-0.971 9.63-1.67 14.7-1.35z" fill="#FCFDFD"/>
<path transform="translate(452,763)" d="m0 0c0.859 0.268 1.72 0.536 2.6 0.812 17.5 5.92 30.9 16.6 39.5 33.1 8.63 17.6 10.4 36.9 4.19 55.7-3.67 9.22-8.84 18.7-16.3 25.4h-2c-0.495 1.49-0.495 1.49-1 3-13.2 12.2-31.6 15.7-48.9 15.3-16.6-0.75-30.8-8.44-43.1-19.3-0.624-0.518-1.25-1.04-1.89-1.57-9.87-8.85-16.2-23.5-18.1-36.4-0.166-3.27-0.185-6.54-0.188-9.81-0.0122-0.864-0.0245-1.73-0.0371-2.62-0.0371-16.4 8.05-33.7 19.2-45.6 17.6-15.6 42.6-25.4 66-18z" fill="#FDFDFD"/>
<path transform="translate(963,299)" d="m0 0c3.96 1.32 5.29 3.82 7.56 7.12 0.659 0.942 0.659 0.942 1.33 1.9 1.38 1.98 2.75 3.98 4.11 5.97 0.412 0.602 0.824 1.2 1.25 1.82 6.11 8.97 11.9 18.1 17.7 27.3 1.97 3.14 3.95 6.27 5.96 9.38 17.7 27.5 33.2 56.4 48.1 85.5 0.686 1.33 0.686 1.33 1.39 2.68 5.56 10.8 10.8 21.7 15.9 32.8 0.583 1.28 1.17 2.56 1.76 3.84 0.825 1.8 1.64 3.6 2.45 5.41 0.469 1.04 0.939 2.08 1.42 3.15 1.23 3.38 1.67 6.55 2.13 10.1-11.4 0.155-22.8 0.303-34.2 0.443-5.29 0.0651-10.6 0.132-15.9 0.205-5.12 0.0704-10.2 0.134-15.4 0.195-1.94 0.0238-3.87 0.0496-5.81 0.0778-10 0.144-20 0.139-30-0.288-1.28-0.0469-1.28-0.0469-2.59-0.0948-5.95-0.299-5.95-0.299-8.19-2.54-0.195-2.57-0.265-5.03-0.247-7.6-0.00241-0.793-0.00483-1.59-0.00732-2.4-0.00566-2.67 0.00304-5.34 0.0116-8.02-0.00107-1.91-0.00301-3.82-0.00575-5.73-0.00486-5.2 0.00282-10.4 0.013-15.6 0.00876-5.43 0.00702-10.9 0.00664-16.3 9.37e-4 -9.12 0.00963-18.2 0.0233-27.4 0.0157-10.6 0.021-21.1 0.0203-31.7-6.09e-4 -10.1 0.00449-20.3 0.0128-30.4 0.00354-4.32 0.00536-8.65 0.00589-13 1e-3 -5.08 0.00708-10.2 0.0172-15.3 0.00293-1.87 0.00415-3.74 0.00357-5.62-4.87e-4 -2.54 0.00513-5.09 0.0124-7.63-0.00232-1.13-0.00232-1.13-0.00469-2.27 0.0242-5.08 0.0242-5.08 1.14-6.2z" fill="#FCFDFD"/>
<path transform="translate(779,690)" d="m0 0c2.01 2.17 2.01 2.17 4.12 5.19 0.781 1.1 1.56 2.19 2.35 3.29 0.408 0.575 0.815 1.15 1.23 1.74 1.33 1.83 2.7 3.6 4.1 5.37 0.459 0.581 0.919 1.16 1.39 1.76 0.896 1.13 1.8 2.25 2.7 3.37 3.1 3.95 3.1 3.95 3.1 7.28-2.38 1.58-2.38 1.58-5.56 3.25-9.38 5.27-14.6 11.9-20.4 20.8-0.454 0.624-0.908 1.25-1.38 1.89-9.6 13.8-11.8 33-8.94 49.4 2.54 10.4 6.65 19.4 13.3 27.8 0.759 0.98 1.52 1.96 2.3 2.97 2.75 3.27 5.89 5.67 9.39 8.09 0.925 0.648 0.925 0.648 1.87 1.31 16.7 11.5 35.3 15.2 55.4 11.6 19.8-4.73 34.5-16.9 45.1-34 3.58-6.88 5-15.3 5-23 3.67 0.633 6.92 1.65 10.4 3.03 1 0.398 2.01 0.797 3.04 1.21 1.04 0.416 2.07 0.833 3.14 1.26 2.06 0.825 4.13 1.65 6.19 2.47 0.911 0.365 1.82 0.731 2.76 1.11 2.42 0.963 2.42 0.963 4.75 1.43 0.859 0.247 0.859 0.247 1.73 0.498 3.01 6.02 0.91 13.4-1.06 19.4-7.31 21.1-26 38.6-45.8 48.5-4.3 2.01-8.69 3.61-13.2 5.09-1.2 0.414-2.4 0.828-3.64 1.25-9.53 2.92-19.2 3.14-29.1 3.18-1.94 0.0152-1.94 0.0152-3.92 0.0308-25.4-0.229-47.4-10.1-66.4-26.5-0.857-0.673-1.71-1.35-2.6-2.04-18.2-14.9-28.6-40.5-31.1-63.3-2.1-27.6 4.88-53.8 22.2-75.6 1.48-1.71 2.98-3.39 4.5-5.06 0.731-0.824 1.46-1.65 2.21-2.5 5.71-6.11 12.1-11.5 20.8-11.5z" fill="#FCFDFD"/>
<path transform="translate(650 937)" d="m0 0c9.52 0.26 9.52 0.26 13.1 3.21 2.53 3.1 4.47 6.2 6.4 9.71 1.33 1.85 2.68 3.68 4.06 5.5 0.642 0.898 1.28 1.8 1.95 2.72 2.11 2.93 4.26 5.83 6.43 8.71 0.74 0.986 1.48 1.97 2.24 2.99 1.62 2.15 3.25 4.29 4.89 6.43 0.417 0.547 0.834 1.09 1.26 1.66 1.17 1.53 2.34 3.06 3.51 4.59 1.65 2.4 1.65 2.4 1.65 4.4 1.49 0.495 1.49 0.495 3 1 0.33 0.99 0.66 1.98 1 3 2.5 1.7 2.5 1.7 5 3-0.00444-0.615-0.00888-1.23-0.0135-1.86-0.0443-6.41-0.0744-12.8-0.0964-19.2-0.0101-2.39-0.0237-4.78-0.041-7.17-0.0243-3.44-0.0356-6.88-0.0444-10.3-0.0103-1.07-0.0206-2.14-0.0313-3.24-1.51e-4 -1-3.02e-4 -2-4.58e-4 -3.03-0.00444-0.877-0.00888-1.75-0.0135-2.66 0.297-3.09 0.98-6.24 3.24-8.5 2.21-0.1 4.42-0.131 6.62-0.133 0.662-9.57e-4 1.32-0.00191 2.01-0.0029 1.4-6.82e-4 2.8 0.00117 4.21 0.00534 2.15 0.00535 4.31 5.44e-5 6.46-0.00635 1.36 6.61e-4 2.72 0.00194 4.08 0.00391 1.87 0.00169 1.87 0.00169 3.77 0.00342 2.85 0.129 2.85 0.129 3.85 1.13 0.0958 1.53 0.122 3.07 0.12 4.6 0.00206 1.49 0.00206 1.49 0.00417 3.01-0.00539 1.65-0.00539 1.65-0.0109 3.33 1.46e-4 1.15 2.92e-4 2.3 4.43e-4 3.49-7e-4 3.83-0.00849 7.65-0.0163 11.5-0.00186 2.64-0.00329 5.29-0.00429 7.93-0.00311 6.26-0.0113 12.5-0.0213 18.8-0.0112 7.13-0.0167 14.3-0.0217 21.4-0.0105 14.7-0.0281 29.3-0.0503 44-4.4 0.116-8.79 0.187-13.2 0.25-1.25 0.0335-2.49 0.067-3.78 0.102-1.8 0.0193-1.8 0.0193-3.64 0.0391-1.66 0.0314-1.66 0.0314-3.35 0.0635-4.41-0.658-6.76-2.91-9.56-6.26-0.413-0.609-0.826-1.22-1.25-1.84-0.474-0.687-0.948-1.37-1.44-2.08-0.492-0.727-0.983-1.45-1.49-2.2-1.06-1.54-2.12-3.07-3.19-4.6-0.789-1.14-0.789-1.14-1.59-2.29-2.92-4.14-6.04-8.11-9.16-12.1-2.39-3.08-4.73-6.19-7.06-9.31-2.74-3.66-5.48-7.31-8.25-10.9-0.545-0.715-1.09-1.43-1.65-2.17-1.33-1.77-1.33-1.77-3.41-2.64v56c-5.42 0.0206-10.8 0.0412-16.4 0.0625-1.71 0.0091-3.43 0.0182-5.19 0.0276-1.35 0.00292-2.7 0.00547-4.05 0.00757-0.707 0.00512-1.41 0.0102-2.14 0.0155-1.72 3.11e-4 -3.45-0.0509-5.17-0.113-1.93-1.93-1.41-5.42-1.55-8.06-0.0421-0.719-0.0842-1.44-0.128-2.18-0.414-7.61-0.464-15.2-0.451-22.8-6.78e-4 -1.5-0.00165-3-0.0029-4.5-0.00146-3.13 6.2e-4 -6.25 0.00534-9.38 0.00563-3.91 0.00234-7.82-0.00342-11.7-0.0194-15.3 0.069-30.6 0.517-46 0.0304-1.23 0.0607-2.45 0.092-3.72 0.0381-1.11 0.0762-2.23 0.116-3.38 0.0306-0.973 0.0613-1.95 0.0928-2.95 0.992-7.24 12.3-5.16 17.8-5.23z" fill="#3B5D35"/>
<path transform="translate(669 442)" d="m0 0c1.14-0.00307 1.14-0.00307 2.3-0.0062 2.49-0.00299 4.98 0.0154 7.47 0.0345 1.74 0.00306 3.47 0.00493 5.21 0.00568 3.63 0.00459 7.25 0.019 10.9 0.0412 4.66 0.0284 9.31 0.0392 14 0.0437 3.58 0.00415 7.16 0.014 10.7 0.0259 1.72 0.00571 3.44 0.0105 5.16 0.0143 2.39 0.00684 4.78 0.0205 7.17 0.0363 0.715 0.00112 1.43 0.00224 2.17 0.00339 4.88 0.043 4.88 0.043 6 1.16-0.471 5.65-2.08 10.7-4 16-8.45 0.733-16.9 1.04-25.3 0.996-0.742-0.00353-1.48-0.00707-2.25-0.0107-3.77-0.0211-7.53-0.0571-11.3-0.11-12.9-0.287-12.9-0.287-25 3.69-10.7 12.2-7.24 32.7-7.15 47.8 0.0102 2.35 0.0199 4.69 0.0291 7.04 0.0263 6.34 0.0591 12.7 0.0931 19 0.031 5.96 0.0571 11.9 0.0832 17.9 0.0519 11.8 0.108 23.6 0.168 35.4 0.0578 11.5 0.113 22.9 0.166 34.4 0.00325 0.707 0.0065 1.41 0.00985 2.14 0.0163 3.55 0.0325 7.1 0.0488 10.6 0.134 29.4 0.277 58.8 0.424 88.2 1.98 0.66 3.96 1.32 6 2 0.00258-0.562 0.00516-1.12 0.00781-1.7 1.18-25.7 15.1-53.2 33.5-70.7 3.37-3.03 6.9-5.82 10.5-8.56 0.81-0.636 1.62-1.27 2.45-1.93 4.82-3.6 9.88-6.38 15.3-8.95 0.626-0.299 1.25-0.597 1.9-0.905 3.77-1.72 7.24-2.73 11.4-3.22 3.05 3.75 4.6 7.11 5.61 11.8-0.605 3.17-0.605 3.17-2.23 4.56-2.37 1.44-4.78 2.72-7.25 3.99-1.76 0.959-3.52 1.92-5.27 2.89-1.27 0.699-1.27 0.699-2.56 1.41-4.54 2.61-8.45 5.79-12.3 9.32-0.813 0.733-1.63 1.47-2.46 2.22-19.9 18.9-28.7 43.4-33.5 69.8-0.657 3.34-1.33 6.67-2 10-5.39 0.0246-10.8 0.0428-16.2 0.0549-1.84 0.00504-3.67 0.0119-5.51 0.0205-2.63 0.0121-5.27 0.0178-7.9 0.0222-1.24 0.00774-1.24 0.00774-2.5 0.0156-1.97 1.96e-4 -3.94-0.0513-5.91-0.113-1.61-1.61-1.13-3.34-1.13-5.56-0.00322-0.993-0.00645-1.99-0.00977-3.01 0.00155-1.1 0.0031-2.21 0.00469-3.34-0.00227-1.16-0.00453-2.32-0.00687-3.52-0.00526-3.24-0.00598-6.48-0.00481-9.72 2.03e-4 -3.49-0.00531-6.98-0.0101-10.5-0.00832-6.85-0.0111-13.7-0.0116-20.5-4.75e-4 -5.57-0.00253-11.1-0.0057-16.7-0.00881-15.8-0.0134-31.6-0.0127-47.3 4e-5 -0.851 7.99e-5 -1.7 1.21e-4 -2.58 6.13e-5 -1.28 6.13e-5 -1.28 1.24e-4 -2.58 4.06e-4 -13.8-0.00915-27.6-0.0233-41.4-0.0144-14.2-0.0213-28.3-0.0204-42.5 3.32e-4 -7.95-0.00241-15.9-0.0132-23.9-0.00911-6.78-0.0113-13.6-0.00449-20.3 0.00326-3.46 0.00333-6.91-0.00535-10.4-0.00771-3.75-0.00308-7.5 0.00463-11.3-0.00514-1.09-0.0103-2.17-0.0156-3.29 0.0733-16.1 0.0733-16.1 4.95-21.5 0.458-0.534 0.915-1.07 1.39-1.62 5.2-4.07 10.4-4.95 16.9-4.86z" fill="#FCFDFD"/>
<path transform="translate(886 938)" d="m0 0c0.893-0.0131 1.79-0.0261 2.71-0.0396 0.841-0.00113 1.68-0.00226 2.55-0.00342 1.14-0.00616 1.14-0.00616 2.3-0.0125 1.89 0.243 1.89 0.243 3.89 2.24 0.163 2.51 0.207 4.91 0.16 7.42-0.0052 0.738-0.0104 1.48-0.0158 2.24-0.0178 2.36-0.049 4.73-0.0819 7.09-0.0277 2.35-0.0525 4.7-0.0712 7.05-0.0121 1.46-0.0296 2.93-0.0533 4.39-0.0393 4.05 0.27 7.84 1.06 11.8 9.98 0.583 9.98 0.583 19-3 3.91-5.91 6.16-12.4 8.56-19 6.85-18.7 6.85-18.7 9.44-20 1.55-0.096 3.1-0.131 4.66-0.133 0.941-0.00129 1.88-0.00258 2.85-0.00391 1.48 0.0058 1.48 0.0058 2.99 0.0117 0.956-0.00387 1.91-0.00773 2.9-0.0117 16.4 0.0222 16.4 0.0222 20.6 2.14-2.42 8.92-5.75 17.5-9.12 26.1-0.285 0.731-0.57 1.46-0.863 2.22-3.62 9.27-7.31 18.3-12.7 26.7-1.24 1.92-1.24 1.92-2.28 4.98 1.81 4.95 4.25 9.55 6.73 14.2 0.354 0.667 0.708 1.33 1.07 2.02 0.747 1.41 1.5 2.81 2.25 4.22 1.12 2.1 2.24 4.2 3.35 6.31 0.734 1.38 1.47 2.76 2.21 4.14 0.361 0.678 0.722 1.36 1.09 2.05 1.82 3.39 3.68 6.75 5.63 10.1 0.372 0.636 0.745 1.27 1.13 1.93 1.02 1.74 2.06 3.46 3.1 5.19 1.44 2.88 1.44 2.88 1.44 6.88-5.2 0.099-10.4 0.172-15.6 0.22-1.77 0.0201-3.53 0.0474-5.3 0.082-2.54 0.0486-5.08 0.0712-7.63 0.0889-1.18 0.031-1.18 0.031-2.39 0.0626-3.45 0.00141-5.61-0.106-8.45-2.15-1.73-2.43-3.11-4.8-4.41-7.48-0.493-1-0.986-2.01-1.49-3.04-0.511-1.06-1.02-2.12-1.55-3.21-1.06-2.17-2.13-4.34-3.2-6.51-0.512-1.04-1.02-2.09-1.55-3.16-3.2-6.44-6.44-12.9-10.4-18.9-2.63-0.403-2.63-0.403-5.56-0.25-1.49 0.0232-1.49 0.0232-3 0.0469-2.38-0.0651-2.38-0.0651-3.43 1.2-0.147 2.06-0.228 4.13-0.281 6.2-0.0374 1.29-0.0748 2.58-0.113 3.91-0.0356 1.38-0.0707 2.76-0.105 4.13-0.254 9.61-0.658 19.2-1.5 28.8-4.68 0.0247-9.36 0.0428-14 0.0549-1.59 0.00504-3.19 0.0119-4.78 0.0205-2.29 0.0121-4.57 0.0178-6.86 0.0222-0.717 0.00516-1.43 0.0103-2.17 0.0156-1.72 1.96e-4 -3.43-0.0514-5.14-0.113-1.6-1.6-1.13-3.26-1.13-5.47-0.00426-0.966-0.00853-1.93-0.0129-2.93 4.53e-4 -1.07 9.06e-4 -2.14 0.00137-3.24-0.00336-1.12-0.00672-2.24-0.0102-3.39-0.00954-3.72-0.0115-7.44-0.0125-11.2-0.00321-2.57-0.00657-5.14-0.0101-7.72-6e-3 -5.4-0.00788-10.8-0.00725-16.2 6.01e-4 -6.25-0.00995-12.5-0.0257-18.7-0.0146-6-0.0182-12-0.0176-18-0.00118-2.56-0.00563-5.12-0.0133-7.67-0.00974-3.57-0.00694-7.14-8.95e-4 -10.7-0.00562-1.07-0.0112-2.13-0.017-3.23 0.00419-0.969 0.00839-1.94 0.0127-2.94-5.45e-4 -0.845-0.00109-1.69-0.00165-2.56 0.249-2.04 0.249-2.04 2.25-4.04 6.95-1.52 14.5-1.13 21.6-1.19z" fill="#3B5D35"/>
<path transform="translate(998 938)" d="m0 0c0.681 0.0241 1.36 0.0481 2.07 0.0729 1.44 0.0536 2.87 0.115 4.31 0.182 2.21 0.104 4.41 0.186 6.62 0.264 10.8 0.423 10.8 0.423 12 1.59 0.108 2.19 0.146 4.38 0.158 6.56 0.00508 0.686 0.0102 1.37 0.0154 2.08 0.0107 1.5 0.0193 2.99 0.0261 4.49 0.0118 2.38 0.0312 4.75 0.0531 7.13 0.0616 6.76 0.115 13.5 0.149 20.3 0.0211 4.13 0.0565 8.26 0.101 12.4 0.0141 1.57 0.0229 3.14 0.0261 4.71-0.309 12.6-0.309 12.6 3.47 24.4 1.92 1.23 1.92 1.23 4 2 0.775 0.362 1.55 0.724 2.35 1.1 5.4 1.84 12.5 2.33 17.8-0.043 3.21-2.53 4.7-5.24 5.89-9.05 0.19-2.47 0.273-4.95 0.287-7.42 0.00683-0.729 0.0137-1.46 0.0207-2.21 0.0135-1.58 0.0226-3.15 0.0277-4.73 0.00831-2.49 0.0288-4.98 0.0525-7.48 0.0563-6.18 0.0917-12.4 0.128-18.6 0.0312-5.23 0.0703-10.5 0.12-15.7 0.0201-2.46 0.0284-4.92 0.0363-7.38 0.013-1.5 0.0265-3 0.0406-4.5 0.00729-1.31 0.0146-2.63 0.0221-3.98 0.265-3.05 0.265-3.05 2.27-5.05 6.56-1.45 13.3-1.11 19.9-1.06 1.16 0.00451 2.32 0.00902 3.52 0.0137 2.85 0.0117 5.7 0.0281 8.54 0.0488 1.41 2.81 1.14 5.16 1.15 8.31 0.00336 0.648 0.00672 1.3 0.0102 1.96 0.00953 2.15 0.0115 4.3 0.0125 6.46 0.00322 1.51 0.00658 3.01 0.0101 4.52 6e-3 3.17 0.00784 6.34 0.00725 9.51-1.01e-4 4.02 0.0134 8.03 0.0308 12 0.0113 3.12 0.0131 6.24 0.0126 9.36 0.00116 1.48 0.00549 2.95 0.0133 4.43 0.081 16.9-0.108 35.9-11.4 49.6-10.8 10.8-24.5 15.6-39.5 16.2-15.8-0.428-29.6-4.91-41.2-16-14-15.1-13.3-36.2-13.3-55.4-0.00283-0.678-0.00565-1.36-0.00857-2.05-0.0148-3.56-0.0242-7.13-0.0285-10.7-0.00556-3.67-0.0298-7.34-0.058-11-0.0186-2.84-0.0238-5.68-0.0254-8.52-0.00448-2.01-0.0231-4.02-0.042-6.03 3e-3 -1.21 6e-3 -2.43 0.00909-3.67-0.00365-1.07-0.00729-2.13-0.011-3.23 0.367-2.65 0.367-2.65 1.69-4.5 2.78-1.9 5.42-1.39 8.71-1.26z" fill="#3B5D35"/>
<path transform="translate(549 938)" d="m0 0c1.03 0.00212 1.03 0.00212 2.08 0.00429 2.19 0.0056 4.38 0.0182 6.57 0.0309 1.48 0.00501 2.97 0.00958 4.45 0.0137 3.64 0.011 7.28 0.0283 10.9 0.0488 3.28 6.27 5.91 12.7 8.41 19.3 0.415 1.08 0.829 2.17 1.26 3.28 1.32 3.46 2.64 6.92 3.95 10.4 1.72 4.51 3.44 9.02 5.16 13.5 0.429 1.12 0.857 2.24 1.3 3.4 4.16 10.8 8.48 21.6 12.8 32.4 2.36 5.89 4.69 11.8 6.99 17.7 0.511 1.31 1.03 2.63 1.54 3.94 0.773 1.97 1.54 3.93 2.3 5.9l1.33 3.41c0.943 2.79 0.943 2.79 0.943 5.79-4.95 0.0247-9.9 0.0429-14.8 0.0549-1.68 0.00503-3.37 0.0119-5.05 0.0205-2.42 0.0121-4.84 0.0178-7.25 0.0222-0.755 0.00516-1.51 0.0103-2.29 0.0156-5.34 5.75e-4 -5.34 5.75e-4 -7.56-1.11-0.926-2.09-1.77-4.23-2.56-6.38-0.652-1.74-0.652-1.74-1.32-3.52-0.732-2.03-1.44-4.06-2.12-6.1-5.21 0.0688-10.4 0.157-15.6 0.262-1.77 0.0333-3.55 0.0613-5.32 0.084-2.55 0.0335-5.1 0.0858-7.65 0.142-1.19 0.00958-1.19 0.00958-2.41 0.0194-4.52 0.121-5.65 0.158-8.98 3.49-1.65 4.29-3.3 8.58-5 13h-35c-1.13-3.4-0.913-3.91 0.345-7.11 0.323-0.834 0.646-1.67 0.979-2.53 0.364-0.91 0.727-1.82 1.1-2.76 0.374-0.959 0.749-1.92 1.13-2.91 1.24-3.17 2.5-6.34 3.75-9.51 0.866-2.21 1.73-4.41 2.59-6.62 1.79-4.57 3.59-9.15 5.39-13.7 2.58-6.54 5.14-13.1 7.69-19.6 7.98-20.5 7.98-20.5 12-30.6 1.09-2.78 2.17-5.57 3.25-8.35 0.723-1.84 1.45-3.69 2.17-5.53 0.333-0.864 0.666-1.73 1.01-2.62 0.311-0.789 0.623-1.58 0.944-2.39 0.272-0.698 0.544-1.4 0.824-2.11 1.94-3.78 6.09-2.73 9.81-2.71z" fill="#3B5D35"/>
<path transform="translate(491,775)" d="m0 0c28.9-0.0912 57.7-0.162 86.6-0.204 3.4-5e-3 6.81-0.0102 10.2-0.0155 0.678-0.00105 1.36-0.0021 2.05-0.00318 11-0.0174 22-0.049 32.9-0.0857 11.3-0.0374 22.5-0.0593 33.8-0.0677 6.33-0.00522 12.7-0.0175 19-0.0466 5.95-0.0271 11.9-0.0355 17.9-0.0295 2.19-0.0011 4.38-0.0091 6.56-0.0244 2.98-0.0198 5.96-0.0151 8.94-0.0042 0.872-0.0117 1.74-0.0233 2.64-0.0353 5.82 0.0581 5.82 0.0581 8.98 2.34 2.09 3.08 2.18 5.67 2.47 9.36 0.747 9.07 2.82 16.6 5 25.8h-220c-1.32-2.97-2.64-5.94-4-9-4.37-9.44-4.37-9.44-9.94-18.2-2.06-2.81-2.06-2.81-2.06-5.81h-2c0.33-1.32 0.66-2.64 1-4z" fill="#FCFDFD"/>
<path transform="translate(1132 938)" d="m0 0c1.71-0.12 1.71-0.12 3.45-0.242 1.06-0.0954 2.11-0.191 3.2-0.289 4.28 1.26 5.33 3.36 7.58 7.1 2.89 5.31 5.58 10.7 8.22 16.1 1.13 2.31 2.25 4.62 3.39 6.93 0.491 1.01 0.981 2.02 1.49 3.06 1.32 2.48 2.54 4.63 4.44 6.7h3c1.5-2.83 3-5.67 4.5-8.5 0.451-0.854 0.903-1.71 1.37-2.59 3.28-6.23 6.46-12.5 9.53-18.8 3.31-6.74 3.31-6.74 5.6-9.08 2.91-0.486 2.91-0.486 6.43-0.461 1.27 0.00387 2.54 0.00773 3.85 0.0117 0.662 0.0124 1.32 0.0248 2.01 0.0376 2.01 0.0363 4.02 0.0386 6.02 0.0405 11.6 0.105 11.6 0.105 16.7 2.37 1 3 1 3-0.228 5.78-0.625 1.11-1.25 2.22-1.89 3.36-0.338 0.606-0.675 1.21-1.02 1.84-1.09 1.95-2.19 3.89-3.29 5.83-0.709 1.26-1.42 2.53-2.12 3.79-4.17 7.44-8.41 14.8-12.6 22.2-2.31 4.06-4.6 8.13-6.86 12.2-0.382 0.686-0.764 1.37-1.16 2.08-0.811 1.46-1.61 2.93-2.4 4.4-1.38 2.45-1.38 2.45-3.22 5.17-6.37 10.1-6.18 19.5-6.1 31.1-0.0131 1.87-0.0294 3.74-0.0488 5.6-0.0404 4.53-0.0389 9.06-0.0137 13.6-4.68 0.0247-9.36 0.0428-14 0.0549-1.59 0.00504-3.19 0.0119-4.78 0.0205-2.29 0.0121-4.57 0.0178-6.86 0.0222-0.717 0.00516-1.43 0.0103-2.17 0.0156-1.72 1.96e-4 -3.43-0.0514-5.14-0.113-1-1-1-1-1.08-4.44 0.0124-1.54 0.027-3.08 0.0432-4.63-0.00372-1.7-0.00966-3.4-0.0176-5.1-0.0104-2.67-0.0105-5.34 0.0286-8.02 0.163-12.4-1.48-21.4-7.95-32.1-1.45-2.41-2.78-4.88-4.12-7.34-0.984-1.72-1.97-3.45-2.96-5.17-1.12-1.95-2.23-3.91-3.34-5.86-0.579-1.02-1.16-2.03-1.75-3.08-3.99-7.04-7.89-14.1-11.8-21.2-0.597-1.08-1.19-2.16-1.81-3.27-0.556-1.01-1.11-2.02-1.68-3.06-1.28-2.28-2.64-4.48-4.03-6.69-1.5-3.03-1.5-3.03-1.25-5.97 0.247-0.681 0.495-1.36 0.75-2.06 1.14 0.0174 1.14 0.0174 2.31 0.0352 7.08 0.0653 7.08 0.0653 14.1-0.535 3.9-0.435 3.9-0.435 7.8-0.883z" fill="#3B5D35"/>
<path transform="translate(387 938)" d="m0 0c3.12 0.188 3.12 0.188 4.89 0.707 3.09 0.665 5.95 0.48 9.11 0.36 1.45-0.0494 2.9-0.0985 4.35-0.147 1.16-0.0417 1.16-0.0417 2.35-0.0843 16.3-0.572 32.7-0.788 49-0.826 2.34-0.00616 4.69-0.016 7.03-0.0295 3.31-0.0179 6.62-0.0223 9.93-0.0227 1.49-0.0107 1.49-0.0107 3.02-0.0217 0.919 0.00304 1.84 0.00608 2.79 0.00922 0.8-0.00143 1.6-0.00285 2.43-0.00432 2.2 0.247 2.2 0.247 6.2 2.25v31c-2.44 0.0606-4.89 0.121-7.4 0.184-2.36 0.0617-4.71 0.125-7.07 0.189-1.64 0.0434-3.28 0.0851-4.93 0.125-2.36 0.0576-4.71 0.121-7.07 0.186-0.739 0.0167-1.48 0.0334-2.24 0.0506-3.44-0.199-3.44-0.199-6.3 1.27-0.125 2.62-0.186 5.21-0.205 7.82-0.0099 0.819-0.0198 1.64-0.03 2.48-0.0317 2.72-0.0564 5.44-0.0811 8.17-0.0206 1.88-0.0416 3.76-0.063 5.65-0.0553 4.96-0.105 9.93-0.153 14.9-0.0502 5.06-0.106 10.1-0.161 15.2-0.108 9.94-0.209 19.9-0.307 29.8-4.68 0.0247-9.36 0.0428-14 0.0549-1.59 0.00504-3.19 0.0119-4.78 0.0205-2.29 0.0121-4.57 0.0178-6.86 0.0222-0.717 0.00516-1.43 0.0103-2.17 0.0156-1.72 1.96e-4 -3.43-0.0514-5.14-0.113-2.03-2.03-1.19-6.22-1.21-9.01-0.0099-0.839-0.0198-1.68-0.03-2.54-0.0317-2.79-0.0564-5.57-0.0811-8.36-0.0206-1.93-0.0416-3.85-0.063-5.78-0.0553-5.08-0.105-10.2-0.153-15.2-0.0502-5.18-0.106-10.4-0.161-15.5-0.108-10.2-0.209-20.3-0.307-30.5-0.989 0.0408-1.98 0.0815-3 0.124-3.66 0.148-7.33 0.283-11 0.414-1.59 0.0585-3.17 0.121-4.76 0.187-2.28 0.094-4.56 0.175-6.84 0.253-0.712 0.0322-1.42 0.0644-2.16 0.0976-1.75 0.0535-3.51-0.00139-5.26-0.0741-2.8-2.8-2.26-4.56-2.27-8.47-0.00258-1.29-0.00516-2.59-0.00781-3.92 0.00419-0.675 0.00838-1.35 0.0127-2.04 0.0107-2.06 1.03e-4 -4.12-0.0127-6.18 0.00258-1.29 0.00516-2.59 0.00781-3.92 0.00226-1.19 0.00451-2.38 0.00684-3.61 0.358-3.96 1.16-4.79 5.13-5.04z" fill="#3B5D35"/>
<path transform="translate(459 790)" d="m0 0c9.68 6.78 17.1 18 19.4 29.7 1.5 13-0.271 24.9-8 35.7-7.16 8.78-15.7 14.3-26.7 17.3-16 0.979-28.6-1.4-41.4-11.8-7.69-7.34-13-18.3-13.7-29-0.248-12.9 3.43-24.1 11.9-33.9 16.1-16.5 38.6-19.5 58.5-8z" fill="#3B5D35"/>
<path transform="translate(633,619)" d="m0 0h6c-0.00222 0.893-0.00444 1.79-0.00673 2.7-0.0271 11.5-0.0451 22.9-0.0558 34.4-8.56e-4 0.915-0.00171 1.83-0.00259 2.77-0.0265 32.1 0.351 64.1 1.07 96.2h51c0.701-4.58 1.4-9.16 2.12-13.9 4.82-29.5 15.6-56.3 39.9-75.1 17.3-12.4 17.3-12.4 23.4-11.8 1.62 0.75 1.62 0.75 2.62 1.75 0.0406 1.67 0.0427 3.33 0 5-0.548 0.286-1.1 0.572-1.66 0.867-10.6 5.56-20.5 10.9-29.3 19.1-1.05 0.913-1.05 0.913-2.12 1.84-17.1 15.7-26.1 41.8-28.2 64.4-0.469 6.84-0.469 6.84 2.75 12.5 4.96 1.65 9.64 2.22 14.6 0.454 2.1-1.1 2.1-1.1 2.55-3.32 0.0665-0.839 0.133-1.68 0.202-2.54 0.0911-0.939 0.182-1.88 0.276-2.85 0.0868-1.01 0.174-2.02 0.263-3.06 2.44-22.3 10.5-42.5 27.6-57.5 7.35-5.81 15.2-10.6 24-14 1.46 2.65 2 3.89 2 7-0.606 0.257-1.21 0.513-1.84 0.777-21.1 9.62-33.9 32.5-41.9 53.4-3.31 9.61-5.54 19.7-6.28 29.9-13.2 0.97-26.4 1.14-39.6 1.12-2.22-3.23e-4 -4.45-2.82e-4 -6.67 9.16e-5 -7.23-9.83e-4 -14.5-0.0132-21.7-0.0272-1.23-0.00221-2.47-0.00443-3.74-0.00671-11.7-0.0211-23.3-0.0461-35-0.0813-2.68-0.00808-5.37-0.0161-8.05-0.0241-0.667-0.00198-1.33-0.00396-2.02-0.00601-10.8-0.0315-21.7-0.0388-32.5-0.0365-11.2 0.00196-22.3-0.0192-33.5-0.061-6.25-0.0228-12.5-0.0357-18.7-0.0241-5.87 0.0104-11.7-0.00742-17.6-0.0468-2.15-0.00954-4.3-0.00894-6.45 0.00273-20 0.0979-20 0.0979-28.5-6.81-2.49-1.28-5.03-2.3-7.62-3.38-1.21-0.503-2.42-1.01-3.66-1.52-0.895-0.364-1.79-0.727-2.71-1.1v-2c59.4-0.33 119-0.66 180-1 0.0206-21.7 0.0412-43.5 0.0625-65.9 0.0091-6.87 0.0182-13.7 0.0276-20.8 0.00334-6.14 0.00334-6.14 0.00536-12.3 0.00154-2.74 0.00469-5.49 0.0101-8.23 0.00811-4.15 0.00833-8.29 0.00795-12.4 0.0036-1.23 0.0072-2.46 0.0109-3.73-0.00207-1.67-0.00207-1.67-0.00417-3.37 9.22e-4 -0.972 0.00184-1.94 0.00279-2.94 0.0293-2.34 0.0293-2.34-1.12-4.31z" fill="#FCFDFD"/>
<path transform="translate(589 370)" d="m0 0c13.6 6.66 21.7 19 27.3 32.6 1.68 5.74 2.29 10.8 2.25 16.8 0.00312 0.847 0.00624 1.69 0.00945 2.57 0.00793 2.82 0.00167 5.63-0.00463 8.45 0.00271 2.03 0.00627 4.05 0.0106 6.08 0.0091 5.49 0.00559 11-7.58e-4 16.5-0.00507 5.75-3.67e-4 11.5 0.00277 17.2 0.00364 9.64-0.00115 19.3-0.0107 28.9-0.0109 11.2-0.00734 22.3 0.00365 33.5 0.00906 9.58 0.0104 19.2 0.00512 28.7-0.00312 5.72-0.00352 11.4 0.00307 17.2 0.00576 5.37 0.0018 10.7-0.00979 16.1-0.00265 1.98-0.00187 3.95 0.00253 5.93 0.00543 2.69-0.00134 5.38-0.0114 8.06 0.00446 0.79 0.00892 1.58 0.0135 2.39-0.0392 5.38-0.0392 5.38-2.27 7.61-3.73 1.02-7.33 1.16-11.2 1.19-1.05 0.0142-2.09 0.0284-3.17 0.043-2.64-0.23-2.64-0.23-4.64-2.23-0.199-2.54-0.272-4.97-0.258-7.51-0.00368-0.784-0.00735-1.57-0.0111-2.38-0.01-2.64-0.00582-5.28-0.00182-7.93-0.00438-1.89-0.00969-3.78-0.0158-5.67-0.0115-4.08-0.017-8.15-0.0179-12.2-0.00194-6.46-0.02-12.9-0.0408-19.4-0.0492-16-0.08-32.1-0.101-48.1-0.0166-12.4-0.0395-24.9-0.083-37.3-0.0217-6.41-0.0298-12.8-0.0276-19.2-0.00168-4.01-0.0158-8.01-0.0332-12-0.00556-1.85-0.00612-3.69-0.00106-5.54 0.269-19.6 0.269-19.6-7.41-37.2-1.02-1.39-1.02-1.39-2.06-2.82-1.2-1.62-2.42-3.24-3.66-4.83-1.94-4.25-1.75-8.3-1.71-12.9-0.02-0.906-0.04-1.81-0.0605-2.75 0.00486-6.56 0.00486-6.56 2.36-9.27 2.14-0.859 2.14-0.859 4.83-0.484z" fill="#3B5D35"/>
<path transform="translate(772 938)" d="m0 0c1.29-0.00258 2.58-0.00516 3.9-0.00781 0.673 0.00419 1.35 0.00838 2.04 0.0127 2.05 0.0107 4.1 1.13e-4 6.15-0.0127 1.93 0.00387 1.93 0.00387 3.91 0.00781 1.78 0.00338 1.78 0.00338 3.6 0.00684 2.97 0.259 2.97 0.259 5.97 2.26 0.385 2.07 0.385 2.07 0.399 4.68 0.0125 0.987 0.0251 1.97 0.038 2.99-0.00144 1.09-0.00287 2.17-0.00435 3.29 0.0153 1.71 0.0153 1.71 0.0309 3.46 0.0303 3.79 0.0394 7.58 0.0485 11.4 0.0168 2.62 0.035 5.24 0.0544 7.86 0.0437 6.2 0.0722 12.4 0.0953 18.6 0.027 7.06 0.0709 14.1 0.116 21.2 0.0929 14.5 0.165 29 0.222 43.6-4.82 0.0247-9.65 0.0428-14.5 0.0549-1.64 0.00504-3.28 0.0119-4.93 0.0205-2.36 0.0121-4.71 0.0178-7.07 0.0222-0.739 0.00516-1.48 0.0103-2.24 0.0156-1.77 1.96e-4 -3.53-0.0513-5.3-0.113-1.6-1.6-1.13-3.29-1.13-5.51-0.00426-0.975-0.00853-1.95-0.0129-2.95 4.53e-4 -1.08 9.06e-4 -2.16 0.00137-3.27-0.00336-1.13-0.00672-2.26-0.0102-3.42-0.00954-3.75-0.0115-7.5-0.0125-11.3-0.00321-2.59-0.00657-5.19-0.0101-7.78-6e-3 -5.45-0.00788-10.9-0.00725-16.3 6.01e-4 -6.3-0.00995-12.6-0.0257-18.9-0.0146-6.05-0.0182-12.1-0.0176-18.2-0.00118-2.58-0.00563-5.16-0.0133-7.74-0.00974-3.6-0.00694-7.2-8.95e-4 -10.8-0.00562-1.08-0.0112-2.15-0.017-3.26 0.00419-0.977 0.00839-1.95 0.0127-2.96-5.45e-4 -0.852-0.00109-1.7-0.00165-2.58 0.614-5.07 4.54-4.31 8.68-4.32z" fill="#3B5D35"/>
<path transform="translate(591,383)" d="m0 0h3v2c0.577 0.228 1.15 0.456 1.75 0.691 6.93 4.03 10.9 12.9 13.6 20.2 2.4 10.7 1.83 21.9 1.8 32.9-2.82e-4 1.88-1.23e-4 3.77 4.43e-4 5.65 2.86e-4 5.08-0.00557 10.2-0.0126 15.3-0.00627 5.32-0.00684 10.6-0.00803 16-0.0031 10.1-0.0113 20.1-0.0213 30.2-0.0112 11.5-0.0167 22.9-0.0217 34.4-0.0104 23.6-0.028 47.2-0.0503 70.7-1.66 0.382-3.32 0.714-5 1-2.92-2.92-2.12-9.78-2.14-13.7 0.00263-1.04 0.00263-1.04 0.0053-2.09-0.00212-0.752-0.00423-1.5-0.00641-2.28-0.00596-2.5-5e-3 -5.01-0.00413-7.51-0.00303-1.8-0.00656-3.61-0.0105-5.41-0.00787-3.88-0.013-7.75-0.0163-11.6-0.00593-6.14-0.0225-12.3-0.0413-18.4-0.00634-2.1-0.0127-4.21-0.019-6.31-0.00317-1.05-0.00633-2.11-0.00959-3.19-0.042-14.3-0.075-28.6-0.0874-42.8-0.0084-9.64-0.031-19.3-0.0694-28.9-0.0197-5.1-0.0322-10.2-0.0272-15.3 0.00467-4.8-0.00928-9.6-0.037-14.4-0.00687-1.75-0.00708-3.5 2e-4 -5.26 0.0503-13.5-1.45-25.3-9.29-36.6-3.27-4.76-4.88-8.19-4.25-14.1 0.33-0.33 0.66-0.66 1-1z" fill="#FBFDFD"/>
<path transform="translate(456,671)" d="m0 0c3 2 3 2 4 5 0.114 1.96 0.169 3.93 0.193 5.89 0.0241 1.82 0.0241 1.82 0.0487 3.67 0.0444 5.52 0.0859 11 0.109 16.6 0.0134 2.92 0.0413 5.84 0.082 8.75 0.0492 3.52 0.0741 7.05 0.0812 10.6 0.00999 2 0.0443 3.99 0.0788 5.99-0.00428 1.82-0.00428 1.82-0.00864 3.67 0.0121 1.6 0.0121 1.6 0.0245 3.24-0.608 2.66-0.608 2.66-2.93 4.53-3.69 1.55-5.85 1.15-9.68 0.128-4.62-2.91-4.62-2.91-5.63-5.79-0.443-2.62-0.488-5.08-0.475-7.74 0.00396-1.11 0.00792-2.22 0.012-3.36 0.048-5.04 0.0976-10.1 0.166-15.1 0.0319-2.66 0.0531-5.32 0.0635-7.98 0.0152-3.84 0.0625-7.67 0.117-11.5-7.96e-4 -1.19-0.00159-2.38-0.00241-3.61 0.17-8.24 0.17-8.24 3.17-11.6 0.851-0.423 1.7-0.846 2.58-1.28 2.91-1.46 4.88-0.7 8 0z" fill="#3D5F38"/>
<path transform="translate(480,673)" d="m0 0c2.26 3.27 2.23 6.12 2.18 10-0.0105 1.21-0.021 2.43-0.0318 3.68-0.0228 1.31-0.0456 2.61-0.069 3.96-0.0186 1.36-0.0367 2.71-0.0543 4.07-0.0394 2.84-0.0868 5.68-0.139 8.52-0.0665 3.64-0.11 7.29-0.147 10.9-0.0317 2.8-0.0771 5.6-0.126 8.4-0.0323 2-0.0517 4-0.071 5.99-0.0394 1.81-0.0394 1.81-0.0795 3.66-0.0171 1.07-0.0343 2.13-0.0519 3.23-0.136 0.835-0.272 1.67-0.412 2.53-3.75 2.5-5.55 2.45-10 2-5.54-3.08-5.54-3.08-7-6-0.116-1.79-0.17-3.59-0.193-5.38-0.0161-1.12-0.0321-2.25-0.0487-3.41-0.0444-5.15-0.086-10.3-0.109-15.4-0.0133-2.72-0.0412-5.43-0.082-8.15-0.0588-3.91-0.0766-7.82-0.0913-11.7-0.0227-1.21-0.0453-2.43-0.0687-3.68 0.0236-9.38 0.0236-9.38 3.01-12.4 0.853-0.59 1.71-1.18 2.58-1.79 0.928-0.742 0.928-0.742 1.88-1.5 3.63-0.855 5.98 0.751 9.12 2.5z" fill="#3C5E36"/>
<path transform="translate(499,671)" d="m0 0c2.38 1.5 2.38 1.5 4 4 1.24 6.9 1.09 13.7 0.984 20.7-0.0165 1.2-0.033 2.41-0.05 3.65-0.0373 2.53-0.0779 5.07-0.121 7.6-0.0631 3.89-0.104 7.78-0.145 11.7-0.039 2.46-0.0793 4.93-0.121 7.39-0.00953 1.17-0.0191 2.34-0.0289 3.54-0.023 1.08-0.046 2.15-0.0698 3.26-0.0141 0.948-0.0282 1.9-0.0428 2.87-0.201 1.13-0.201 1.13-0.405 2.27-3.75 2.5-5.55 2.45-10 2-5.54-3.08-5.54-3.08-7-6-0.111-1.79-0.159-3.59-0.177-5.38-0.0128-1.12-0.0257-2.25-0.0389-3.41-0.00739-1.22-0.0148-2.44-0.0224-3.7-0.00807-1.25-0.0161-2.5-0.0245-3.79-0.0139-2.65-0.0249-5.3-0.0324-7.95-0.0111-3.39-0.0454-6.78-0.0852-10.2-0.0325-3.24-0.0369-6.48-0.0454-9.72-0.0175-1.21-0.035-2.43-0.0531-3.68 0.00293-1.13 0.00585-2.27 0.00887-3.44-0.00587-0.995-0.0117-1.99-0.0178-3.02 0.623-3.51 2.05-5.19 4.49-7.75 3.09-1.55 5.59-1.29 9-1z" fill="#3B5D35"/>
<path transform="translate(338 775)" d="m0 0c1.12 0.0217 2.24 0.0434 3.39 0.0658 2.36 0.0492 4.72 0.106 7.08 0.17 3.62 0.0963 7.23 0.166 10.8 0.231 2.29 0.0511 4.58 0.104 6.88 0.158 1.63 0.0314 1.63 0.0314 3.29 0.0635 1.51 0.0443 1.51 0.0443 3.04 0.0896 0.884 0.0224 1.77 0.0447 2.68 0.0678 2.26 0.299 2.26 0.299 5.26 2.3h-2c-0.238 0.673-0.477 1.35-0.723 2.04-1.88 4.35-4.41 8.24-6.91 12.3-2.53 4.12-4.56 8.21-6.37 12.7-6.77-0.361-11.5-3.16-17.3-6.56-0.931-0.541-1.86-1.08-2.82-1.64-6.41-3.78-12.4-7.71-17.9-12.8-0.575-0.525-1.15-1.05-1.74-1.59-1.26-1.41-1.26-1.41-1.26-3.41-0.66-0.33-1.32-0.66-2-1 4.96-4.16 10.4-3.32 16.5-3.14z" fill="#FCFDFD"/>
<path transform="translate(738 532)" d="m0 0c2.44 1.25 2.44 1.25 4.44 4.25 0.405 2.36 0.712 4.75 0.965 7.13 0.0779 0.705 0.156 1.41 0.236 2.14 0.166 1.51 0.329 3.01 0.489 4.52 0.412 3.88 0.849 7.76 1.29 11.6 0.129 1.13 0.129 1.13 0.26 2.29 0.784 6.75 1.89 13.4 3.24 20.1 1.4 8.69 1.4 8.69-0.609 12.1-2.86 1.62-4.64 1.58-7.88 1.06-4.64-3.69-6.07-7.28-7.12-12.9-0.236-1.17-0.236-1.17-0.478-2.35-7.73-39.6-7.73-39.6-2.56-47.5 2.69-2.69 4.01-3.5 7.72-2.41z" fill="#3B5D35"/>
<path transform="translate(764,668)" d="m0 0v4c-2.24 1.64-2.24 1.64-5.31 3.25-20 11.1-35.6 27.8-42.4 49.9-1.82 6.59-3.28 13.3-3.96 20.1-0.335 3.35-0.918 5.74-2.38 8.75-1.65-0.33-3.3-0.66-5-1-1.62-23.4 8.74-46.3 23.7-63.8 8.31-8.75 22.8-21.2 35.3-21.2z" fill="#FBFDFD"/>
<path transform="translate(374,1085)" d="m0 0c4.46 2.45 7.85 4.97 9.69 9.81 0.881 6.17 0.378 10.7-2.69 16.2-3.08 2.89-5.85 3.24-9.94 3.44-4.74-0.155-7.47-1.2-11.1-4.44-2.85-3.42-3.55-6.41-3.34-10.9 0.737-4.55 2.43-8.47 5.96-11.5 3.8-2.39 6.97-3.36 11.4-2.61z" fill="#3B5D35"/>
<path transform="translate(1033 1085)" d="m0 0c3.26 1.29 3.72 2.56 5.1 5.73 0.41 0.901 0.82 1.8 1.24 2.73 0.374 0.831 0.748 1.66 1.13 2.52 1.74 3.2 1.74 3.2 4 6 0.375-0.976 0.75-1.95 1.14-2.96 0.516-1.29 1.03-2.57 1.55-3.86 0.244-0.643 0.489-1.29 0.74-1.95 1.75-4.28 3.35-6.31 7.57-8.24 3 2 3 2 3.51 4.04 0.566 8.33 0.582 16.6 0.488 25h-5c-1.43-2.49-2.05-4.31-2.5-7.19-0.165-0.928-0.33-1.86-0.5-2.81-0.66-0.33-1.32-0.66-2-1-0.103 0.887-0.206 1.77-0.312 2.69-0.699 3.37-1.77 5.49-3.69 8.31-1.8-0.156-1.8-0.156-4-1-1.63-2.47-1.63-2.47-3.12-5.5-1.7-3.96-1.7-3.96-4.88-6.5 0.33 4.29 0.66 8.58 1 13h-6c-2.59-2.59-1.23-9.89-1.25-13.4-0.0206-1.16-0.0412-2.33-0.0625-3.52-0.00516-1.11-0.0103-2.23-0.0156-3.38-0.00935-1.03-0.0187-2.05-0.0283-3.11 0.356-2.62 0.356-2.62 1.72-4.48 1.64-1.14 1.64-1.14 4.16-1.13z" fill="#3B5D35"/>
<path transform="translate(704 1085)" d="m0 0c1.4 0.0058 1.4 0.0058 2.84 0.0117 2.95 0.318 5.13 1 7.79 2.3 2.38 3.17 2.25 6.14 2 10-0.33 0.99-0.66 1.98-1 3 0.464 0.866 0.464 0.866 0.938 1.75 1.5 3.17 1.32 5.79 1.06 9.25-3.42 3.42-6.91 3.13-11.6 3.14-0.677-0.00387-1.35-0.00773-2.05-0.0117-0.689 0.00387-1.38 0.00773-2.09 0.0117-5.1-0.01-5.1-0.01-6.22-1.14-0.281-4.12-0.232-8.25-0.25-12.4-0.0206-1.16-0.0412-2.33-0.0625-3.52-0.00516-1.11-0.0103-2.23-0.0156-3.38-0.00935-1.03-0.0187-2.05-0.0283-3.11 0.356-2.62 0.356-2.62 1.72-4.45 2.36-1.68 4.15-1.53 7.01-1.48z" fill="#3B5D35"/>
<path transform="translate(1240,1085)" d="m0 0c4.41 3.07 7.29 6.8 10.4 11.1 1.42 2.03 1.42 2.03 3.55 2.93-0.0232-0.771-0.0464-1.54-0.0703-2.34-0.018-1-0.0361-2.01-0.0547-3.04-0.0232-0.998-0.0464-2-0.0703-3.02 0.195-2.6 0.195-2.6 2.2-4.6 2.06 0.188 2.06 0.188 4 1 1.04 3.12 1.11 5.27 1.1 8.54-0.00322 1.07-0.00645 2.15-0.00977 3.25-0.00838 1.12-0.0168 2.24-0.0254 3.39-0.00451 1.13-0.00902 2.26-0.0137 3.43-0.0118 2.79-0.0283 5.59-0.0488 8.38-4.74 0.224-4.74 0.224-7.06-1.79-0.639-0.79-1.28-1.58-1.94-2.39-0.681-0.817-1.36-1.63-2.06-2.48-0.639-0.771-1.28-1.54-1.94-2.34-1.63-1.71-3.3-3.35-5-5v14h-6c-2.61-2.61-1.28-9.87-1.31-13.4-0.0435-1.74-0.0435-1.74-0.0879-3.52-0.00838-1.11-0.0168-2.23-0.0254-3.38-0.0146-1.03-0.0292-2.05-0.0442-3.11 0.47-2.62 0.47-2.62 2.5-4.48 0.651-0.377 1.3-0.754 1.97-1.14z" fill="#3B5D35"/>
<path transform="translate(963,1085)" d="m0 0c5.04 2.66 7.75 5.88 10.6 10.8 1.18 2.37 1.18 2.37 3.38 3.25 0.049-0.843 0.098-1.69 0.148-2.55 0.0748-1.1 0.15-2.19 0.227-3.32 0.0696-1.09 0.139-2.18 0.211-3.3 0.414-2.82 0.414-2.82 2.41-4.82 2.12 0.375 2.12 0.375 4 1 0.954 3.21 1.12 6.08 1.1 9.42-0.00322 1.02-0.00645 2.05-0.00977 3.11-0.00838 1.06-0.0168 2.13-0.0254 3.22-0.00451 1.08-0.00902 2.16-0.0137 3.27-0.0118 2.66-0.0282 5.32-0.0488 7.98-4.7 1.17-4.7 1.17-7.44-0.375-2.94-3.01-5.04-6.22-7.23-9.8-0.44-0.603-0.879-1.21-1.33-1.83h-2v13h-6c-2.59-2.59-1.23-9.89-1.25-13.4-0.0206-1.16-0.0412-2.33-0.0625-3.52-0.00516-1.11-0.0103-2.23-0.0156-3.38-0.00935-1.03-0.0187-2.05-0.0283-3.11 0.403-2.96 1.03-3.83 3.36-5.62z" fill="#3B5D35"/>
<path transform="translate(596,1085)" d="m0 0c4.16 1.53 5.54 2.31 8 6 0.301 2.38 0.301 2.38 0.312 5 0.0168 0.866 0.0335 1.73 0.0508 2.62-0.363 2.38-0.363 2.38-1.56 4.12-2.29 1.6-4.18 1.94-6.93 2.38-3.24 0.312-3.24 0.312-5.88 1.88-0.368 2.33-0.702 4.66-1 7-2 0.0425-4 0.0408-6 0-2.59-2.59-1.23-9.89-1.25-13.4-0.0206-1.16-0.0412-2.33-0.0625-3.52-0.00516-1.11-0.0103-2.23-0.0156-3.38-0.00935-1.03-0.0187-2.05-0.0283-3.11 0.356-2.62 0.356-2.62 1.72-4.45 3.55-2.54 8.49-1.61 12.6-1.17z" fill="#3B5D35"/>
<path transform="translate(835 1085)" d="m0 0c1.43 0.00773 1.43 0.00773 2.89 0.0156 1.42-0.00773 1.42-0.00773 2.86-0.0156 4.26 0.401 6.99 1.5 10.1 4.39 2.37 4.03 2.2 6.23 1.69 10.9-1.14 2.17-1.14 2.17-3 4-2.92 0.828-2.92 0.828-6.19 1.25-1.09 0.15-2.17 0.299-3.29 0.453-0.831 0.098-1.66 0.196-2.52 0.297v8c-2 0.0425-4 0.0408-6 0-2.65-2.65-1.19-10.4-1.19-13.9-0.0184-1.83-0.0184-1.83-0.0371-3.69-0.00193-1.16-0.00387-2.32-0.00586-3.52-0.00411-1.07-0.00822-2.14-0.0125-3.25 0.327-3.5 1.15-4.48 4.67-4.86z" fill="#3B5D35"/>
<path transform="translate(556,983)" d="m0 0c3.72 2.48 4.02 4.08 5.48 8.25 0.327 0.921 0.327 0.921 0.66 1.86 0.458 1.3 0.91 2.59 1.36 3.89 0.687 1.99 1.39 3.98 2.09 5.96 3.41 9.7 3.41 9.7 3.41 12h-23c-1-2-1-2-0.534-4.01 0.273-0.812 0.546-1.62 0.827-2.46 0.301-0.9 0.602-1.8 0.912-2.73 0.324-0.944 0.648-1.89 0.982-2.86 0.305-0.917 0.61-1.83 0.924-2.78 1.99-5.88 4.26-11.5 6.89-17.2z" fill="#FCFDFD"/>
<path transform="translate(780,1085)" d="m0 0c3.84 2.11 6.73 4.22 9 8v2c-6.88-0.875-6.88-0.875-8-2-2.67-0.141-5.32-0.0425-8 0-2.34 3.65-2.46 6.74-2 11 1.42 2.58 1.42 2.58 4 4 3.67 0.334 3.67 0.334 7 0-0.195-1.95-0.195-1.95-1-4-1.98-1.28-1.98-1.28-4-2l2-4c1.48-0.0269 2.96-0.0463 4.44-0.0625 0.824-0.0116 1.65-0.0232 2.5-0.0352 2.07 0.0977 2.07 0.0977 3.07 1.1 0.578 4.58 0.606 8-1.81 12-3.82 3.5-7.73 3.34-12.7 3.28-3.75-0.415-5.76-1.73-8.51-4.28-2.92-4.38-3.56-7.78-3-13 1.94-4.95 4.45-8.3 8.88-11.2 2.94-1.04 5.02-1.12 8.12-0.75z" fill="#3B5D35"/>
<path transform="translate(938 1085)" d="m0 0c0.949 0.0412 1.9 0.0825 2.88 0.125 7.77 19.3 7.77 19.3 10 29-5.75 0.125-5.75 0.125-8-1-0.33-1.32-0.66-2.64-1-4h-10c-0.33 1.65-0.66 3.3-1 5h-6c-1-2-1-2-0.319-4.49 0.37-1.02 0.739-2.05 1.12-3.1 0.4-1.11 0.801-2.22 1.21-3.37 0.429-1.17 0.857-2.33 1.3-3.54 0.626-1.75 0.626-1.75 1.26-3.54 3.96-10.9 3.96-10.9 8.55-11.1z" fill="#3B5D35"/>
<path transform="translate(744,1085)" d="m0 0c4.04 7.33 6.46 15.1 9 23 0.664 2 1.33 4 2 6-3.31 0.312-3.31 0.312-7 0-0.474-0.825-0.949-1.65-1.44-2.5-1.26-2.64-1.26-2.64-3.41-3.01-2.22-0.121-4-0.081-6.15 0.508-1.72 2.44-1.72 2.44-3 5-2.69 0.312-2.69 0.312-5 0-1.26-3.77-0.532-5.03 0.801-8.73 0.4-1.11 0.801-2.23 1.21-3.38 0.429-1.16 0.857-2.33 1.3-3.52 0.417-1.17 0.834-2.34 1.26-3.55 3.64-10 3.64-10 10.4-9.83z" fill="#456640"/>
<path transform="translate(630,1085)" d="m0 0c2.01 5.33 4.01 10.7 6 16 0.425 1.14 0.851 2.27 1.29 3.44 0.538 1.45 0.538 1.45 1.09 2.93 0.317 0.853 0.634 1.71 0.961 2.59 0.664 2.04 0.664 2.04 0.664 4.04-5.75 0.125-5.75 0.125-8-1-0.33-1.32-0.66-2.64-1-4h-9c-0.99 2.47-0.99 2.47-2 5h-6c-1.75-3.5 0.401-7 1.56-10.6 0.372-1.11 0.744-2.23 1.13-3.38 0.529-1.67 0.529-1.67 1.07-3.37 0.529-1.6 0.529-1.6 1.07-3.22 0.321-0.977 0.641-1.95 0.971-2.96 2.28-4.76 5.08-5.94 10.2-5.51z" fill="#3B5D35"/>
<path transform="translate(1152,1085)" d="m0 0c2.76 5.85 5.08 11.8 7.25 17.9 0.27 0.75 0.54 1.5 0.819 2.27 1.08 3.07 1.93 5.58 1.93 8.85-2.81 0.312-2.81 0.312-6 0-0.681-1.24-0.681-1.24-1.38-2.5-1.32-2.64-1.32-2.64-3.48-3.01-2.22-0.121-4-0.0807-6.15 0.508-1.72 2.44-1.72 2.44-3 5-2.69 0.312-2.69 0.312-5 0-1.26-3.56-0.729-5.6 0.547-9.1 0.351-0.966 0.701-1.93 1.06-2.93 0.565-1.5 0.565-1.5 1.14-3.04 0.361-1.01 0.722-2.01 1.09-3.05 4.22-11.5 4.22-11.5 11.2-10.9z" fill="#45653F"/>
<path transform="translate(1085,1085)" d="m0 0c2.76 5.85 5.08 11.8 7.25 17.9 0.27 0.75 0.54 1.5 0.819 2.27 1.08 3.07 1.93 5.58 1.93 8.85-2.81 0.312-2.81 0.312-6 0-0.681-1.24-0.681-1.24-1.38-2.5-1.32-2.64-1.32-2.64-3.48-3.01-2.22-0.121-4-0.0807-6.15 0.508-1.72 2.44-1.72 2.44-3 5-2.69 0.312-2.69 0.312-5 0-1.21-3.62-0.679-4.67 0.547-8.22 0.351-1.01 0.701-2.03 1.06-3.07 0.376-1.06 0.753-2.12 1.14-3.21 0.361-1.06 0.722-2.12 1.09-3.21 4.16-11.9 4.16-11.9 11.2-11.3z" fill="#466640"/>
<path transform="translate(1191 1085)" d="m0 0c0.598 0.227 1.2 0.454 1.81 0.688 0.33 2.64 0.66 5.28 1 8h3c1.25-1.48 1.25-1.48 2.31-3.38 2.38-3.6 4.38-4.72 8.69-5.62 0.68 1.75 0.68 1.75 1 4-1.18 2.04-1.18 2.04-2.88 4.06-2.02 2.44-3.11 3.89-4.12 6.94 1.44 2.7 1.44 2.7 3.44 5.5 3.56 5.19 3.56 5.19 3.56 8.5-2.76 0-4.47-0.0209-7-1-1.85-1.97-3.28-4.01-4.74-6.29-0.416-0.566-0.833-1.13-1.26-1.71h-2c-0.33 2.97-0.66 5.94-1 9-2 0.0425-4 0.0408-6 0-2.59-2.59-1.23-9.89-1.25-13.4-0.0206-1.16-0.0412-2.33-0.0625-3.52-0.00516-1.11-0.0103-2.23-0.0156-3.38-0.00935-1.03-0.0187-2.05-0.0283-3.11 0.356-2.62 0.356-2.62 1.74-4.5 1.62-1.12 1.62-1.12 3.8-0.81z" fill="#3B5D35"/>
<path transform="translate(558 1085)" d="m0 0c1.56 0.00399 3.12 0.0188 4.68 0.043 0.793 6.45e-4 1.59 0.00129 2.4 0.00195 5.89 0.0453 5.89 0.0453 7.03 1.19v5h-12c0.33 1.65 0.66 3.3 1 5 2.97 0.33 5.94 0.66 9 1 0.33 1.65 0.66 3.3 1 5-4.95 0.495-4.95 0.495-10 1-0.33 1.32-0.66 2.64-1 4 1.66 1.66 3.78 1.36 6.06 1.56 0.919 0.0838 1.84 0.168 2.79 0.254 1.07 0.0909 1.07 0.0909 2.15 0.184 0.33 1.65 0.66 3.3 1 5-3.15 0.0289-6.29 0.0468-9.44 0.0625-0.898 0.00838-1.8 0.0168-2.72 0.0254-1.28 0.00483-1.28 0.00483-2.59 0.00977-0.791 0.00524-1.58 0.0105-2.4 0.0159-1.86-0.114-1.86-0.114-2.86-1.11-0.253-4.31-0.185-8.62-0.188-12.9-0.0184-1.83-0.0184-1.83-0.0371-3.69-0.00193-1.16-0.00387-2.32-0.00586-3.52-0.00411-1.07-0.00822-2.14-0.0125-3.25 0.415-4.44 1.8-4.57 6.12-4.83z" fill="#3B5D35"/>
<path transform="translate(742,480)" d="m0 0c1.68 1.56 1.68 1.56 3 4 0.0815 2.72 0.0124 5.13-0.25 7.81-0.0529 0.686-0.106 1.37-0.16 2.08-0.166 2.04-0.371 4.07-0.59 6.11-0.134 1.27-0.268 2.54-0.406 3.86-0.594 3.14-0.594 3.14-2.84 5.64-2.75 1.5-2.75 1.5-5.31 1.44-2.72-1.05-4.36-1.87-6.44-3.94-1.1-7.27-0.745-16.1 2-23 3.4-4.25 5.7-5.68 11-4z" fill="#3B5D35"/>
<path transform="translate(425,1085)" d="m0 0c1.32 0.66 2.64 1.32 4 2 0.0251 0.57 0.0501 1.14 0.0759 1.73 0.116 2.57 0.239 5.14 0.362 7.71 0.0393 0.898 0.0786 1.8 0.119 2.72 0.0419 0.854 0.0838 1.71 0.127 2.59 0.0367 0.791 0.0733 1.58 0.111 2.4 0.011 1.87 0.011 1.87 1.21 2.86 2.67 0.141 5.32 0.0425 8 0 0.0198-0.565 0.0396-1.13 0.0601-1.71 0.0951-2.55 0.205-5.11 0.315-7.66 0.0309-0.889 0.0619-1.78 0.0938-2.7 0.0387-0.851 0.0773-1.7 0.117-2.58 0.0314-0.786 0.0628-1.57 0.0952-2.38 0.319-1.97 0.319-1.97 2.32-3.97 2.12 0.375 2.12 0.375 4 1 0.145 3.75 0.234 7.5 0.312 11.2 0.0419 1.06 0.0838 2.13 0.127 3.22 0.123 7.82 0.123 7.82-2.58 11.2-3.2 1.45-5.35 1.8-8.86 1.73-1.01-0.00129-2.02-0.00258-3.06-0.00391-3.4-0.502-5.25-1.3-7.94-3.43-2.66-4.35-2.33-9.18-2.31-14.1-0.0161-0.811-0.0322-1.62-0.0488-2.46-6.45e-4 -0.78-0.00129-1.56-0.00195-2.36-0.00298-0.707-0.00596-1.41-0.00903-2.14 0.474-2.44 1.51-3.34 3.37-4.91z" fill="#3B5D35"/>
<path transform="translate(1120,1085)" d="m0 0c2.87 2.24 4.6 3.86 5.81 7.31 0.0619 0.557 0.124 1.11 0.188 1.69-3.12-0.521-6.25-1.04-9.38-1.56-1.3-0.217-1.3-0.217-2.62-0.438-0.99 1.48-0.99 1.48-2 3 0.592 0.159 1.18 0.317 1.79 0.48 5.25 1.55 8.77 3.01 12.2 7.52 1 2.5 1 2.5 1 5-2.19 4.6-2.19 4.6-5 6-10.5 0.943-10.5 0.943-15.2-2-0.578-0.66-1.15-1.32-1.75-2 0.312-1.94 0.312-1.94 1-4 0.99-0.33 1.98-0.66 3-1 0.897 0.681 0.897 0.681 1.81 1.38 2.7 2 4.89 2.25 8.19 2.62-0.33-1.98-0.66-3.96-1-6-1.86-0.433-1.86-0.433-3.75-0.875-6.56-1.71-6.56-1.71-8.25-3.12-1-3.31-1-3.31-1-7 3.72-6.19 7.89-7.87 15-7z" fill="#3B5D35"/>
<path transform="translate(343 1086)" d="m0 0c2.25 1.69 2.25 1.69 4.25 4.69v3c-3.72 0.201-4.77 0.152-8-2-3.13-0.167-3.13-0.167-6 0 0.33 0.99 0.66 1.98 1 3 2.46 1.16 4.98 1.97 7.55 2.84 2.83 1.34 3.91 2.45 5.45 5.16 0.622 2.92 0.339 4.95 0 8-2.23 2.32-3.65 2.95-6.84 3.43-8.44 0.0106-8.44 0.0106-12.4-2.43-0.577-0.66-1.15-1.32-1.75-2 0.33-1.65 0.66-3.3 1-5 4.75 0.75 4.75 0.75 7 3 1.99 0.398 3.99 0.738 6 1-0.33-1.98-0.66-3.96-1-6-0.687-0.182-1.37-0.364-2.08-0.551-0.901-0.251-1.8-0.503-2.73-0.762-0.893-0.244-1.79-0.487-2.71-0.738-2.58-0.988-3.86-1.72-5.48-3.95 0.0721-3.97 0.396-6.23 2.88-9.38 4.34-3.32 8.99-3.65 13.9-1.31z" fill="#3B5D35"/>
<path transform="translate(869 1085)" d="m0 0c1.48 0.0133 2.95 0.0372 4.43 0.0703 0.754 0.00902 1.51 0.018 2.29 0.0273 1.86 0.0236 3.73 0.0595 5.59 0.0977 0.33 1.65 0.66 3.3 1 5-5.94 0.495-5.94 0.495-12 1 0.33 1.65 0.66 3.3 1 5 2.97 0.33 5.94 0.66 9 1 0.33 1.65 0.66 3.3 1 5-3.63 0.33-7.26 0.66-11 1 0.33 1.65 0.66 3.3 1 5 3.3 0.33 6.6 0.66 10 1 0.33 1.65 0.66 3.3 1 5-2.98 0.0268-5.96 0.0468-8.94 0.0625-1.28 0.0126-1.28 0.0126-2.58 0.0254-0.809 0.00322-1.62 0.00645-2.45 0.00977-0.749 0.00524-1.5 0.0105-2.27 0.0159-1.77-0.114-1.77-0.114-2.77-1.11-0.253-4.31-0.185-8.62-0.188-12.9-0.0184-1.83-0.0184-1.83-0.0371-3.69-0.00193-1.16-0.00387-2.32-0.00586-3.52-0.00411-1.07-0.00822-2.14-0.0125-3.25 0.406-4.34 1.71-4.57 5.94-4.79z" fill="#3B5D35"/>
<path transform="translate(474 1087)" d="m0 0c2.69 2.31 2.69 2.31 3.56 5.06 0.0412 0.743 0.0825 1.48 0.125 2.25-3.12-0.521-6.25-1.04-9.38-1.56-1.3-0.217-1.3-0.217-2.62-0.438-0.33 0.99-0.66 1.98-1 3 0.687 0.242 1.37 0.485 2.08 0.734 0.901 0.335 1.8 0.67 2.73 1.02 0.893 0.325 1.79 0.65 2.71 0.984 2.79 1.43 3.94 2.55 5.48 5.27 0.622 2.92 0.339 4.95 0 8-2.15 2.19-3.55 2.93-6.59 3.43-6.14 0.0086-9.71-0.368-14.4-4.43 0.312-1.94 0.312-1.94 1-4 0.99-0.33 1.98-0.66 3-1 0.897 0.681 0.897 0.681 1.81 1.38 2.7 2 4.89 2.25 8.19 2.62-0.0266-2.44-0.0266-2.44-1-5-2.73-1.44-2.73-1.44-6-2.38-3.28-1.24-3.28-1.24-6-2.62-1.5-3.5-1.5-3.5-1-7 4.15-6.92 9.97-9.05 17.3-5.31z" fill="#3B5D35"/>
<path transform="translate(907,776)" d="m0 0c3.99 0.657 7.45 1.9 11.2 3.44 4.64 1.82 8.97 3.13 13.9 3.96 4.94 1 9.77 2.45 14.6 3.83 3.76 1.07 7.48 2.06 11.3 2.76l3.32 0.684c18.9 3.75 37.5 4.63 56.8 4.89 1.23 0.0216 1.23 0.0216 2.48 0.0436 1.55 0.0272 3.11 0.0468 4.66 0.0576 3.73 0.072 6.59 0.257 9.76 2.33-3.7 1.23-7.15 1.16-11 1.17-0.799 0.00333-1.6 0.00666-2.42 0.0101-1.7 0.00507-3.4 0.00741-5.1 0.00725-2.54 0.00215-5.08 0.0202-7.62 0.0393-10.8 0.0373-21.2-0.71-31.9-2.22-0.872-0.115-1.74-0.23-2.64-0.349-23.1-3.15-46.1-9.91-67.4-19.7v-1z" fill="#FBFDFD"/>
<path transform="translate(904 1085)" d="m0 0c1.4-0.0184 1.4-0.0184 2.83-0.0371 1.34-0.0029 1.34-0.0029 2.7-0.00586 0.821-0.00411 1.64-0.00822 2.49-0.0125 2.05 0.243 2.05 0.243 4.05 2.24-0.375 2.12-0.375 2.12-1 4h-8v23h-6c-1.68-1.68-1.23-3.82-1.32-6.13-0.0628-1.55-0.0628-1.55-0.127-3.13-0.0393-1.09-0.0786-2.18-0.119-3.3-0.0432-1.09-0.0864-2.18-0.131-3.31-0.106-2.71-0.208-5.42-0.307-8.13h-6c0-7.29 4.88-5.18 10.9-5.19z" fill="#3B5D35"/>
<path transform="translate(660 1085)" d="m0 0c0.88-0.0122 1.76-0.0245 2.67-0.0371 0.842-0.00193 1.68-0.00387 2.55-0.00586 0.773-0.00411 1.55-0.00822 2.34-0.0125 1.94 0.243 1.94 0.243 3.94 2.24-0.375 2.12-0.375 2.12-1 4h-7c-0.33 7.59-0.66 15.2-1 23h-5c-1.62-1.62-1.22-3.46-1.32-5.69-0.0628-1.42-0.0628-1.42-0.127-2.86-0.0393-0.993-0.0786-1.99-0.119-3.01-0.0432-0.997-0.0864-1.99-0.131-3.02-0.106-2.47-0.208-4.94-0.307-7.42-2.64-0.99-5.28-1.98-8-3 0.33-0.99 0.66-1.98 1-3 3.54-1.77 7.61-1.18 11.5-1.19z" fill="#3B5D35"/>
<path transform="translate(527 1085)" d="m0 0c0.893 0.00967 1.79 0.0193 2.71 0.0293 1.39 0.0377 1.39 0.0377 2.81 0.0762 0.94 0.0135 1.88 0.0271 2.85 0.041 2.32 0.0354 4.64 0.0847 6.96 0.146 0.33 1.65 0.66 3.3 1 5-2.64 0.33-5.28 0.66-8 1-0.33 7.59-0.66 15.2-1 23h-5c-1.62-1.62-1.22-3.46-1.32-5.69-0.0628-1.42-0.0628-1.42-0.127-2.86-0.0393-0.993-0.0786-1.99-0.119-3.01-0.0432-0.997-0.0864-1.99-0.131-3.02-0.106-2.47-0.208-4.94-0.307-7.42-1.13-0.289-2.27-0.578-3.44-0.875-1.18-0.371-2.35-0.743-3.56-1.12-0.33-0.66-0.66-1.32-1-2 2.42-2.96 3.89-3.37 7.67-3.29z" fill="#3B5D35"/>
<path transform="translate(742,532)" d="m0 0c1.96 0.696 1.96 0.696 4 2 0.558 2.15 0.558 2.15 0.652 4.86 0.0516 1.02 0.103 2.04 0.156 3.09 0.0425 1.11 0.0851 2.22 0.129 3.36 0.582 10.3 1.77 20.3 3.56 30.4 0.214 1.23 0.428 2.46 0.648 3.73 0.965 5.35 2.04 10.4 3.85 15.5-2.48 0.99-2.48 0.99-5 2-3.56-17.8-6.45-35.6-8.25-53.7-0.0923-0.904-0.185-1.81-0.28-2.74-0.0778-0.833-0.156-1.67-0.236-2.52-0.0699-0.736-0.14-1.47-0.212-2.23-0.0225-1.82-0.0225-1.82 0.978-3.82z" fill="#FBFDFD"/>
<path transform="translate(396,1086)" d="m0 0c1.32 0.33 2.64 0.66 4 1v21c2.8 0.195 5.6 0.391 8.4 0.586 2.6 0.414 2.6 0.414 4.6 2.41v3c-2.98 0.0268-5.96 0.0468-8.94 0.0625-1.28 0.0126-1.28 0.0126-2.58 0.0254-0.809 0.00322-1.62 0.00645-2.45 0.00977-0.749 0.00524-1.5 0.0105-2.27 0.0159-1.77-0.114-1.77-0.114-2.77-1.11-0.253-4.14-0.185-8.29-0.188-12.4-0.0122-1.17-0.0245-2.34-0.0371-3.55-0.00193-1.12-0.00387-2.23-0.00586-3.38-0.00411-1.03-0.00822-2.06-0.0125-3.12 0.243-2.51 0.243-2.51 2.24-4.51z" fill="#3B5D35"/>
<path transform="translate(802,1085)" d="m0 0c1.32 0.66 2.64 1.32 4 2v27c-2.31-0.33-4.62-0.66-7-1-0.0869-4.1-0.14-8.21-0.188-12.3-0.0251-1.17-0.0503-2.33-0.0762-3.54-0.0145-1.68-0.0145-1.68-0.0293-3.39-0.0157-1.03-0.0314-2.06-0.0476-3.13 0.341-2.64 0.341-2.64 1.86-4.5 0.733-0.564 0.733-0.564 1.48-1.14z" fill="#3B5D35"/>
<path transform="translate(1221,1086)" d="m0 0c1.65 0.33 3.3 0.66 5 1v27c-2.31-0.33-4.62-0.66-7-1-0.0578-4.12-0.0935-8.25-0.125-12.4-0.0168-1.18-0.0335-2.35-0.0508-3.56-0.00645-1.12-0.0129-2.24-0.0195-3.4-0.0105-1.04-0.0209-2.07-0.0317-3.14 0.227-2.52 0.227-2.52 2.23-4.52z" fill="#3B5D35"/>
<path transform="translate(490,1086)" d="m0 0c1.65 0.33 3.3 0.66 5 1v27h-5c-2.21-3.32-2.26-4.39-2.27-8.25-0.00258-1.02-0.00516-2.04-0.00781-3.09 0.00773-1.06 0.0155-2.13 0.0234-3.22-0.00773-1.07-0.0155-2.13-0.0234-3.23 0.00258-1.02 0.00516-2.04 0.00781-3.08 0.00226-0.934 0.00451-1.87 0.00684-2.83 0.259-2.29 0.259-2.29 2.26-4.29z" fill="#3B5D35"/>
<path transform="translate(374,1092)" d="m0 0c1.7 1.18 1.7 1.18 3 3 0.363 2.63 0.363 2.63 0.312 5.56-0.00387 0.971-0.00773 1.94-0.0117 2.94-0.301 2.5-0.301 2.5-2.3 4.5-7.2 0.572-7.2 0.572-9.73-1.24-2.34-3.25-1.76-6.93-1.27-10.8 2.03-4.89 5.09-4.61 10-4z" fill="#FCFDFD"/>
<path transform="translate(1275,1085)" d="m0 0c0.66 0.33 1.32 0.66 2 1 1.57 9.13 1.12 18.8 1 28-2 0.0425-4 0.0408-6 0-2.61-2.61-1.28-9.87-1.31-13.4-0.0435-1.74-0.0435-1.74-0.0879-3.52-0.00838-1.11-0.0168-2.23-0.0254-3.38-0.0146-1.03-0.0292-2.05-0.0442-3.11 0.47-2.62 0.47-2.62 2.5-4.48 0.651-0.377 1.3-0.754 1.97-1.14z" fill="#3B5D35"/>
<path transform="translate(997,1085)" d="m0 0c1.32 0.33 2.64 0.66 4 1v28h-5c-2.65-2.65-1.19-10.4-1.19-13.9-0.0184-1.83-0.0184-1.83-0.0371-3.69-0.00193-1.16-0.00387-2.32-0.00586-3.52-0.00411-1.07-0.00822-2.14-0.0125-3.25 0.243-2.6 0.243-2.6 2.24-4.6z" fill="#3B5D35"/>
<path transform="translate(761,620)" d="m0 0c2.69 3.17 3.82 6.11 5.06 10.1 5.19 15 13.7 29.4 22.4 42.7 0.42 0.641 0.84 1.28 1.27 1.94 0.827 1.25 1.66 2.5 2.51 3.75 0.978 1.48 1.88 3.01 2.76 4.54-0.33 0.66-0.66 1.32-1 2-2.68-3.66-5.34-7.33-8-11-0.643-0.883-1.29-1.77-1.95-2.68-3.54-4.94-6.5-9.82-9.05-15.3-0.826-1.71-1.66-3.42-2.5-5.12-0.382-0.786-0.763-1.57-1.16-2.38-1.34-2.6-1.34-2.6-3.29-5.25-2.43-3.84-3.89-7.65-5.36-11.9-0.277-0.759-0.553-1.52-0.838-2.3-1.98-5.64-1.98-5.64-0.85-9.01z" fill="#FBFDFD"/>
<path transform="translate(496,680)" d="m0 0c0.981 2.94 1.09 4.69 1.02 7.75-0.0201 0.961-0.0402 1.92-0.0609 2.91-0.027 1.03-0.0541 2.07-0.0819 3.13-0.0236 1.06-0.0472 2.12-0.0715 3.22-0.0766 3.39-0.161 6.79-0.245 10.2-0.0532 2.3-0.106 4.6-0.158 6.9-0.129 5.64-0.264 11.3-0.404 16.9-0.99-0.66-1.98-1.32-3-2-0.361-1.99-0.361-1.99-0.341-4.45 2.27e-4 -0.921 4.53e-4 -1.84 6.87e-4 -2.79 0.0232-1.49 0.0232-1.49 0.0469-3.02 0.00424-1.02 0.00849-2.04 0.0129-3.09 0.0168-3.26 0.0545-6.52 0.0926-9.78 0.015-2.21 0.0287-4.41 0.041-6.62 0.0331-5.42 0.0834-10.8 0.146-16.3 0.99-0.33 1.98-0.66 3-1v-2z" fill="#FBFDFD"/>
<path transform="translate(472,684)" d="m0 0c0.66 0.33 1.32 0.66 2 1v39c-0.99-0.33-1.98-0.66-3-1-0.0247-5.23-0.0429-10.5-0.0549-15.7-0.00504-1.78-0.0119-3.56-0.0205-5.34-0.0121-2.56-0.0178-5.11-0.0222-7.67-0.00516-0.799-0.0103-1.6-0.0156-2.42-5.75e-4 -5.64-5.75e-4 -5.64 1.11-7.87z" fill="#FBFDFD"/>
<path transform="translate(592,1090)" d="m0 0c4.32 2.32 4.32 2.32 6 4 0.0406 1.67 0.0427 3.33 0 5-2.33 0.381-4.66 0.713-7 1-1-1-1-1-1.1-2.85 0.0326-2.05 0.0651-4.1 0.0977-6.15 0.66-0.33 1.32-0.66 2-1z" fill="#FBFDFD"/>
<path transform="translate(838,1092)" d="m0 0c5.75-0.125 5.75-0.125 8 1 0.0425 2 0.0408 4 0 6-1 1-1 1-3.44 1.19-2.56-0.188-2.56-0.188-4.56-2.19-0.125-3.12-0.125-3.12 0-6z" fill="#FCFDFD"/>
<path transform="translate(704,1102)" d="m0 0c2.31-0.25 2.31-0.25 5 0 1.88 1.81 1.88 1.81 3 4-0.33 0.99-0.66 1.98-1 3-2 0.0425-4 0.0408-6 0-1-1-1-1-1.06-4.06 0.0206-0.969 0.0412-1.94 0.0625-2.94z" fill="#FBFDFD"/>
<path transform="translate(708 1091)" d="m0 0c0.784 0.0412 1.57 0.0825 2.38 0.125 0.382 1.66 0.714 3.32 1 5-1 1-1 1-4.06 1.06-0.969-0.0206-1.94-0.0412-2.94-0.0625-0.625-1.88-0.625-1.88-1-4 2-2 2-2 4.62-2.12z" fill="#FBFDFD"/>
<path transform="translate(450,699)" d="m0 0c0.66 0.33 1.32 0.66 2 1v12c-0.99-0.33-1.98-0.66-3-1-0.027-1.62-0.0464-3.25-0.0625-4.88-0.0116-0.905-0.0232-1.81-0.0352-2.74 0.0977-2.38 0.0977-2.38 1.1-4.38z" fill="#FBFDFD"/>
<path transform="translate(625,1096)" d="m0 0c0.99 0.33 1.98 0.66 3 1 0.33 1.98 0.66 3.96 1 6-1.32 0.33-2.64 0.66-4 1-0.8-3.29-1.1-4.71 0-8z" fill="#FBFDFD"/>
<path transform="translate(936,1096)" d="m0 0c0.99 0.33 1.98 0.66 3 1 0.33 1.98 0.66 3.96 1 6-1.65-0.33-3.3-0.66-5-1 0.33-1.98 0.66-3.96 1-6z" fill="#FBFDFD"/>
</svg>
